<?xml version="1.0" encoding="UTF-8"?>
<svg version="1.1" xmlns="http://www.w3.org/2000/svg" width="3675" height="3675">
<path d="M0 0 C1.92570266 1.4883818 3.84336212 2.98727296 5.75 4.5 C6.43191406 5.03753906 7.11382813 5.57507812 7.81640625 6.12890625 C27.96702446 22.67314984 35.52434118 46.12771851 39.359375 70.97998047 C39.69561552 73.14915215 40.06132046 75.31018368 40.4375 77.47265625 C43.69432901 98.61942793 41.96715547 120.27288402 39.16455078 141.36035156 C38.77256934 144.32906845 38.41117811 147.29982211 38.05859375 150.2734375 C36.54016486 162.6724815 34.12037704 174.76463853 31.31958008 186.93334961 C30.78296633 189.35144661 30.31011137 191.77311739 29.8515625 194.20703125 C28.46998811 201.20069395 26.56741065 208.06487806 24.6875 214.9375 C24.48958862 215.66130859 24.29167725 216.38511719 24.08776855 217.13085938 C17.17939122 242.27928142 8.27969323 266.5077061 -1.5045166 290.65551758 C-2.19044614 292.35265126 -2.87041088 294.05219252 -3.54980469 295.75195312 C-10.1411301 312.23836411 -17.65515459 328.2606148 -25.29051208 344.28186035 C-27.71493116 349.36911116 -30.12390387 354.46346482 -32.5234375 359.5625 C-32.8452298 360.24593979 -33.16702209 360.92937958 -33.49856567 361.63352966 C-35.59981969 366.10188703 -37.67883807 370.58011605 -39.75 375.0625 C-42.41375526 380.79016877 -45.20242356 386.44523368 -48.05200195 392.08251953 C-51.37471188 398.68332856 -54.53156864 405.36101964 -57.66137695 412.05517578 C-59.88694199 416.77932548 -62.25101173 421.36595937 -64.8190918 425.91186523 C-68.03237953 431.72385351 -71.0240645 437.65771365 -74.0625 443.5625 C-74.78897301 444.97184663 -75.51545419 446.38118905 -76.24194336 447.79052734 C-80.24245289 455.55832299 -84.19081239 463.34869394 -88.07421875 471.17578125 C-95.40063612 485.82497281 -103.03029224 500.33435618 -110.6875 514.8125 C-115.00467933 522.9786674 -119.1542733 531.22095978 -123.25 539.5 C-127.41298729 547.91499977 -131.64727194 556.27661168 -136.0625 564.5625 C-140.37848188 572.67377113 -144.35746965 580.92186801 -148.28222656 589.22827148 C-150.8322468 594.60346476 -153.45824785 599.90519261 -156.3125 605.125 C-160.46722976 612.75910222 -164.1593245 620.59279799 -167.85546875 628.45703125 C-169.39253358 631.7241264 -170.98177822 634.95578035 -172.62255859 638.171875 C-175.18949638 643.295777 -177.47007684 648.50847618 -179.68359375 653.79296875 C-180.08401382 654.74206619 -180.4844339 655.69116364 -180.89698792 656.66902161 C-181.73798299 658.66418754 -182.57739534 660.66002131 -183.4152832 662.65649414 C-184.67755288 665.66380139 -185.94477851 668.6689805 -187.21289062 671.67382812 C-196.2072174 693.00231129 -196.2072174 693.00231129 -203.98413086 714.79296875 C-205.20319914 718.36294613 -206.56496633 721.82607516 -208.00390625 725.3125 C-211.56905622 734.09307917 -214.64439688 743.02770413 -217.6875 752 C-217.97102325 752.83315735 -218.25454651 753.6663147 -218.54666138 754.52471924 C-223.04970514 767.7691892 -227.48762511 781.02250263 -231.25 794.5 C-231.5082959 795.42216309 -231.7665918 796.34432617 -232.03271484 797.29443359 C-238.4972289 820.76369036 -243.17833792 844.25207278 -242.15380859 868.65478516 C-241.91948113 875.67785892 -242.1636024 880.65590634 -246.25 886.5 C-247.13558594 887.77423828 -247.13558594 887.77423828 -248.0390625 889.07421875 C-255.50483745 897.66780226 -263.94279463 901.49123467 -275.25 902.5 C-290.90038645 903.24516575 -305.61793012 898.89161122 -319.25 891.5 C-320.44243479 890.8848861 -321.63514383 890.27030356 -322.828125 889.65625 C-352.88898635 873.76422854 -368.58889943 846.47722416 -378.3359375 814.9921875 C-387.09658279 783.10343864 -390.4790762 747.57284239 -390.92285156 714.56591797 C-391.01213855 708.91080471 -391.33556583 703.50081226 -392.2421875 697.9140625 C-393.80272554 687.85803934 -393.66126001 677.72873338 -393.78173828 667.57519531 C-393.84792953 655.16541267 -393.84792953 655.16541267 -395.78222656 642.95117188 C-396.85151314 637.34802094 -396.73441848 631.56269409 -396.875 625.875 C-396.91367188 624.58464844 -396.95234375 623.29429687 -396.9921875 621.96484375 C-397.08566342 618.8100313 -397.17142313 615.65521273 -397.25 612.5 C-399.92440566 615.01613599 -401.88969921 617.27957267 -403.546875 620.5546875 C-403.94374512 621.32683594 -404.34061523 622.09898437 -404.74951172 622.89453125 C-405.36850342 624.12236328 -405.36850342 624.12236328 -406 625.375 C-406.89149632 627.10245788 -407.78473858 628.82901579 -408.6796875 630.5546875 C-409.11764648 631.4012793 -409.55560547 632.24787109 -410.00683594 633.12011719 C-424.84147153 661.51917998 -443.68051857 687.78386585 -463.8125 712.625 C-464.35503418 713.2945874 -464.89756836 713.9641748 -465.45654297 714.65405273 C-468.05007923 717.8418919 -470.66819787 720.99947487 -473.359375 724.10546875 C-476.02727776 727.19944934 -478.49299872 730.41294735 -480.9375 733.6875 C-485.2332461 739.36151622 -489.86953328 744.60871234 -494.73046875 749.80078125 C-496.78361895 752.00035767 -498.78343338 754.22366393 -500.75 756.5 C-508.26091932 765.12168908 -516.05493414 773.40142716 -524.125 781.5 C-524.85058105 782.23017334 -525.57616211 782.96034668 -526.32373047 783.71264648 C-536.13953229 793.5 -536.13953229 793.5 -539.25 793.5 C-539.44464844 794.04011719 -539.63929687 794.58023438 -539.83984375 795.13671875 C-541.89113377 798.57447627 -544.7544583 800.77306888 -547.8125 803.3125 C-548.75923584 804.11034912 -548.75923584 804.11034912 -549.72509766 804.92431641 C-554.47362683 808.90628864 -559.30145803 812.76911107 -564.25 816.5 C-564.84296875 816.96277344 -565.4359375 817.42554687 -566.046875 817.90234375 C-572.14009689 822.60245721 -578.55298378 826.84084836 -585 831.03466797 C-586.5580586 832.04936716 -588.11251914 833.06960457 -589.6640625 834.09423828 C-601.40636428 841.8171647 -612.94868858 847.91393043 -626.15820312 852.71386719 C-628.85230208 853.72635536 -631.44806125 854.92356716 -634.0625 856.125 C-656.94482348 865.64585391 -682.46359148 868.41386016 -706.9375 865.3125 C-707.97334229 865.18157959 -709.00918457 865.05065918 -710.07641602 864.91577148 C-722.30324349 863.24551218 -734.22773787 860.16710647 -745.25 854.5 C-745.84748047 854.20109863 -746.44496094 853.90219727 -747.06054688 853.59423828 C-760.14945998 847.02794608 -771.81739876 839.3105006 -783.3125 830.25 C-783.94430176 829.75459717 -784.57610352 829.25919434 -785.22705078 828.7487793 C-788.72986222 825.93603022 -791.51752984 823.09962393 -794.25 819.5 C-795.013125 818.901875 -795.77625 818.30375 -796.5625 817.6875 C-812.56543768 804.66185305 -822.35954403 784.00247881 -832.02709961 766.21240234 C-832.42034424 765.49391113 -832.81358887 764.77541992 -833.21875 764.03515625 C-833.73598633 763.08201538 -833.73598633 763.08201538 -834.26367188 762.10961914 C-835.2738224 760.32053338 -835.2738224 760.32053338 -837.25 758.5 C-839.77798865 758.50050997 -839.77798865 758.50050997 -842.25 759.5 C-843.74760207 761.27243435 -843.74760207 761.27243435 -844.7109375 763.6484375 C-845.3311377 765.0111377 -845.3311377 765.0111377 -845.96386719 766.40136719 C-848.12403428 771.60577887 -850.15183238 776.8553324 -852.12683105 782.13204956 C-857.54294027 796.55932204 -863.56107314 810.61114903 -870.25 824.5 C-870.59450195 825.22074707 -870.93900391 825.94149414 -871.29394531 826.68408203 C-880.17000029 845.16911851 -889.92162433 863.39799356 -901.25 880.5 C-901.99999268 881.63429443 -901.99999268 881.63429443 -902.76513672 882.79150391 C-918.56747341 906.55987107 -935.94281426 930.26057826 -961.25 944.5 C-961.96929688 944.92152344 -962.68859375 945.34304688 -963.4296875 945.77734375 C-976.72394382 953.08642658 -994.13042012 953.72437222 -1008.625 949.9375 C-1027.33788726 943.64874281 -1042.40959538 932.2656154 -1056.25 918.5 C-1056.74661133 918.00741699 -1057.24322266 917.51483398 -1057.75488281 917.00732422 C-1076.85774613 897.79671416 -1088.35233868 869.91017367 -1093.25 843.5 C-1093.37858398 842.82259766 -1093.50716797 842.14519531 -1093.63964844 841.44726562 C-1095.32942204 832.43779036 -1096.57991638 823.5866663 -1096.94140625 814.41796875 C-1097.20159944 811.11450331 -1097.67606755 808.02771569 -1098.25268555 804.7722168 C-1099.47235379 796.92065584 -1099.54060864 789.14783903 -1099.515625 781.2265625 C-1099.51697745 779.68923888 -1099.51892277 778.15191569 -1099.52142334 776.61459351 C-1099.52434915 773.41261674 -1099.52016105 770.21075259 -1099.51074219 767.00878906 C-1099.49936867 762.9491557 -1099.50591014 758.88978756 -1099.51788712 754.83016396 C-1099.52519174 751.66071659 -1099.52277851 748.49132976 -1099.51763153 745.32188034 C-1099.51631765 743.82709088 -1099.51786119 742.33229553 -1099.52259064 740.83751297 C-1099.54717361 730.88623782 -1098.73394884 721.33675974 -1097.25 711.5 C-1096.9160372 708.54490878 -1096.64248564 705.58673986 -1096.375 702.625 C-1090.83177651 644.96279892 -1083.1496796 584.97338776 -1066.25 529.5 C-1064.51240865 523.5841076 -1063.22469343 517.87644181 -1062.68896484 511.72216797 C-1060.86582348 490.88559371 -1054.65054153 470.35126359 -1048.25 450.5 C-1047.90146973 449.40816406 -1047.55293945 448.31632812 -1047.19384766 447.19140625 C-1046.03698466 443.58195418 -1044.86505137 439.97775226 -1043.6875 436.375 C-1043.14150146 434.68479736 -1043.14150146 434.68479736 -1042.58447266 432.96044922 C-1040.58620785 426.93696727 -1038.34331594 421.29467375 -1035.35253906 415.69262695 C-1032.25098247 409.52454021 -1031.17200138 403.24964025 -1030.4375 396.4375 C-1029.45183622 388.41595981 -1026.99245403 381.42612622 -1024.1328125 373.90185547 C-1023.19799877 371.35852099 -1022.34217649 368.79809531 -1021.5 366.22265625 C-1015.21670639 347.13931971 -1006.97758349 329.06906592 -997.25 311.5 C-992.41440391 302.54818788 -988.37595428 293.53319396 -984.97167969 283.9440918 C-982.71728576 277.63600143 -980.2079625 271.46641821 -977.5625 265.3125 C-977.19390869 264.45180908 -976.82531738 263.59111816 -976.44555664 262.7043457 C-974.76233944 258.82037802 -973.02097201 254.99780991 -971.08984375 251.23046875 C-969.55704405 248.21516847 -968.40816088 245.26937915 -967.5 242 C-967.25765625 241.1440625 -967.0153125 240.288125 -966.765625 239.40625 C-966.59546875 238.7771875 -966.4253125 238.148125 -966.25 237.5 C-969.24694284 239.12691183 -971.44787753 240.69787753 -973.875 243.125 C-976.25 245.5 -976.25 245.5 -979.25 246.5 C-979.94599488 247.81826149 -980.60674165 249.15521715 -981.25 250.5 C-982.63196459 252.21603455 -984.05470504 253.89945365 -985.5 255.5625 C-990.05933496 260.91826274 -994.31701106 266.47151588 -998.5 272.125 C-999.07782227 272.89980713 -999.65564453 273.67461426 -1000.25097656 274.47290039 C-1005.70656948 281.89648186 -1010.26997305 289.76475494 -1014.82324219 297.76000977 C-1018.22185148 303.68783306 -1021.67840368 309.24579926 -1026 314.5625 C-1032.89029563 323.20511571 -1038.0869321 332.8953709 -1043.53369141 342.48486328 C-1046.11928809 347.02712772 -1048.74893471 351.54356001 -1051.375 356.0625 C-1054.35021796 361.19876969 -1057.3108613 366.34300543 -1060.25 371.5 C-1060.61416016 372.13558838 -1060.97832031 372.77117676 -1061.35351562 373.42602539 C-1066.13167419 381.78881007 -1070.66516329 390.18300245 -1074.6875 398.9375 C-1077.66734123 405.41992684 -1080.95541995 411.57045669 -1084.625 417.6875 C-1090.06631076 426.7860852 -1094.43974765 436.26214398 -1098.7421875 445.94140625 C-1100.75504112 450.46679145 -1102.92342957 454.89141813 -1105.16064453 459.30932617 C-1106.47572018 461.95391913 -1107.63956966 464.63858237 -1108.75 467.375 C-1111.25 473.5 -1111.25 473.5 -1112.33496094 476.05688477 C-1115.63156676 483.85103982 -1118.61164851 491.73400052 -1121.5 499.6875 C-1121.97838137 500.99771872 -1122.45698204 502.3078574 -1122.93579102 503.61791992 C-1125.25416466 509.96915964 -1127.55064073 516.32788024 -1129.82421875 522.6953125 C-1130.22415039 523.81397705 -1130.62408203 524.9326416 -1131.03613281 526.08520508 C-1131.77981454 528.16975316 -1132.52028003 530.25545273 -1133.25683594 532.3425293 C-1134.79790927 536.66822628 -1136.39125874 540.90382577 -1138.31640625 545.07421875 C-1140.01506963 548.80996394 -1141.22498265 552.53671347 -1142.35205078 556.47802734 C-1143.49168652 560.31337568 -1144.75507257 564.10145544 -1146.02734375 567.89453125 C-1146.28174225 568.65434296 -1146.53614075 569.41415466 -1146.79824829 570.19699097 C-1147.85892564 573.36122627 -1148.92255426 576.52446664 -1149.98608398 579.68774414 C-1157.56216775 602.2387771 -1163.91677797 625.00149623 -1169.76800537 648.05575562 C-1170.20663071 649.77996626 -1170.64797801 651.50348728 -1171.09234619 653.22622681 C-1174.01662785 664.58486792 -1176.30671624 675.88669644 -1177.96218872 687.49917603 C-1178.33668266 690.1026058 -1178.75213031 692.6991411 -1179.1640625 695.296875 C-1180.39978795 703.68492976 -1181.31685288 711.98557027 -1181.51953125 720.46875 C-1181.5363092 721.15414856 -1181.55308716 721.83954712 -1181.57037354 722.54571533 C-1181.64561709 725.92453773 -1181.68865944 729.29875666 -1181.69580078 732.67871094 C-1181.86031341 745.02514425 -1184.34585718 753.47427808 -1193.0234375 762.40625 C-1200.7275803 769.65084744 -1209.08324183 772.21453044 -1219.55078125 771.8984375 C-1239.78159768 769.71940553 -1258.00608954 759.58038671 -1273.25 746.5 C-1273.78238281 746.04447754 -1274.31476563 745.58895508 -1274.86328125 745.11962891 C-1281.08143899 739.75294324 -1286.60068174 734.30883767 -1291.25 727.5 C-1291.90742187 726.6234375 -1292.56484375 725.746875 -1293.2421875 724.84375 C-1299.54850921 716.43532105 -1303.47202523 708.6461134 -1306.375 698.5625 C-1306.62636719 697.72009766 -1306.87773438 696.87769531 -1307.13671875 696.00976562 C-1318.4675888 657.47887505 -1312.02358186 615.392285 -1305.7331543 576.52484131 C-1305.23919886 573.43237828 -1304.76679891 570.33721737 -1304.29882812 567.24072266 C-1302.44837413 555.12173115 -1300.19329935 543.17742607 -1297.50878906 531.21679688 C-1296.2187897 525.4403483 -1295.07560812 519.64061546 -1293.9609375 513.828125 C-1289.09081843 488.57899765 -1283.6023495 463.62863246 -1276.89834595 438.79899597 C-1275.71563994 434.39468994 -1274.66053785 429.97833767 -1273.69918823 425.52029419 C-1273.0201632 422.46627312 -1272.19836418 419.45536787 -1271.375 416.4375 C-1269.95427561 411.22927603 -1268.66626888 406.00786513 -1267.4375 400.75 C-1264.70613448 389.49721415 -1260.32253982 378.81547262 -1256.125 368.046875 C-1252.29975917 358.19805941 -1248.61784393 348.58754325 -1246.84765625 338.12109375 C-1245.52506907 330.47528025 -1242.74533456 323.53817524 -1239.94873047 316.33544922 C-1238.58920775 312.76420821 -1237.41904974 309.13704364 -1236.25 305.5 C-1240.9014493 308.28412835 -1243.95538564 311.26735102 -1247.125 315.6875 C-1250.11827324 319.73235664 -1253.14706898 323.60653137 -1256.5625 327.3125 C-1261.50149148 332.77607374 -1264.79674936 338.51720154 -1268 345.125 C-1270.60722851 350.44669521 -1273.61291036 355.33717212 -1276.85571289 360.28100586 C-1280.53793412 365.89928026 -1283.94130924 371.65357556 -1287.25 377.5 C-1287.73984375 378.3559375 -1288.2296875 379.211875 -1288.734375 380.09375 C-1294.24436239 389.92878126 -1299.30444764 400.20520989 -1303.3125 410.75 C-1305.18538071 415.655953 -1307.73158107 420.10874708 -1310.37109375 424.640625 C-1312.71068346 429.08933738 -1314.20881775 433.85787679 -1315.86010742 438.59326172 C-1318.27040026 445.44939315 -1321.00765786 452.18348361 -1323.6875 458.9375 C-1324.2404375 460.33650828 -1324.79317233 461.73559667 -1325.34570312 463.13476562 C-1339.51449054 498.98587349 -1339.51449054 498.98587349 -1343.28125 506.6953125 C-1348.75307932 517.89885324 -1353.28141581 529.21051782 -1357.37402344 540.98681641 C-1358.13398416 543.16714966 -1358.9088234 545.34085396 -1359.6953125 547.51171875 C-1364.67561976 561.30935685 -1369.22551434 575.26163857 -1373.82421875 589.18994141 C-1374.74859675 591.98829001 -1375.67811587 594.78482816 -1376.61328125 597.57958984 C-1381.54431706 612.32290593 -1386.08408137 627.056373 -1389.71459961 642.18652344 C-1391.60664601 650.05522677 -1393.76031915 657.80494124 -1396.0625 665.5625 C-1401.22461124 683.13659263 -1405.15011162 701.01261597 -1409.19580078 718.86914062 C-1410.01627914 722.48516498 -1410.85597271 726.09599286 -1411.71484375 729.703125 C-1414.6009283 741.8837561 -1417.01834721 754.157337 -1419.4375 766.4375 C-1419.61234924 767.31899719 -1419.78719849 768.20049438 -1419.96734619 769.10870361 C-1423.41959236 786.56211046 -1425.58156347 803.7277487 -1426.375 821.5 C-1426.4183548 822.40965515 -1426.46170959 823.3193103 -1426.50637817 824.25653076 C-1426.95893072 833.78920686 -1427.3264339 843.30686365 -1427.26953125 852.8515625 C-1427.26532166 853.56584412 -1427.26111206 854.28012573 -1427.2567749 855.01605225 C-1427.23004236 858.31450309 -1427.1748227 861.60861074 -1427.08837891 864.90625 C-1426.90449238 875.47457638 -1429.07855445 881.96863124 -1435.9375 890.1640625 C-1442.57085224 896.86464466 -1450.74525224 900.42364372 -1460.125 900.875 C-1484.55088942 900.33963804 -1509.6317201 887.33363917 -1527.33203125 871.1640625 C-1530.13754386 868.5314692 -1530.13754386 868.5314692 -1532.8671875 866.46875 C-1535.47533322 864.31382304 -1537.46293643 862.02416684 -1539.5625 859.375 C-1540.25988281 858.50617187 -1540.95726562 857.63734375 -1541.67578125 856.7421875 C-1543.25 854.5 -1543.25 854.5 -1543.25 852.5 C-1543.91 852.5 -1544.57 852.5 -1545.25 852.5 C-1557.93043919 838.31620977 -1561.24419937 819.13160076 -1563 800.875 C-1563.06481567 800.21467773 -1563.12963135 799.55435547 -1563.19641113 798.87402344 C-1564.61611275 784.05017212 -1564.95555539 768.860319 -1562.73901367 754.09643555 C-1562.25253121 750.51861572 -1562.07672827 747.06552176 -1562.00390625 743.45703125 C-1561.97094539 742.12173879 -1561.93773415 740.78645249 -1561.90429688 739.45117188 C-1561.85724192 737.38928703 -1561.81278654 735.32742296 -1561.77319336 733.26538086 C-1561.61743464 725.49889676 -1561.13133076 718.01490848 -1559.70678711 710.3659668 C-1558.92047649 705.43250854 -1558.86639586 700.48649546 -1558.75 695.5 C-1558.52004044 688.3983076 -1558.14429711 681.57546019 -1556.78125 674.58984375 C-1555.08549657 664.72704257 -1554.60494593 654.60792395 -1553.74258423 644.64642334 C-1549.63521138 597.20525773 -1549.63521138 597.20525773 -1546.71484375 577.9453125 C-1545.61988476 569.82973414 -1544.98750961 561.65437875 -1544.25 553.5 C-1543.9207119 549.87461521 -1543.58653095 546.2497188 -1543.25 542.625 C-1543.17910156 541.83085693 -1543.10820313 541.03671387 -1543.03515625 540.21850586 C-1542.57848782 535.29980631 -1541.96266298 530.42586508 -1541.265625 525.53515625 C-1540.49617663 519.87502588 -1539.96484248 514.25103402 -1539.609375 508.55078125 C-1539.53657822 507.38394806 -1539.53657822 507.38394806 -1539.46231079 506.19354248 C-1539.36173121 504.5726346 -1539.26119704 502.9517239 -1539.16070557 501.33081055 C-1537.87043139 481.11177803 -1535.08068468 461.38307764 -1531.25 441.5 C-1531.01990234 440.30310547 -1530.78980469 439.10621094 -1530.55273438 437.87304688 C-1528.42349852 426.97563032 -1525.98118706 416.18986065 -1523.203125 405.44140625 C-1522.10658115 401.05634069 -1521.28262526 396.6265017 -1520.4375 392.1875 C-1517.24101572 375.76152424 -1513.46664649 359.39125387 -1507.125 343.875 C-1504.20116523 336.70853786 -1502.41120915 329.87462282 -1501.125 322.25 C-1498.1344431 305.03814195 -1491.79545288 288.77425208 -1485.96875 272.36279297 C-1484.44885139 268.07617113 -1482.96328007 263.77889742 -1481.5 259.47265625 C-1477.50608135 247.72712931 -1473.42177197 236.01277447 -1469.20907593 224.34384155 C-1468.52690094 222.44969396 -1467.85276076 220.55265851 -1467.17895508 218.65551758 C-1461.56899372 203.24805691 -1454.16349269 189.5554632 -1439.25 181.5 C-1422.17224114 174.15527965 -1403.06945589 180.97077828 -1386.72851562 187.37402344 C-1362.57534947 197.15883093 -1339.93508748 213.36479697 -1329.375 237.875 C-1324.45436338 249.96477608 -1325.79894827 260.44359432 -1330.25 272.5 C-1332.09856035 276.51221251 -1334.19685049 280.34600718 -1336.375 284.1875 C-1336.94758545 285.22132813 -1337.5201709 286.25515625 -1338.11010742 287.3203125 C-1339.81146523 290.38706859 -1341.52841808 293.44456147 -1343.25 296.5 C-1345.02384888 299.66498583 -1346.79449024 302.83174884 -1348.5625 306 C-1348.96879639 306.72767578 -1349.37509277 307.45535156 -1349.79370117 308.20507812 C-1353.44608674 314.78219941 -1356.85370431 321.46049588 -1360.14013672 328.22705078 C-1361.38270926 330.77178249 -1362.64710559 333.3052174 -1363.91015625 335.83984375 C-1369.88961256 347.95515649 -1374.92998484 360.1377041 -1379.33691406 372.90380859 C-1380.21684718 375.40573607 -1381.13975466 377.88573633 -1382.0859375 380.36328125 C-1385.8225559 390.15216888 -1388.9368404 399.9865503 -1391.72265625 410.0859375 C-1392.72467475 413.69894109 -1393.79387798 417.27962955 -1394.93359375 420.8515625 C-1398.78950516 432.9551701 -1401.90972828 445.12485132 -1404.58959961 457.53662109 C-1404.9803064 459.34187256 -1404.9803064 459.34187256 -1405.37890625 461.18359375 C-1405.51530014 461.81795853 -1405.65169403 462.4523233 -1405.79222107 463.10591125 C-1406.63784844 466.96190781 -1407.57601519 470.77983869 -1408.59814453 474.59301758 C-1413.11712956 491.57767655 -1415.9648717 508.67889812 -1418.64459229 526.02624512 C-1419.11991688 529.08389729 -1419.60699367 532.13962888 -1420.09410858 535.19542122 C-1424.68828903 560.71792273 -1424.68828903 560.71792273 -1426.25 586.5 C-1423.03975631 579.22422102 -1420.89248217 571.86667152 -1418.98675537 564.15524292 C-1418.13941382 560.72980493 -1417.26790554 557.31050125 -1416.3984375 553.890625 C-1416.22116119 553.19142441 -1416.04388489 552.49222382 -1415.86123657 551.77183533 C-1414.04434744 544.63377686 -1412.097559 537.53415047 -1410.125 530.4375 C-1409.7937915 529.24334473 -1409.46258301 528.04918945 -1409.12133789 526.81884766 C-1407.87233973 522.32146324 -1406.61954629 517.82514279 -1405.36572266 513.32910156 C-1404.55261297 510.40791234 -1403.74460078 507.48535414 -1402.9375 504.5625 C-1402.70724121 503.74193115 -1402.47698242 502.9213623 -1402.23974609 502.07592773 C-1400.94136796 497.3629961 -1399.84151653 492.6423485 -1398.84765625 487.85546875 C-1397.20593 480.06319824 -1395.16264566 472.40946533 -1393 464.75 C-1392.70603333 463.70400131 -1392.70603333 463.70400131 -1392.40612793 462.63687134 C-1389.30532247 451.65414514 -1385.80667883 440.97236714 -1381.25 430.5 C-1380.78722656 429.43136719 -1380.32445312 428.36273437 -1379.84765625 427.26171875 C-1378.09938701 423.33475531 -1376.25124662 419.49066589 -1374.25 415.6875 C-1371.88619165 411.04498039 -1370.313768 406.1334297 -1368.6015625 401.22265625 C-1366.41481829 395.19962956 -1363.84764343 389.35511606 -1361.25 383.5 C-1360.85039063 382.58863281 -1360.45078125 381.67726563 -1360.0390625 380.73828125 C-1356.38086192 372.52574371 -1352.33827833 364.50447138 -1348.25 356.5 C-1347.59475342 355.21633545 -1347.59475342 355.21633545 -1346.92626953 353.90673828 C-1342.28728106 344.8518366 -1337.69061102 335.89399748 -1332.05078125 327.4140625 C-1329.1223392 322.67519532 -1326.64255795 317.70275705 -1324.08618164 312.75610352 C-1321.43465957 307.65841301 -1318.64108937 302.70242905 -1315.625 297.8125 C-1312.52756426 292.78601293 -1309.76998771 287.68425555 -1307.1875 282.375 C-1303.16545645 274.1199074 -1298.44870074 266.46325873 -1293.47265625 258.7421875 C-1290.22713943 253.69360578 -1287.1341154 248.60165145 -1284.1875 243.375 C-1281.593805 238.78417213 -1278.91466361 234.30541536 -1275.9296875 229.95703125 C-1274.59819144 228.0093312 -1273.29646254 226.05011305 -1272.0078125 224.07421875 C-1267.59185998 217.32458293 -1263.04392815 210.76301088 -1258.0690918 204.4128418 C-1254.89346166 200.35862271 -1251.83805149 196.22965795 -1248.8125 192.0625 C-1232.92266641 170.2978348 -1232.92266641 170.2978348 -1223.25 161.5 C-1222.43273438 160.74074219 -1221.61546875 159.98148438 -1220.7734375 159.19921875 C-1209.45520657 149.26655297 -1194.56373764 142.14594517 -1179.21191406 142.55419922 C-1161.25745259 143.9626441 -1143.94391673 152.10112942 -1130.25 163.5 C-1129.72470703 163.92651855 -1129.19941406 164.35303711 -1128.65820312 164.79248047 C-1115.05321483 175.9632017 -1107.16790754 189.0656939 -1101.25 205.5 C-1100.8890625 206.42683594 -1100.528125 207.35367187 -1100.15625 208.30859375 C-1098.05763994 214.22550823 -1098.02584655 219.76277045 -1098.2421875 226.0078125 C-1098.25098964 229.94237104 -1097.80365677 233.60736704 -1097.25 237.5 C-1096.54037109 236.01113281 -1096.54037109 236.01113281 -1095.81640625 234.4921875 C-1091.54210923 225.65878637 -1086.82294952 217.41629803 -1081.39453125 209.25097656 C-1079.88804448 206.94625747 -1078.45724847 204.59894214 -1077.02270508 202.24902344 C-1071.8204077 193.75448299 -1066.27086835 185.49651045 -1060.6875 177.25 C-1060.08884125 176.36293365 -1060.08884125 176.36293365 -1059.47808838 175.45794678 C-1054.61389752 168.25820493 -1049.59298761 161.23006279 -1044.34155273 154.30419922 C-1040.69897115 149.42049523 -1037.33859327 144.35055825 -1033.95898438 139.28320312 C-1031.05733645 134.98222927 -1028.06110842 130.93342844 -1024.60302734 127.06225586 C-1023.15864643 125.39451975 -1021.85770959 123.66035655 -1020.5625 121.875 C-1017.35491325 117.52787585 -1013.85657981 113.45179916 -1010.34667969 109.34912109 C-1007.7417882 106.29477545 -1005.22493771 103.21067078 -1002.8125 100 C-999.40135547 95.53674342 -995.61707584 91.45861804 -991.77563477 87.3671875 C-989.18494774 84.60747684 -986.6593257 81.8178776 -984.203125 78.9375 C-979.32132495 73.331602 -974.0447793 68.10875739 -968.79052734 62.85522461 C-967.01238228 61.07489748 -965.24240439 59.28671623 -963.47265625 57.49804688 C-956.70575895 50.69781045 -949.79269213 44.44084679 -942.25 38.5 C-941.00529203 37.46551966 -939.76393966 36.42697631 -938.52734375 35.3828125 C-921.53560105 21.25504288 -899.81419286 6.00479439 -876.625 7.625 C-874.82772794 7.87985689 -873.03556144 8.17303024 -871.25 8.5 C-870.23550781 8.665 -869.22101562 8.83 -868.17578125 9 C-859.3458986 10.7041993 -852.10366697 14.29267841 -844.25 18.5 C-842.5233427 19.33852035 -840.79442046 20.1724051 -839.0625 21 C-825.76529447 27.69205768 -814.53424601 36.81384092 -804.25 47.5 C-803.404375 48.325 -802.55875 49.15 -801.6875 50 C-800.883125 50.825 -800.07875 51.65 -799.25 52.5 C-798.75242187 53.00144531 -798.25484375 53.50289062 -797.7421875 54.01953125 C-791.46834734 60.71649086 -786.92221019 68.65008788 -782.25 76.5 C-781.71536133 77.38739868 -781.71536133 77.38739868 -781.16992188 78.29272461 C-778.7549763 82.38720733 -776.85614364 86.52720549 -775.125 90.9375 C-774.87363281 91.55431641 -774.62226562 92.17113281 -774.36328125 92.80664062 C-770.74376643 101.91227868 -769.88579409 109.98134649 -769.875 119.75 C-769.85050781 120.90113281 -769.82601562 122.05226563 -769.80078125 123.23828125 C-769.77322015 131.38717865 -771.19818748 137.96529903 -774.25 145.5 C-774.57307129 146.3161377 -774.89614258 147.13227539 -775.22900391 147.97314453 C-776.19112719 150.31743169 -777.2050441 152.62900542 -778.25 154.9375 C-778.63027344 155.77949951 -779.01054688 156.62149902 -779.40234375 157.48901367 C-785.63292208 170.96164401 -793.45955339 183.59105192 -801.16796875 196.25341797 C-804.22404875 201.32968953 -806.84455209 206.58059991 -809.44140625 211.90625 C-811.38292763 215.83044046 -813.52305658 219.63286806 -815.6875 223.4375 C-824.56289843 239.05722489 -832.81148725 254.97529999 -840.32666016 271.29516602 C-843.16173651 277.40166575 -846.17137944 283.41880083 -849.1875 289.4375 C-849.97290161 291.00576538 -849.97290161 291.00576538 -850.77416992 292.60571289 C-852.97127552 296.98515537 -855.17315035 301.36154018 -857.4140625 305.71875 C-864.58762918 319.72747343 -870.82790439 334.19643562 -876.8359375 348.73828125 C-878.82695016 353.5375337 -880.9422878 358.25268492 -883.1875 362.9375 C-883.88294251 364.40749058 -884.57825394 365.87754319 -885.2734375 367.34765625 C-886.45667736 369.8394936 -887.64965835 372.32563566 -888.8515625 374.80859375 C-892.94193844 383.39400848 -896.18535278 392.21451048 -899.40185547 401.15283203 C-903.88610126 413.56260147 -908.55544277 425.93277419 -913.78125 438.05078125 C-917.5320125 446.85908787 -920.3962 455.84852758 -922.9375 465.0625 C-926.39150703 477.50310953 -930.6787225 489.64105754 -934.95654297 501.81787109 C-936.63452348 506.59463629 -938.30195162 511.3750093 -939.96362305 516.1574707 C-940.70855849 518.30145034 -941.45590343 520.44459518 -942.20629883 522.58666992 C-944.73131219 529.8403555 -947.01976024 537.15097074 -949.25 544.5 C-949.80729536 546.29597633 -950.36582094 548.09157153 -950.92578125 549.88671875 C-957.92621096 572.48381841 -963.82848603 595.35589498 -969.46972656 618.32568359 C-970.15935848 621.13125125 -970.85641827 623.93485557 -971.5546875 626.73828125 C-974.25595975 637.7089321 -976.59617585 648.74792393 -978.875 659.8125 C-979.02138916 660.52271301 -979.16777832 661.23292603 -979.31860352 661.96466064 C-982.42385602 677.07062069 -985.30399149 692.1984042 -987.6875 707.4375 C-987.84466492 708.44074814 -987.84466492 708.44074814 -988.00500488 709.46426392 C-989.70095649 720.34821702 -991.17479368 731.25247107 -992.5 742.1875 C-992.58281219 742.8660202 -992.66562439 743.54454041 -992.75094604 744.24362183 C-994.58654679 759.38611749 -995.43658119 774.26743634 -995.43530273 789.51049805 C-995.43749315 792.42837032 -995.45572469 795.34586587 -995.47460938 798.26367188 C-995.72035334 824.06847543 -995.72035334 824.06847543 -986.25 847.5 C-982.88531417 850.86468583 -979.83010736 853.18397853 -975.125 854.125 C-961.30776664 851.12125362 -951.50503375 833.4381355 -944.25 822.5 C-941.75916342 818.52965918 -939.50477082 814.43456284 -937.26416016 810.31884766 C-935.75141365 807.60580926 -934.14441207 804.9512982 -932.5456543 802.28833008 C-924.74107142 789.25716202 -918.3020585 775.66282507 -911.8269043 761.93554688 C-909.70226644 757.45500126 -907.5220803 753.05918468 -905.0625 748.75 C-902.16386977 743.62417366 -899.99934021 738.2553753 -897.87231445 732.77441406 C-896.10273674 728.28702407 -894.00408506 724.16229598 -891.61743164 719.97314453 C-888.9600763 715.16703676 -886.62538968 710.19973333 -884.25 705.25 C-883.74210937 704.20714844 -883.23421875 703.16429688 -882.7109375 702.08984375 C-879.15294932 694.69105294 -876.12226937 687.18714726 -873.25 679.5 C-872.34610542 677.16054691 -871.4397996 674.82202421 -870.53125 672.484375 C-862.08232037 650.57370357 -855.3584551 629.33017339 -852.3125 605.9375 C-851.97267484 603.41015375 -851.63283049 600.88281008 -851.29296875 598.35546875 C-850.94521512 595.7369921 -850.59756019 593.11850233 -850.25 590.5 C-849.54898148 585.24899864 -848.83799636 579.99938943 -848.125 574.75 C-847.96652588 573.55560303 -847.80805176 572.36120605 -847.64477539 571.13061523 C-846.88700903 565.54621526 -846.00794062 560.07279185 -844.71435547 554.58789062 C-843.90852688 550.96462771 -843.41239769 547.29585164 -842.875 543.625 C-841.77267456 536.35464643 -840.38657774 529.19684899 -838.78808594 522.02075195 C-837.83870257 517.65032992 -837.05124329 513.30471386 -836.45703125 508.87109375 C-834.7790073 496.47703646 -832.1340479 484.78063191 -828.375 472.875 C-828.16816589 472.21625885 -827.96133179 471.5575177 -827.74822998 470.8788147 C-824.08322962 459.3010992 -819.66550946 448.09455673 -814.875 436.9375 C-812.89404748 432.24144003 -811.15852951 427.48413527 -809.45654297 422.68237305 C-805.90019124 412.66682094 -801.98534189 403.02486907 -797.25 393.51025391 C-796.23754069 391.47495361 -795.24269221 389.43172286 -794.25 387.38671875 C-790.52277194 379.76300861 -786.51072365 372.39444972 -782.25 365.0546875 C-778.24763923 358.0466476 -774.79170679 350.73099655 -771.26611328 343.47509766 C-762.35930999 325.1516442 -751.77876319 308.65632799 -739.02734375 292.72265625 C-737.29541685 290.55679601 -735.69931476 288.34486084 -734.125 286.0625 C-726.58597204 275.23517261 -718.90509669 264.62818699 -710.68066406 254.31152344 C-709.16301288 252.3898559 -707.66944115 250.45117402 -706.1796875 248.5078125 C-705.67880615 247.858125 -705.1779248 247.2084375 -704.66186523 246.5390625 C-703.69576154 245.28483945 -702.73415614 244.02713561 -701.77758789 242.765625 C-700.64793786 241.30676508 -699.4544425 239.89774808 -698.25 238.5 C-697.59 238.5 -696.93 238.5 -696.25 238.5 C-695.92 237.51 -695.59 236.52 -695.25 235.5 C-694.59 235.5 -693.93 235.5 -693.25 235.5 C-692.97788193 234.90321945 -692.70576385 234.3064389 -692.42539978 233.6915741 C-691.27522979 231.54704184 -690.15182754 230.14852597 -688.44360352 228.43481445 C-687.59615318 227.57790764 -687.59615318 227.57790764 -686.73158264 226.70368958 C-686.12019943 226.09635483 -685.50881622 225.48902008 -684.87890625 224.86328125 C-684.24194321 224.22440475 -683.60498016 223.58552826 -682.94871521 222.92729187 C-681.59693163 221.57414792 -680.24262154 220.22352391 -678.88598633 218.87524414 C-676.84424242 216.84407797 -674.81322116 214.80264284 -672.78320312 212.75976562 C-665.57736278 205.54663829 -658.28947689 198.78385666 -650.25 192.5 C-648.74743078 191.25308952 -647.24707659 190.00349978 -645.75 188.75 C-610.50016248 160.7509202 -571.82614934 144.58929129 -526.33154297 148.76806641 C-498.89536492 152.56923785 -473.85404698 170.91914318 -457.25 192.5 C-454.81204798 195.76870182 -452.50325868 199.10172875 -450.25 202.5 C-449.76917969 203.19996094 -449.28835938 203.89992188 -448.79296875 204.62109375 C-440.0742932 218.09541051 -434.34138404 233.81856588 -431.25 249.5 C-431.05019531 250.48484375 -430.85039062 251.4696875 -430.64453125 252.484375 C-429.40523936 259.23059549 -428.75131511 266.03197446 -428.07202148 272.85180664 C-427.17818692 281.63149882 -425.9088522 290.35194383 -424.60717773 299.07910156 C-424.48930908 299.87799805 -424.37144043 300.67689453 -424.25 301.5 C-424.0636499 302.59852295 -423.8772998 303.6970459 -423.68530273 304.82885742 C-423.23505553 308.62603475 -423.32029354 312.03722537 -423.6015625 315.84765625 C-423.6506778 316.53537613 -423.69979309 317.22309601 -423.75039673 317.93165588 C-423.90922206 320.12175492 -424.07909003 322.31081403 -424.25 324.5 C-424.35674965 325.93340836 -424.46319649 327.3668393 -424.56933594 328.80029297 C-424.843403 332.44393972 -425.13817441 336.08556085 -425.44238281 339.72680664 C-425.56395677 341.19853415 -425.68213105 342.67054651 -425.796875 344.14282227 C-426.54831553 353.77385626 -427.74584318 363.19658202 -429.54101562 372.69067383 C-430.22557129 376.36874618 -430.80867277 380.05218492 -431.375 383.75 C-437.40372264 417.79179696 -453.22478005 449.75130606 -470.25 479.5 C-470.6330127 480.16950684 -471.01602539 480.83901367 -471.41064453 481.52880859 C-476.82413674 490.92426164 -482.76648683 499.81098835 -489.25 508.5 C-489.65863281 509.04897949 -490.06726562 509.59795898 -490.48828125 510.16357422 C-496.00514564 517.5390965 -501.80707521 524.63617628 -507.8046875 531.625 C-509.4004459 533.50116324 -510.95053746 535.41742984 -512.4453125 537.375 C-513.04085937 538.07625 -513.63640625 538.7775 -514.25 539.5 C-514.91 539.5 -515.57 539.5 -516.25 539.5 C-516.91 540.82 -517.57 542.14 -518.25 543.5 C-518.91 543.5 -519.57 543.5 -520.25 543.5 C-520.25 544.16 -520.25 544.82 -520.25 545.5 C-522.125 547.625 -522.125 547.625 -524.25 549.5 C-524.91 549.5 -525.57 549.5 -526.25 549.5 C-526.58 550.49 -526.91 551.48 -527.25 552.5 C-527.91 552.5 -528.57 552.5 -529.25 552.5 C-529.58 553.49 -529.91 554.48 -530.25 555.5 C-531.640625 556.9375 -531.640625 556.9375 -533.5 558.5 C-534.21800781 559.1084375 -534.93601562 559.716875 -535.67578125 560.34375 C-536.52527344 561.0553125 -537.37476562 561.766875 -538.25 562.5 C-539.28599094 563.38443988 -540.32109739 564.26991653 -541.35546875 565.15625 C-547.53210363 570.43729572 -553.76999639 575.5930049 -560.25 580.5 C-561.46749766 581.4374354 -562.6849406 582.37494187 -563.90234375 583.3125 C-572.09303358 589.5815738 -580.354514 595.26425021 -589.25 600.5 C-590.502406 601.25729193 -591.75366649 602.01648082 -593.00390625 602.77734375 C-594.29413196 603.56012477 -595.58449405 604.34268107 -596.875 605.125 C-597.44806885 605.47328857 -598.0211377 605.82157715 -598.61157227 606.18041992 C-607.66904073 611.62608463 -616.91747848 616.44376556 -626.625 620.625 C-628.1251062 621.27456665 -628.1251062 621.27456665 -629.65551758 621.93725586 C-636.74098403 624.96059494 -643.77702367 627.58662925 -651.25 629.5 C-652.26126953 629.78230469 -652.26126953 629.78230469 -653.29296875 630.0703125 C-661.98462514 631.97866021 -669.56108726 629.82951104 -677.10546875 625.4140625 C-678.51705013 624.48694979 -679.88707416 623.49726281 -681.25 622.5 C-682.24 621.84 -683.23 621.18 -684.25 620.5 C-684.25 619.84 -684.25 619.18 -684.25 618.5 C-684.83136719 618.2525 -685.41273438 618.005 -686.01171875 617.75 C-692.86367465 613.92342777 -697.50043978 605.93134714 -701.609375 599.46875 C-703.45104711 597.25874346 -704.44187445 596.84185876 -707.25 596.5 C-708.79699878 599.33334438 -709.66046715 601.85827569 -710.25 605.02734375 C-710.41395264 605.89512451 -710.57790527 606.76290527 -710.74682617 607.65698242 C-710.91287354 608.57455322 -711.0789209 609.49212402 -711.25 610.4375 C-711.42442627 611.38536377 -711.59885254 612.33322754 -711.77856445 613.30981445 C-712.2764638 616.0386008 -712.76413513 618.76904988 -713.25 621.5 C-713.47042969 622.70140625 -713.69085937 623.9028125 -713.91796875 625.140625 C-715.1093715 632.12779905 -715.60875403 639.07433239 -715.90893555 646.1472168 C-715.95594604 647.23063354 -715.95594604 647.23063354 -716.00390625 648.3359375 C-716.02783447 648.97063965 -716.0517627 649.6053418 -716.07641602 650.25927734 C-716.21945064 652.10565112 -716.47161313 653.94322997 -716.75268555 655.77368164 C-717.26707577 659.62794669 -717.42812675 663.40492266 -717.453125 667.28515625 C-717.46009399 668.01528931 -717.46706299 668.74542236 -717.47424316 669.49768066 C-717.49159145 671.85267936 -717.49796666 674.20744 -717.5 676.5625 C-717.50100708 677.36557587 -717.50201416 678.16865173 -717.50305176 678.99606323 C-717.47984827 706.3574113 -713.64069831 727.05117761 -696.5625 749.0625 C-696.11124756 749.64620361 -695.65999512 750.22990723 -695.19506836 750.83129883 C-687.83466199 760.07532156 -677.67306642 765.39146814 -666.00732422 766.92675781 C-643.09309995 768.69507875 -622.09072291 763.78557231 -602.13427734 752.55908203 C-600.16114445 751.45005761 -598.17059529 750.37807116 -596.17578125 749.30859375 C-587.44392825 744.57444412 -579.3135473 739.30848747 -571.25 733.5 C-570.05027737 732.6512144 -568.8497335 731.80358858 -567.6484375 730.95703125 C-561.60569181 726.68649119 -555.65883852 722.35984195 -549.921875 717.6796875 C-548.25 716.5 -548.25 716.5 -546.25 716.5 C-546.0025 715.88125 -545.755 715.2625 -545.5 714.625 C-544.01259631 712.09641373 -542.81321991 711.78160996 -540.25 710.5 C-539.97542969 709.90703125 -539.70085937 709.3140625 -539.41796875 708.703125 C-537.91757857 705.87295757 -535.99744775 704.32324801 -533.5625 702.25 C-529.73362867 698.88739524 -526.29573799 695.46689371 -523.01171875 691.578125 C-521.05839606 689.27398383 -519.03459148 687.04514906 -517 684.8125 C-509.4152352 676.39353941 -502.16420898 667.70320379 -495.0625 658.875 C-494.59996826 658.30241455 -494.13743652 657.7298291 -493.66088867 657.13989258 C-486.2083857 647.81216777 -479.49624911 638.00982553 -473 628 C-472.25241619 626.85136318 -471.50477535 625.70276348 -470.75708008 624.55419922 C-460.754536 609.16947474 -451.03244772 593.64337734 -441.66210938 577.86499023 C-440.68115014 576.22208703 -439.69228375 574.58388967 -438.69726562 572.94946289 C-435.73692051 568.07792118 -432.97783272 563.19500718 -430.5 558.0625 C-427.89248276 552.73745184 -425.18651674 547.48198074 -422.37719727 542.26049805 C-418.58108323 535.19204208 -415.18067176 528.24428623 -412.45703125 520.6796875 C-411.05591622 516.98872428 -409.43697397 513.44220511 -407.75 509.875 C-407.44811768 509.23643066 -407.14623535 508.59786133 -406.83520508 507.93994141 C-405.97497945 506.12591107 -405.1125399 504.31293109 -404.25 502.5 C-394.91166369 484.09742317 -394.91166369 484.09742317 -391.10473633 464.32617188 C-391.10144003 463.58239037 -391.09814373 462.83860886 -391.09474754 462.07228851 C-391.0852426 459.53776177 -391.08344794 457.00329346 -391.08203125 454.46875 C-391.07784651 452.60994424 -391.07347124 450.7511389 -391.06892395 448.89233398 C-391.0566538 442.59487977 -391.05833574 436.29746219 -391.0625 430 C-391.06306145 428.91177948 -391.06362289 427.82355896 -391.06420135 426.70236206 C-391.07638287 407.77809947 -391.14712816 388.85415545 -391.23834133 369.93013763 C-391.25035882 367.42520738 -391.26209556 364.92027592 -391.27381134 362.41534424 C-391.38081047 339.74049986 -391.52358469 317.06619414 -391.72625446 294.39199066 C-391.81213554 284.7528181 -391.88934928 275.11378209 -391.94204712 265.47436523 C-391.98785864 257.13810401 -392.05483139 248.80231649 -392.14710218 240.46643543 C-392.1942572 236.15710324 -392.23245604 231.848218 -392.24527931 227.53863525 C-392.30656931 209.30098479 -393.19424983 192.62727082 -398.56228256 175.02085876 C-399.735405 170.72072645 -400.37573548 166.34558704 -401 161.9375 C-401.12288076 161.07414787 -401.24576153 160.21079575 -401.37236595 159.32128143 C-401.8703538 155.74678686 -402.27694236 152.19031769 -402.58984375 148.59375 C-403.56844491 138.30194456 -407.0536186 129.93133796 -411.30419922 120.62988281 C-412.53410941 117.86020379 -413.56864622 115.0271607 -414.625 112.1875 C-416.86407196 106.73452203 -420.09313974 102.34973818 -423.57519531 97.64819336 C-428.80509012 90.51786625 -433.33018166 83.12370131 -432.79296875 73.9765625 C-430.97501268 65.68459022 -425.07678614 59.20135695 -418.25 54.5 C-396.82555823 41.40553264 -371.35999033 40.61617521 -347.54003906 46.12695312 C-325.47187271 51.56277435 -305.53695246 60.26688871 -289.25 76.5 C-288.41855469 77.30824219 -287.58710938 78.11648438 -286.73046875 78.94921875 C-257.766084 108.71446206 -256.49002513 156.17683562 -256.85512543 195.26773834 C-256.87538913 197.67115318 -256.88770566 200.07448721 -256.89752197 202.47796631 C-256.98914465 224.7717744 -257.47514847 247.02208228 -258.53416443 269.29260254 C-259.07880852 280.78664084 -259.47633379 292.27905413 -259.79296875 303.78125 C-259.81493568 304.57839291 -259.83690262 305.37553581 -259.85953522 306.19683456 C-260.07804959 314.17057245 -260.28756982 322.14453741 -260.49315548 330.11861801 C-260.57043021 333.09554298 -260.64982005 336.07240963 -260.72951698 339.04927063 C-260.78291754 341.07897148 -260.83296138 343.1087598 -260.88285828 345.1385498 C-261.07203802 352.24188199 -261.40894453 359.31607152 -261.88175297 366.40612793 C-262.33042627 373.34113963 -262.52772497 380.27703736 -262.69555664 387.22374344 C-262.75197502 389.55828707 -262.81212573 391.89271208 -262.87304688 394.22714233 C-262.98027908 398.35799381 -263.08443742 402.48891564 -263.1875 406.61987305 C-263.37134775 413.98886438 -263.55829838 421.35777119 -263.75 428.7265625 C-263.77041729 429.51575136 -263.79083458 430.30494022 -263.81187057 431.1180439 C-264.07384018 441.15246345 -264.42123228 451.17577472 -264.91812134 461.20173645 C-265.31293364 469.32424605 -265.45541624 477.44407 -265.58102417 485.57449341 C-265.97462804 510.0809095 -266.83249006 534.56897428 -267.6875 559.0625 C-268.75147107 589.5594518 -269.68873661 620.05610238 -270.4375 650.5625 C-270.4589143 651.43418446 -270.4803286 652.30586891 -270.50239182 653.20396805 C-270.75816791 663.63582563 -271.00773663 674.06781942 -271.25 684.5 C-270.26 684.83 -269.27 685.16 -268.25 685.5 C-265.82226537 680.17765869 -263.57367772 674.82139413 -261.4375 669.375 C-259.1297042 663.51113417 -256.57150469 657.81366661 -253.85620117 652.12866211 C-251.80437849 647.79415141 -249.98114975 643.40876954 -248.25 638.9375 C-246.36831062 634.08824269 -244.26724756 629.43462538 -241.875 624.8125 C-238.58024953 618.39678809 -235.92786384 611.82777762 -233.30786133 605.11254883 C-230.7980863 598.73356256 -228.00981266 592.54128679 -225.03491211 586.36743164 C-223.17393561 582.4975349 -221.45272157 578.62189465 -219.875 574.625 C-217.86167286 569.6873977 -215.46577201 565.0600532 -212.9375 560.375 C-208.07765736 551.33428404 -203.6679391 542.10316026 -199.3125 532.8125 C-198.96746429 532.07685822 -198.62242859 531.34121643 -198.26693726 530.58328247 C-193.41040094 520.21646991 -188.64922751 509.80866489 -183.92138672 499.38256836 C-181.14674221 493.31389561 -178.155449 487.42052584 -174.94848633 481.57104492 C-171.97745485 476.1115356 -169.58208403 470.47894101 -167.19580078 464.74609375 C-161.02616459 450.09440224 -154.54782458 435.62385547 -147.25 421.5 C-142.67795924 412.64096406 -138.40373692 403.74974661 -134.5949707 394.53393555 C-131.74095336 387.6283968 -128.76955192 380.77696912 -125.77929688 373.92962646 C-119.36066987 359.21639468 -113.18588009 344.41551538 -107.25 329.5 C-106.8262207 328.43894043 -106.40244141 327.37788086 -105.96582031 326.28466797 C-100.00142462 311.28657381 -94.67771185 296.1464609 -89.671875 280.80859375 C-88.20245899 276.31281125 -86.66834 271.84954902 -85.06388855 267.40090942 C-81.52304059 257.56560612 -78.54571337 247.61464791 -75.6875 237.5625 C-75.22766617 235.96145847 -74.76738025 234.36054672 -74.30664062 232.75976562 C-73.16766477 228.79579755 -72.04123051 224.82840028 -70.91958618 220.85949707 C-70.24848387 218.49465744 -69.5684121 216.13252513 -68.88745117 213.77050781 C-66.36235242 204.94497776 -64.23506262 196.18358371 -62.6875 187.125 C-62.2747844 184.7979378 -61.86071041 182.47111613 -61.4453125 180.14453125 C-61.14608887 178.4577124 -61.14608887 178.4577124 -60.84082031 176.73681641 C-59.85811513 171.3530539 -58.75087523 165.99386141 -57.59350586 160.64501953 C-54.82082282 147.32588851 -53.88125897 133.84741326 -53.24462891 120.28955078 C-53.12444483 117.73821447 -52.99455384 115.18750629 -52.86328125 112.63671875 C-50.21660677 71.54979242 -50.21660677 71.54979242 -66.3203125 35.17578125 C-69.67983455 31.73084763 -73.10633454 28.59272969 -76.9375 25.6875 C-82.03921976 21.37618752 -85.89312633 14.74208321 -86.45703125 8.0390625 C-85.47617701 1.46156939 -81.19084831 -3.32895 -76.25 -7.5 C-51.5924732 -23.64522796 -22.29196166 -16.36937406 0 0 Z M-563.77246094 278.02197266 C-574.66134121 288.91445137 -583.96371594 300.78261039 -592.390625 313.67578125 C-594.10653866 316.28209548 -595.87905764 318.83239641 -597.6875 321.375 C-600.49317649 325.36843427 -603.21095978 329.41126538 -605.875 333.5 C-606.58914063 334.593125 -607.30328125 335.68625 -608.0390625 336.8125 C-610.25008524 340.36785624 -612.07643422 344.08056823 -613.91992188 347.83642578 C-616.21749456 352.43747534 -618.71074173 356.93113188 -621.1875 361.4375 C-621.68701172 362.34951172 -622.18652344 363.26152344 -622.70117188 364.20117188 C-623.71090552 366.04475008 -624.72181231 367.88768624 -625.73388672 369.72998047 C-626.74647529 371.58003359 -627.75329989 373.43325294 -628.75439453 375.28955078 C-631.1736446 379.76961433 -633.64619966 384.16109445 -636.35546875 388.47265625 C-639.53383367 393.71618316 -641.55020444 399.16527751 -643.5625 404.9375 C-646.27873805 412.45801566 -649.15293099 419.76378431 -652.6875 426.9375 C-657.27602097 436.2662453 -661.0970189 445.8526654 -664.890625 455.52734375 C-671.44918963 472.22826012 -671.44918963 472.22826012 -674.25 477.1875 C-676.46217008 481.51603752 -677.66618342 486.10706275 -678.97705078 490.76367188 C-681.13112442 498.31481744 -683.6206988 505.74653971 -686.125 513.1875 C-689.20577323 522.35621273 -692.26054624 531.53065885 -695.1875 540.75 C-695.45739746 541.59908936 -695.72729492 542.44817871 -696.00537109 543.32299805 C-696.50934886 544.91765256 -697.00890251 546.51371395 -697.50341797 548.11132812 C-698.03362654 549.80771814 -698.58137671 551.49866953 -699.14111328 553.18554688 C-699.42583496 554.06791016 -699.71055664 554.95027344 -700.00390625 555.859375 C-700.26631104 556.65311523 -700.52871582 557.44685547 -700.79907227 558.26464844 C-701.29283088 560.71232245 -701.04172236 562.15727783 -700.25 564.5 C-692.79663981 564.11617427 -687.07996474 561.45780885 -680.4375 558.1875 C-679.33889648 557.65205566 -678.24029297 557.11661133 -677.10839844 556.56494141 C-659.86182865 547.99675737 -642.54282395 537.53820371 -629.19287109 523.47460938 C-627.4094622 521.66206713 -625.57851129 520.01491885 -623.640625 518.37109375 C-618.65342283 514.04141829 -613.97885991 509.42077672 -609.3125 504.75 C-608.4258667 503.86256104 -607.5392334 502.97512207 -606.62573242 502.06079102 C-600.74842381 496.12807197 -595.34464283 490.1176729 -590.25 483.5 C-588.79196754 481.79140987 -587.33362063 480.08308804 -585.875 478.375 C-576.6943643 467.13112039 -569.41397208 454.45069945 -562.48046875 441.73730469 C-561.13164869 439.28480726 -559.75424282 436.84957241 -558.375 434.4140625 C-551.09480216 421.46043609 -544.7962812 408.28497802 -539.25 394.5 C-538.88390625 393.59282227 -538.5178125 392.68564453 -538.140625 391.75097656 C-525.01076098 358.72413563 -519.03575739 326.40319282 -526.25 291.5 C-526.50007813 290.22125 -526.75015625 288.9425 -527.0078125 287.625 C-528.93650677 278.40273775 -531.28950676 267.3656266 -539.25 261.5 C-548.48703976 261.5 -557.45965149 271.82637172 -563.77246094 278.02197266 Z " fill="#FEFEFE" transform="translate(2739.25,1382.5)"/>
<path d="M0 0 C13.89529628 10.6523479 27.11147102 22.88488271 35.64941406 38.27905273 C36.13667969 38.97385742 36.62394531 39.66866211 37.12597656 40.38452148 C41.77498931 49.21764571 42.2301256 58.59682604 42.21191406 68.40405273 C42.21242767 69.06535187 42.21294128 69.726651 42.21347046 70.4079895 C42.16029617 86.7417223 39.0572173 102.36646523 35.64941406 118.27905273 C35.16767495 120.5860795 34.68713347 122.89335679 34.20800781 125.20092773 C33.56714509 128.2770688 32.92374674 131.35246685 32.26831055 134.42553711 C30.96385641 140.57396055 29.91824876 146.67733778 29.11035156 152.91186523 C27.97083372 161.23613967 26.54910552 169.59454871 24.64941406 177.77905273 C22.3337706 187.80053493 20.47599055 197.99397406 19.95800781 208.27514648 C19.59718669 211.78744326 18.88755003 215.16727365 18.1730957 218.62255859 C17.34161954 222.8404104 16.74308263 227.08475341 16.14941406 231.34155273 C16.03210937 232.1555957 15.91480469 232.96963867 15.79394531 233.80834961 C14.94669822 239.79829546 14.22837835 245.79985123 13.53163147 251.80897522 C12.71193843 258.83505633 11.83775588 265.85401519 10.95800781 272.87280273 C10.80671417 274.07992416 10.65542053 275.28704559 10.49954224 276.53074646 C10.02912991 280.28024028 9.55812683 284.02965942 9.08691406 287.77905273 C8.45988715 292.76854543 7.83370012 297.75814252 7.20800781 302.74780273 C6.99548622 304.43552795 6.99548622 304.43552795 6.77867126 306.15734863 C5.20625601 318.12702988 5.20625601 318.12702988 4.36816406 330.16186523 C4.31208984 331.69520508 4.31208984 331.69520508 4.25488281 333.25952148 C4.18430857 335.36367939 4.11399801 337.46784615 4.04394531 339.57202148 C3.894549 343.64693462 3.74672542 347.62578427 3.14550781 351.66186523 C2.1913071 358.61926569 2.28480644 365.68667033 2.13183594 372.70092773 C2.09767578 373.89717773 2.06351563 375.09342773 2.02832031 376.32592773 C2.00326416 377.39681641 1.97820801 378.46770508 1.95239258 379.57104492 C1.69972166 382.66336228 1.24781684 385.50302495 0.64941406 388.53735352 C-0.40379481 394.09139459 -0.67795477 399.45702068 -0.72949219 405.09936523 C-0.74648666 406.08347382 -0.76348114 407.0675824 -0.7809906 408.08151245 C-0.83353203 411.18896269 -0.87413753 414.29640495 -0.91308594 417.40405273 C-0.95730582 420.51877595 -1.00421622 423.63340772 -1.05589294 426.74801636 C-1.0873518 428.67464191 -1.11438619 430.60134693 -1.13612366 432.52810669 C-1.21180601 437.4919534 -1.51366044 442.34117581 -2.11653137 447.26867676 C-2.42998394 449.96102975 -2.56283472 452.64540629 -2.66699219 455.35327148 C-2.73031738 456.96347168 -2.73031738 456.96347168 -2.79492188 458.60620117 C-2.95467136 463.1491596 -3.1136965 467.6920317 -3.25537109 472.2355957 C-3.31286426 474.07331323 -3.37395178 475.91093015 -3.44189453 477.74829102 C-3.51127842 479.6746884 -3.55730212 481.60189226 -3.60058594 483.52905273 C-3.63925781 485.02178711 -3.63925781 485.02178711 -3.67871094 486.54467773 C-3.26168054 490.01993102 -2.20417649 492.31828393 -0.35058594 495.27905273 C1.53672082 496.7637278 1.53672082 496.7637278 3.83691406 497.65405273 C5.16529297 498.26120117 5.16529297 498.26120117 6.52050781 498.88061523 C7.55304687 499.34209961 8.58558594 499.80358398 9.64941406 500.27905273 C40.75291774 514.93480156 65.373035 535.12389995 77.59960938 568.28515625 C81.69592659 579.78856914 83.82528544 591.07356218 83.96191406 603.27905273 C83.99091797 604.14272461 84.01992187 605.00639648 84.04980469 605.89624023 C84.12104127 613.10757387 82.42006152 617.27092121 77.46191406 622.65405273 C73.51234186 624.93602779 70.20862804 625.71395391 65.64941406 625.27905273 C62.1071853 623.96670425 58.9225528 622.15166576 55.64941406 620.27905273 C42.22873432 613.22795342 26.79609558 610.08424795 11.77441406 610.21655273 C10.31261719 610.22332031 10.31261719 610.22332031 8.82128906 610.23022461 C6.43059637 610.24194369 4.04004909 610.25923205 1.64941406 610.27905273 C0.09900839 617.57317222 -0.62368134 624.43950466 -0.50170898 631.88769531 C-0.49385376 632.88428162 -0.48599854 633.88086792 -0.47790527 634.90765381 C-0.4496001 638.16315646 -0.40627555 641.41825837 -0.36230469 644.67358398 C-0.33863527 646.95276602 -0.31576519 649.23195648 -0.2936554 651.51115417 C-0.24531545 656.26941623 -0.18999348 661.02752621 -0.12915039 665.78564453 C-0.05141319 671.87954722 0.01288926 677.9734971 0.0725069 684.0676012 C0.11924864 688.76623579 0.17099932 693.46480398 0.22447777 698.16336632 C0.24985028 700.41080236 0.27415259 702.65825075 0.29735756 704.90571022 C0.33091383 708.04301439 0.37071089 711.18017687 0.41235352 714.31738281 C0.42569984 715.70379219 0.42569984 715.70379219 0.4393158 717.11820984 C0.50571886 721.61700399 0.79131599 725.84692295 1.64941406 730.27905273 C1.86201846 732.83047792 2.04430964 735.3684723 2.18457031 737.92358398 C2.22630875 738.65970413 2.26804718 739.39582428 2.31105042 740.1542511 C2.74105186 748.22131528 2.88910753 756.29184931 3.03701782 764.36804199 C3.5724954 792.25479718 5.30724438 819.69514146 9.64941406 847.27905273 C9.86297765 848.65535142 10.07651879 850.03165358 10.29003906 851.40795898 C16.09868886 888.56890284 23.38641458 924.94309734 41.64941406 958.27905273 C42.13667969 959.19170898 42.62394531 960.10436523 43.12597656 961.04467773 C45.8607212 965.90305089 49.09409852 970.11281669 52.71191406 974.34155273 C57.41270558 979.86480552 61.79809515 985.10759006 63.27441406 992.34155273 C61.88587253 998.86769793 58.05010649 1003.50488463 52.64941406 1007.27905273 C33.39647136 1014.94590064 4.27828289 1011.08472334 -14.35058594 1003.27905273 C-14.96595215 1003.0313916 -15.58131836 1002.78373047 -16.21533203 1002.52856445 C-33.72528999 995.46284609 -49.40830135 985.11505007 -62.35058594 971.27905273 C-63.14335938 970.49272461 -63.93613281 969.70639648 -64.75292969 968.89624023 C-79.21056376 954.32990215 -90.02355994 936.38750018 -97.35058594 917.27905273 C-97.64126953 916.53977539 -97.93195312 915.80049805 -98.23144531 915.03881836 C-114.19340151 874.30009434 -120.61060197 829.89130942 -123.14453125 786.41577148 C-123.33553862 783.50811429 -123.58676652 780.61608469 -123.87402344 777.71655273 C-125.5017965 761.01354803 -125.7536504 744.31279843 -126.0090332 727.54199219 C-126.04055558 725.51553897 -126.07237443 723.48909035 -126.10449219 721.46264648 C-126.12032852 720.45472046 -126.13616486 719.44679443 -126.15248108 718.4083252 C-126.27724697 711.36058444 -126.54859551 704.32769878 -126.87792969 697.28686523 C-127.43722096 685.09188792 -127.4321671 672.92167721 -127.35058594 660.71655273 C-127.26596325 647.85692716 -127.20943213 635.09792896 -128.35058594 622.27905273 C-132.13771953 621.31719351 -134.93331293 621.33519068 -138.76074219 622.06420898 C-140.34749756 622.36089478 -140.34749756 622.36089478 -141.96630859 622.66357422 C-143.10374512 622.88730713 -144.24118164 623.11104004 -145.41308594 623.34155273 C-146.60466309 623.56979736 -147.79624023 623.79804199 -149.02392578 624.03320312 C-175.82971685 629.22623283 -202.44237407 635.23022829 -228.78808594 642.40405273 C-230.59200806 642.89107666 -230.59200806 642.89107666 -232.43237305 643.38793945 C-235.75400106 644.30645438 -239.05431422 645.27362025 -242.35058594 646.27905273 C-243.30465332 646.55974609 -244.2587207 646.84043945 -245.24169922 647.12963867 C-250.68802364 648.96620162 -253.64092724 650.85575901 -256.34765625 655.99047852 C-258.1791243 660.16968531 -259.7529181 664.3988289 -261.22558594 668.71655273 C-263.89625892 676.30685306 -266.69104893 683.79868923 -269.82861328 691.20849609 C-273.70692879 700.39200893 -277.15649522 709.7469759 -280.65527344 719.07983398 C-281.5449546 721.44959313 -282.43478374 723.81929662 -283.32470703 726.18896484 C-283.92308611 727.78480454 -284.52010193 729.38115609 -285.11572266 730.97802734 C-288.72263335 740.64244379 -292.52693107 750.16212964 -296.72070312 759.58691406 C-299.12302743 764.99354431 -301.32720661 770.4794943 -303.53808594 775.96655273 C-304.48546841 778.30140497 -305.43340525 780.63603234 -306.38183594 782.97045898 C-307.10886719 784.7612085 -307.10886719 784.7612085 -307.85058594 786.58813477 C-320.87278865 818.63072275 -320.87278865 818.63072275 -326.69506836 830.65649414 C-328.77244207 834.9662939 -330.61970002 839.3194555 -332.35058594 843.77905273 C-338.75040791 860.12454399 -346.79474887 875.92241057 -355.16308594 891.34155273 C-358.51859551 897.52912898 -361.54267216 903.84802632 -364.53808594 910.21655273 C-370.34167159 922.49964365 -376.74388972 934.4120395 -383.35058594 946.27905273 C-383.91100586 947.28597168 -384.47142578 948.29289062 -385.04882812 949.33032227 C-394.92867861 967.0329033 -405.2188803 984.33734689 -416.35058594 1001.27905273 C-416.88844727 1002.10211914 -417.42630859 1002.92518555 -417.98046875 1003.77319336 C-428.56373757 1019.95073772 -439.50081681 1035.85665202 -452.05371094 1050.58374023 C-454.38688061 1053.32164343 -456.6527202 1056.10587584 -458.91308594 1058.90405273 C-470.71767582 1073.31591725 -483.6386853 1086.82034702 -498.35058594 1098.27905273 C-499.38143848 1099.13186108 -500.40998088 1099.98746748 -501.43652344 1100.84545898 C-521.11307501 1117.10482705 -545.94350976 1131.14860563 -571.78808594 1133.46655273 C-572.61937012 1133.54550781 -573.4506543 1133.62446289 -574.30712891 1133.70581055 C-606.29442795 1136.59160085 -634.89874032 1127.02106857 -659.53808594 1106.46655273 C-660.40469849 1105.74568481 -660.40469849 1105.74568481 -661.28881836 1105.01025391 C-662.68458553 1103.81366969 -664.02345035 1102.55133058 -665.35058594 1101.27905273 C-665.35058594 1100.61905273 -665.35058594 1099.95905273 -665.35058594 1099.27905273 C-665.93453125 1099.02768555 -666.51847656 1098.77631836 -667.12011719 1098.51733398 C-679.46151362 1091.66580567 -687.65036368 1073.71449696 -693.35058594 1061.27905273 C-693.7128125 1060.54041992 -694.07503906 1059.80178711 -694.44824219 1059.04077148 C-696.97629762 1053.36146557 -697.11843042 1047.39592623 -696.35058594 1041.27905273 C-693.87562637 1036.04356133 -689.56600131 1031.88676042 -684.35058594 1029.27905273 C-682.72789603 1029.18293521 -681.10111288 1029.14922921 -679.47558594 1029.15405273 C-678.61191406 1029.15147461 -677.74824219 1029.14889648 -676.85839844 1029.14624023 C-674.35058594 1029.27905273 -674.35058594 1029.27905273 -672.46362305 1029.76538086 C-654.40159624 1034.15619593 -632.41321323 1032.18581749 -615.35058594 1025.27905273 C-614.29226563 1024.87299805 -613.23394531 1024.46694336 -612.14355469 1024.04858398 C-605.23391587 1021.30779015 -598.76864372 1018.01765043 -592.35058594 1014.27905273 C-591.68220703 1013.89475098 -591.01382813 1013.51044922 -590.32519531 1013.11450195 C-580.9680876 1007.70582895 -572.33715013 1002.04772063 -564.26074219 994.85327148 C-560.78563205 991.779315 -557.15422747 988.94996885 -553.47167969 986.13061523 C-551.09493702 984.05588959 -549.2911344 981.7595446 -547.35058594 979.27905273 C-546.20589844 978.38186523 -546.20589844 978.38186523 -545.03808594 977.46655273 C-542.07194428 975.05225138 -539.75435858 972.42146397 -537.28027344 969.51733398 C-535.31512326 967.2379189 -533.27521014 965.04508645 -531.22558594 962.84155273 C-524.78651613 955.70163179 -519.10555863 947.9706082 -513.35058594 940.27905273 C-512.64264893 939.34101807 -512.64264893 939.34101807 -511.92041016 938.3840332 C-503.58747767 927.33651659 -495.90502478 915.86942466 -488.35058594 904.27905273 C-487.86106445 903.52881836 -487.37154297 902.77858398 -486.8671875 902.00561523 C-481.44482034 893.64820531 -476.66342893 885.2095223 -472.31494141 876.23364258 C-467.60665724 866.69072536 -462.56659856 857.29404403 -457.22558594 848.09155273 C-450.05961886 835.6476578 -444.16308602 822.74485339 -438.43310547 809.58642578 C-435.3953744 802.61660896 -432.2682317 795.70237563 -428.98730469 788.84375 C-427.42972803 785.58688133 -425.91720269 782.31833324 -424.46386719 779.01342773 C-422.96096045 775.60553508 -421.38396887 772.242544 -419.76464844 768.88842773 C-413.89392666 756.61992383 -409.17811938 744.61743717 -405.95385742 731.39355469 C-405.25465025 728.94279253 -404.32897576 726.63063027 -403.35058594 724.27905273 C-404.07536133 724.51092285 -404.80013672 724.74279297 -405.546875 724.98168945 C-408.89547476 726.04763729 -412.24794537 727.1008863 -415.60058594 728.15405273 C-416.74011719 728.51885742 -417.87964844 728.88366211 -419.05371094 729.25952148 C-430.7477562 732.91391063 -446.29567514 737.69386141 -458.35058594 733.09155273 C-464.11511919 729.60881389 -467.49509736 725.82783595 -469.35058594 719.27905273 C-468.88920006 708.14561092 -461.12047186 700.67277601 -453.53808594 693.40405273 C-438.95110403 679.08903151 -429.12556835 663.59081965 -420.35058594 645.27905273 C-419.98288086 644.51222168 -419.61517578 643.74539063 -419.23632812 642.95532227 C-417.01285115 638.30614773 -414.80410785 633.65018293 -412.61938477 628.98266602 C-411.66160618 626.94178858 -410.69665603 624.90427458 -409.72827148 622.8684082 C-405.62083426 614.2026005 -401.81222713 605.45104635 -398.28808594 596.52905273 C-398.0180072 595.84982758 -397.74792847 595.17060242 -397.46966553 594.47079468 C-391.71154218 579.91858695 -386.90306925 565.07367094 -382.28393555 550.12573242 C-379.45058196 541.05493282 -376.37314182 532.57381509 -371.86254883 524.19506836 C-368.01979305 516.78381775 -366.2115248 508.80642534 -364.41308594 500.71655273 C-363.10133202 494.82364153 -361.36995747 489.72659874 -358.68652344 484.29467773 C-357.00369668 480.49601616 -355.80797311 476.62505148 -354.60058594 472.65405273 C-352.2346007 464.90314147 -349.61627055 457.27147265 -346.85058594 449.65405273 C-346.46177246 448.58155273 -346.07295898 447.50905273 -345.67236328 446.40405273 C-344.27675701 442.56157372 -342.87707745 438.72059472 -341.47460938 434.88061523 C-330.82871618 406.19624753 -330.82871618 406.19624753 -325.35058594 376.27905273 C-353.17362033 375.2162356 -385.14650463 389.6903483 -410.375 400.43823242 C-412.27495957 401.24686573 -414.18218472 402.03498716 -416.09277344 402.81811523 C-434.80047112 410.60951716 -451.95712471 420.38592131 -468.53515625 432.00708008 C-470.12356145 433.11998905 -471.7171222 434.22553233 -473.31152344 435.32983398 C-475.66847639 436.96519673 -478.01280181 438.61644092 -480.35058594 440.27905273 C-481.04410156 440.76631836 -481.73761719 441.25358398 -482.45214844 441.75561523 C-486.77218839 444.87471744 -490.43460612 448.30488647 -494.13574219 452.13061523 C-497.49083741 455.38511677 -501.15458885 458.22732358 -504.83496094 461.10327148 C-507.45160082 463.23107963 -507.45160082 463.23107963 -509.55371094 466.04858398 C-510.14667969 466.78463867 -510.73964844 467.52069336 -511.35058594 468.27905273 C-512.01058594 468.27905273 -512.67058594 468.27905273 -513.35058594 468.27905273 C-513.68058594 469.26905273 -514.01058594 470.25905273 -514.35058594 471.27905273 C-516.20605469 472.82202148 -516.20605469 472.82202148 -518.53808594 474.46655273 C-531.96787402 484.68255635 -535.31714609 500.68582067 -539.35058594 516.27905273 C-539.54112549 516.98650635 -539.73166504 517.69395996 -539.92797852 518.42285156 C-542.42914147 527.91790397 -541.42468257 535.77810847 -539.09667969 545.21264648 C-536.98829924 553.87797974 -536.74436087 561.13267644 -541.42089844 569.10327148 C-544.32106362 572.91574028 -547.74184322 575.94296771 -552.35058594 577.27905273 C-570.19245686 579.18374048 -586.61625684 572.52939806 -600.59033203 561.51342773 C-612.64403525 551.22414241 -612.64403525 551.22414241 -615.35058594 545.27905273 C-616.01058594 545.27905273 -616.67058594 545.27905273 -617.35058594 545.27905273 C-619.02180844 543.16597824 -620.5727983 541.05512471 -622.10058594 538.84155273 C-622.54869629 538.20137207 -622.99680664 537.56119141 -623.45849609 536.90161133 C-624.7629628 535.03223662 -626.05752543 533.15632733 -627.35058594 531.27905273 C-627.96160156 530.4037793 -628.57261719 529.52850586 -629.20214844 528.62670898 C-634.62229418 520.71885533 -637.9978835 512.96025042 -640.53808594 503.71655273 C-640.79783203 502.80969727 -641.05757812 501.9028418 -641.32519531 500.96850586 C-645.7236706 485.29538591 -646.73830792 466.81519931 -641.35058594 451.27905273 C-641.07214844 450.30323242 -640.79371094 449.32741211 -640.50683594 448.32202148 C-638.19759899 440.56816123 -634.59969189 434.12437077 -630.35058594 427.27905273 C-629.22959222 425.40753328 -628.11700105 423.53115581 -627.00415039 421.65478516 C-625.48478999 419.10193813 -623.94579336 416.56125374 -622.40429688 414.02172852 C-621.46344581 412.4657056 -620.53505747 410.90216274 -619.60839844 409.33764648 C-606.55246128 387.87968279 -586.68237084 371.16537298 -565.28417969 358.45288086 C-563.12668712 357.14313032 -561.00443829 355.78523051 -558.88183594 354.41967773 C-538.73252065 341.53565388 -517.39839608 330.54109924 -495.35058594 321.27905273 C-493.89586526 320.65734342 -492.44144512 320.03493049 -490.98730469 319.41186523 C-487.03391074 317.72511226 -483.06887572 316.06780463 -479.09863281 314.42114258 C-477.15311549 313.61258447 -475.20926553 312.80000897 -473.26660156 311.98461914 C-458.36991907 305.73769489 -443.43255945 300.0207322 -428.03466797 295.1315918 C-425.59314841 294.35609732 -423.15680488 293.56653444 -420.72167969 292.77124023 C-415.94662909 291.22280231 -411.15303992 289.74009494 -406.35058594 288.27905273 C-405.21202148 287.93197266 -404.07345703 287.58489258 -402.90039062 287.22729492 C-386.83796451 282.36329157 -370.82916583 277.98650133 -354.32470703 274.84838867 C-350.06049141 274.03208997 -345.80589629 273.16947956 -341.55004883 272.31079102 C-338.36487654 271.66951316 -335.1782895 271.03578038 -331.99121094 270.40405273 C-328.70673013 269.75193874 -325.42477068 269.09128287 -322.14746094 268.40405273 C-316.13216046 267.15412017 -310.14246945 266.09088045 -304.05712891 265.26074219 C-296.56108576 264.2250207 -289.21581368 262.97508294 -281.91308594 260.96655273 C-280.87595459 260.70189209 -280.87595459 260.70189209 -279.81787109 260.43188477 C-274.05385443 258.73321286 -271.14775217 255.55492824 -268.36547852 250.48339844 C-267.33712209 248.37698213 -266.39919599 246.24596473 -265.47558594 244.09155273 C-265.10900879 243.25857666 -264.74243164 242.42560059 -264.36474609 241.56738281 C-263.01199862 238.47744278 -261.67962445 235.37926707 -260.35058594 232.27905273 C-260.06836182 231.62078491 -259.7861377 230.96251709 -259.49536133 230.28430176 C-258.55599393 228.09265488 -257.61724977 225.90074206 -256.67871094 223.70874023 C-256.3546225 222.95197495 -256.03053406 222.19520966 -255.69662476 221.41551208 C-254.07323768 217.62278498 -252.45392668 213.8284219 -250.84326172 210.03027344 C-247.33984187 201.78770029 -243.70313793 193.62798494 -239.88183594 185.52783203 C-235.97889488 177.24715017 -232.10431802 168.95818734 -229.35058594 160.21655273 C-227.25594505 153.63085978 -224.31872708 147.50873388 -221.32128906 141.30151367 C-219.97889872 138.50464204 -218.67143525 135.69187053 -217.36108398 132.87988281 C-215.70695387 129.33862963 -214.03239874 125.80723102 -212.35058594 122.27905273 C-212.04620605 121.64016113 -211.74182617 121.00126953 -211.42822266 120.34301758 C-208.51890736 114.27492631 -205.54264331 108.4322204 -201.78808594 102.84155273 C-198.80240894 98.29727343 -196.86928961 93.73320098 -194.95825195 88.65673828 C-178.71672926 46.7902758 -150.31400094 -2.88026877 -108.62011719 -23.04125977 C-73.10380041 -38.28673755 -29.19220873 -21.38111246 0 0 Z M-96.35058594 121.27905273 C-96.35058594 121.93905273 -96.35058594 122.59905273 -96.35058594 123.27905273 C-97.34058594 123.60905273 -98.33058594 123.93905273 -99.35058594 124.27905273 C-101.08429684 126.63866891 -101.08429684 126.63866891 -102.78808594 129.65405273 C-103.49998248 130.85294779 -104.21363087 132.05080376 -104.92871094 133.24780273 C-105.50975586 134.22426758 -105.50975586 134.22426758 -106.10253906 135.22045898 C-107.39734435 137.35617851 -108.7332573 139.46016626 -110.08496094 141.56030273 C-116.93622199 152.20517073 -123.29233332 163.06240099 -129.45605469 174.11889648 C-131.55698557 177.88661508 -133.72916122 181.59577402 -135.97558594 185.27905273 C-140.97481067 193.75654107 -144.93646084 202.81968136 -149.13037109 211.71264648 C-150.57825968 214.75790555 -152.07630973 217.77136564 -153.60058594 220.77905273 C-154.51934605 222.61133785 -155.43599259 224.44468421 -156.35058594 226.27905273 C-156.8778125 227.33608398 -157.40503906 228.39311523 -157.94824219 229.48217773 C-163.56711221 241.10389523 -167.93086127 253.16105811 -172.35058594 265.27905273 C-172.80997021 266.53689752 -173.26944545 267.79470908 -173.72900391 269.05249023 C-173.9635025 269.69436783 -174.1980011 270.33624542 -174.43960571 270.99757385 C-174.92099837 272.31481435 -175.40258746 273.63198307 -175.8843689 274.94908142 C-177.04981536 278.13525811 -178.21245392 281.32234397 -179.36914062 284.51171875 C-181.58942185 290.6058676 -183.89015871 296.65213684 -186.33886719 302.65795898 C-189.24591658 309.82532435 -191.7306874 317.10037104 -194.13064575 324.4508667 C-195.41003485 328.36609778 -196.70787949 332.27523004 -198.00292969 336.18530273 C-198.27374863 337.00416962 -198.54456757 337.8230365 -198.82359314 338.66671753 C-201.97251382 348.17862805 -205.18117848 357.67005007 -208.41308594 367.15405273 C-208.70749573 368.01825836 -209.00190552 368.88246399 -209.30523682 369.77285767 C-213.56221473 382.24835861 -217.99667983 394.64490856 -222.5847168 407.00219727 C-226.05591014 416.37964834 -229.26042382 425.82606334 -232.37792969 435.32592773 C-234.51984183 441.8376891 -236.77907979 448.30717948 -239.03808594 454.77905273 C-242.32577707 464.2298743 -245.45492476 473.70017358 -248.35058594 483.27905273 C-249.34710568 486.57286852 -250.34553421 489.86606555 -251.34838867 493.15795898 C-252.03956157 495.42752924 -252.72680625 497.6983009 -253.40942383 499.97045898 C-255.41578761 506.56100528 -257.7159078 512.91722454 -260.35058594 519.27905273 C-262.00465555 523.39302943 -263.62120786 527.52047993 -265.22558594 531.65405273 C-265.65355469 532.72010742 -266.08152344 533.78616211 -266.52246094 534.88452148 C-266.91691406 535.90932617 -267.31136719 536.93413086 -267.71777344 537.98999023 C-268.07983887 538.91086426 -268.4419043 539.83173828 -268.81494141 540.78051758 C-269.59096079 543.28865894 -269.59096079 543.28865894 -268.45263672 545.60961914 C-267.90712158 546.43598877 -267.90712158 546.43598877 -267.35058594 547.27905273 C-251.95238986 544.72146276 -236.69793394 541.78603754 -221.47558594 538.34155273 C-209.99706743 535.74716222 -198.51353004 533.22171517 -186.97558594 530.90405273 C-185.21432373 530.54645874 -185.21432373 530.54645874 -183.41748047 530.18164062 C-173.4596226 528.20335763 -163.45516087 526.77750039 -153.38183594 525.53295898 C-152.46144531 525.41758789 -151.54105469 525.3022168 -150.59277344 525.18334961 C-148.73434008 524.95170727 -146.87490458 524.72799203 -145.01464844 524.51147461 C-139.01587034 523.74250943 -134.10907791 522.68161026 -129.41308594 518.59155273 C-127.53428413 514.50239586 -128.90631302 510.23963927 -129.86425781 506.01220703 C-130.80281501 500.73753442 -130.58779933 495.37284421 -130.60058594 490.02905273 C-130.60225769 489.3576828 -130.60392944 488.68631287 -130.60565186 487.99459839 C-130.60736622 476.22737566 -129.91379761 464.56736451 -128.97558594 452.84155273 C-127.75485024 437.57745909 -126.84445609 422.32986903 -126.22558594 407.02905273 C-126.18368134 406.01411743 -126.14177673 404.99918213 -126.09860229 403.95349121 C-125.68129108 393.74152056 -125.32166391 383.53404531 -125.18261719 373.31420898 C-124.77202226 344.74261229 -121.01893068 317.25363135 -115.45043945 289.25683594 C-112.12018922 271.83196708 -111.11157982 254.12750404 -109.97558594 236.44702148 C-108.83512494 220.17022757 -105.43496082 204.33695232 -102.18164062 188.37768555 C-101.11229493 183.12368015 -100.09785552 177.85967208 -99.10058594 172.59155273 C-98.94477051 171.77509277 -98.78895508 170.95863281 -98.62841797 170.11743164 C-97.51809841 164.2668553 -96.497985 158.40275894 -95.50073242 152.53198242 C-94.58074829 147.25229224 -93.39004099 142.05719369 -92.16308594 136.84155273 C-90.68372144 130.51233379 -89.92886314 124.81575604 -90.35058594 118.27905273 C-93.14966727 118.27905273 -94.27780967 119.48264663 -96.35058594 121.27905273 Z " fill="#FEFEFE" transform="translate(1077.3505859375,1276.720947265625)"/>
<path d="M0 0 C18.17361449 9.66956066 33.76622457 24.94486772 45 42 C45.36657715 42.54736816 45.7331543 43.09473633 46.11083984 43.65869141 C54.35288366 55.97920218 54.35288366 55.97920218 57.109375 62.8203125 C57.74767903 64.38247762 58.45427492 65.91739935 59.203125 67.4296875 C72.93998805 95.31717453 69.79599102 128.22919946 60.15234375 156.80078125 C56.51139746 167.35347167 52.76960652 177.87029124 49.00436401 188.37911987 C46.8782387 194.32193705 44.80918046 200.28373514 42.75 206.25 C38.96682024 217.18738644 34.97568979 228.04326427 30.921875 238.8828125 C26.04211855 252.07469645 21.66177634 265.45637736 17.77148438 278.97167969 C16.46863271 283.47612912 15.05849847 287.92974739 13.5625 292.375 C12.70813538 294.91660041 11.85383098 297.45822033 11 300 C10.75604492 300.72413086 10.51208984 301.44826172 10.26074219 302.19433594 C7.08285122 311.69570498 4.29411171 321.09867199 2.55639648 330.97949219 C1.67187621 335.7190244 0.30096628 340.08234966 -1.3671875 344.609375 C-4.11646886 352.09903966 -6.14190748 359.70603208 -8.0625 367.4375 C-8.55441553 369.39077293 -9.04828205 371.34354502 -9.54238892 373.29626465 C-9.87119484 374.59731551 -10.19880936 375.89866804 -10.52523804 377.20031738 C-11.63563629 381.6159022 -12.81311913 386.00999614 -14.01171875 390.40234375 C-16.20308958 398.58840111 -18.01806513 406.83200781 -19.75 415.125 C-19.91819244 415.92802551 -20.08638489 416.73105103 -20.25967407 417.55841064 C-45.38144436 517.64814452 -45.38144436 517.64814452 -27 614.3125 C-23.7271195 618.75365281 -20.27224166 621.24258611 -15 623 C-3.96243438 624.25462976 3.86365655 621.71885726 12.62109375 614.984375 C22.76064584 606.1893813 31.1894266 595.86433143 39 585 C39.58265625 584.19046875 40.1653125 583.3809375 40.765625 582.546875 C53.75813946 564.21164431 65.86530019 545.29050192 76.5390625 525.515625 C78.49864293 521.88987725 80.55682194 518.34113425 82.6875 514.8125 C85.81344926 509.52815721 88.38838444 504.05692907 90.94995117 498.48535156 C93.1400564 493.74583107 95.48891596 489.13900446 98 484.5625 C104.51523081 472.6011307 109.66760521 460.01794278 114.64453125 447.35546875 C115.80704568 444.47765926 117.04957063 441.67997842 118.375 438.875 C121.04356189 433.10150762 123.2582728 427.18088124 125.4934082 421.23022461 C127.66425934 415.46699548 129.88659909 409.7272116 132.16015625 404.00390625 C132.43691696 403.30711258 132.71367767 402.61031891 132.99882507 401.89241028 C133.56680572 400.46268422 134.13479386 399.03296114 134.70278931 397.60324097 C139.45666096 385.62752092 144.01117445 373.62662824 148.16992188 361.42919922 C149.77403407 356.73481206 151.40692646 352.05147555 153.0625 347.375 C153.36712158 346.48594971 153.67174316 345.59689941 153.9855957 344.6809082 C156.8327842 336.68968388 160.48284021 328.35922054 167.25 322.9375 C167.91515625 322.38964844 168.5803125 321.84179688 169.265625 321.27734375 C173.73565987 317.98522347 178.64878921 318.37726099 184 319 C191.75351856 321.82666605 195.80850362 328.34750603 199.875 335.125 C204.45288701 347.4797794 199.26208252 361.94190087 196 374 C195.68933594 375.16917969 195.37867187 376.33835937 195.05859375 377.54296875 C194.08864562 381.04435102 193.0520921 384.52273308 192 388 C191.73348633 388.89219238 191.46697266 389.78438477 191.19238281 390.70361328 C183.75306259 415.56702785 175.1781664 439.89437891 165.7109375 464.046875 C163.71779285 469.13431936 161.79688702 474.2375029 159.9375 479.375 C156.25904875 489.27101046 151.87057483 498.87539571 147.55615234 508.50683594 C146.43122943 511.03200021 145.31737349 513.5604654 144.21337891 516.09472656 C139.57480358 526.70469058 134.59989986 537.11271365 129.40087891 547.45898438 C128.12713616 549.99574566 126.86202082 552.53667884 125.59765625 555.078125 C118.47902536 569.32775984 110.89983967 583.31171294 102.75 597 C102.3684375 597.64582031 101.986875 598.29164063 101.59375 598.95703125 C100.81298305 600.27652739 100.03002461 601.59472926 99.24487305 602.91162109 C98.36263916 604.39164241 97.48428239 605.873978 96.60864258 607.35791016 C92.97390851 613.48316569 89.14680326 619.45494066 85.1875 625.375 C84.57221436 626.29547119 83.95692871 627.21594238 83.32299805 628.16430664 C78.75708526 634.95480733 74.03159208 641.5448792 69 648 C68.1422434 649.13597508 67.28552514 650.27273473 66.4296875 651.41015625 C60.19927516 659.61060189 53.4179279 666.869012 46 674 C45.15050781 674.84949219 44.30101563 675.69898437 43.42578125 676.57421875 C23.83894013 696.16105987 -1.41354391 709.22471674 -29.4375 710.4375 C-53.42154558 709.63560182 -76.20717423 698.45449368 -94 683 C-95.8951236 681.51992413 -97.79096073 680.04076143 -99.6875 678.5625 C-104.97084793 674.22207253 -108.9711688 669.49669993 -113 664 C-114.15242188 662.5459375 -114.15242188 662.5459375 -115.328125 661.0625 C-132.55839732 638.85063982 -140.45515334 611.54032584 -144.25268555 584.109375 C-144.55939281 581.897409 -144.87565588 579.68697291 -145.19335938 577.4765625 C-145.7277985 573.72497935 -146.22579323 569.96956721 -146.70870972 566.21102905 C-146.9824311 564.13335614 -147.28317972 562.06110989 -147.58618164 559.98754883 C-149.732716 544.13864212 -149.33882737 528.06932152 -149.31567383 512.10913086 C-149.31107816 508.68809738 -149.31783921 505.26742245 -149.33618164 501.84643555 C-149.45307581 479.85650892 -148.65473726 458.22115278 -146.35169983 436.34590149 C-145.95992624 432.61875772 -145.60473944 428.88916384 -145.26039124 425.15739441 C-144.87721652 421.10107243 -144.43494149 417.05103276 -144 413 C-143.87544434 411.81583496 -143.75088867 410.63166992 -143.62255859 409.41162109 C-140.05807746 375.66237351 -135.41822475 342.36802508 -127.48260498 309.35191345 C-125.82766154 302.40315514 -124.42831645 295.40996273 -123.04022217 288.40396118 C-119.52494423 270.69761525 -115.17185637 253.23658393 -110.69996643 235.75083923 C-109.32129557 230.33575875 -108.04873746 224.90374185 -106.82617188 219.45117188 C-102.79559125 201.61554447 -97.03905611 184.2419019 -91.52319336 166.82250977 C-90.3095945 162.9883957 -89.11273291 159.14935714 -87.92214966 155.30804443 C-86.08571432 149.38853329 -84.18438348 143.51191639 -82.0625 137.6875 C-77.76921048 125.70795006 -73.93433284 113.60035317 -70.625 101.3125 C-67.85567255 91.04555614 -64.42544176 81.00102285 -60.99560547 70.93920898 C-60.66705566 69.96927002 -60.33850586 68.99933105 -60 68 C-59.65196823 67.00033958 -59.65196823 67.00033958 -59.29690552 65.98048401 C-57.45770115 60.61709218 -55.99348842 55.23964252 -54.6953125 49.72265625 C-54.27262461 47.97449102 -53.84943197 46.22644777 -53.42578125 44.47851562 C-52.77339227 41.77019459 -52.12468669 39.06117233 -51.48486328 36.34985352 C-45.20245704 9.81210301 -45.20245704 9.81210301 -35 1 C-22.84305869 -6.43849377 -12.76938024 -5.79636103 0 0 Z " fill="#FEFEFE" transform="translate(2856,1568)"/>
<path d="M0 0 C14.50907368 10.56051961 25.45155126 22.5472481 34.73046875 37.83984375 C35.47876953 39.00386719 35.47876953 39.00386719 36.2421875 40.19140625 C38.08688244 43.47409173 39.42969768 46.87949222 40.73046875 50.40234375 C40.9924707 51.11052246 41.25447266 51.81870117 41.52441406 52.54833984 C47.16034096 68.091005 51.87142217 85.90512842 45.73046875 101.83984375 C43.98046875 105.02734375 43.98046875 105.02734375 41.73046875 107.83984375 C41.2715625 108.41476562 40.81265625 108.9896875 40.33984375 109.58203125 C33.63134114 117.16980362 24.56534913 119.4914693 14.98046875 121.65234375 C-3.44487182 125.90536301 -20.09953609 137.52638459 -33.26953125 150.83984375 C-33.59953125 151.49984375 -33.92953125 152.15984375 -34.26953125 152.83984375 C-34.92953125 152.83984375 -35.58953125 152.83984375 -36.26953125 152.83984375 C-36.53378906 153.443125 -36.79804688 154.04640625 -37.0703125 154.66796875 C-38.32708199 156.94407245 -39.42393287 158.00802808 -41.45703125 159.58984375 C-44.8496044 162.37960431 -47.62040274 165.43417443 -50.45703125 168.77734375 C-52.28910213 170.86211406 -54.21409378 172.78418557 -56.20703125 174.71484375 C-59.91013671 178.36075839 -63.10702876 182.27899245 -66.3125 186.36328125 C-68.21438952 188.77006359 -70.15334838 191.13149073 -72.14453125 193.46484375 C-72.69882813 194.11710937 -73.253125 194.769375 -73.82421875 195.44140625 C-75.26953125 196.83984375 -75.26953125 196.83984375 -77.26953125 196.83984375 C-77.26953125 197.49984375 -77.26953125 198.15984375 -77.26953125 198.83984375 C-79.31640625 200.49609375 -79.31640625 200.49609375 -82.01953125 202.33984375 C-82.90125 202.94828125 -83.78296875 203.55671875 -84.69140625 204.18359375 C-90.60834462 207.9847784 -95.22073029 208.90813294 -102.26953125 207.83984375 C-108.97027466 205.04014758 -113.29294884 200.37836161 -116.26953125 193.83984375 C-119.57036012 184.98762087 -117.64968945 175.76319136 -116.53540039 166.57348633 C-114.26567517 147.85259932 -113.70612393 129.34008726 -113.71362305 110.49975586 C-113.7138682 107.17536957 -113.6927576 103.85221177 -113.65209961 100.52807617 C-113.30890639 71.99497885 -117.05752295 47.13201545 -129.15893555 20.9128418 C-131.81353357 15.14845911 -132.02819441 10.08355436 -131.26953125 3.83984375 C-127.3713961 -4.76853804 -119.14100452 -9.75660831 -110.62109375 -13.03515625 C-104.57983221 -15.06299229 -98.46480079 -16.67769363 -92.26953125 -18.16015625 C-91.58262207 -18.3396582 -90.89571289 -18.51916016 -90.18798828 -18.70410156 C-61.40895813 -25.83349569 -24.36355305 -16.09682776 0 0 Z " fill="#FEFEFE" transform="translate(2997.26953125,1323.16015625)"/>
<path d="M0 0 C0.66 0.33 1.32 0.66 2 1 C-5.59 8.59 -13.18 16.18 -21 24 C-21 19.87532888 -18.81803239 18.21429075 -16.125 15.375 C-15.38866333 14.58464355 -15.38866333 14.58464355 -14.63745117 13.77832031 C-10.01867417 8.88654496 -5.10370758 4.38409588 0 0 Z " fill="#E7E6E1" transform="translate(1524,1537)"/>
<path d="M0 0 C0.66 0.33 1.32 0.66 2 1 C-5.26 8.26 -12.52 15.52 -20 23 C-20.66 22.67 -21.32 22.34 -22 22 C-15.003724 14.22235297 -7.95768603 6.81332853 0 0 Z " fill="#E7E5E1" transform="translate(488,1652)"/>
<path d="M0 0 C0.66 0.33 1.32 0.66 2 1 C-2.95 5.95 -7.9 10.9 -13 16 C-13 11.08924079 -9.30469813 8.39044878 -6 5 C-4.05397986 3.23549584 -2.07285289 1.6178364 0 0 Z " fill="#E7E4E0" transform="translate(1296,1566)"/>
<path d="M0 0 C0.66 0.33 1.32 0.66 2 1 C-1.96 4.96 -5.92 8.92 -10 13 C-10 8.41771462 -7.08388033 6.1816619 -4 3 C-1.625 1.0625 -1.625 1.0625 0 0 Z " fill="#E7E4DF" transform="translate(2321,1437)"/>
<path d="M0 0 C0.66 0.33 1.32 0.66 2 1 C-1.63 4.63 -5.26 8.26 -9 12 C-9 8.47601214 -8.44884893 7.98495633 -6.1875 5.4375 C-5.40439453 4.53837891 -5.40439453 4.53837891 -4.60546875 3.62109375 C-3 2 -3 2 0 0 Z " fill="#E8E6E2" transform="translate(2824,1567)"/>
</svg>
