<?xml version="1.0" encoding="UTF-8"?>
<svg version="1.1" xmlns="http://www.w3.org/2000/svg" width="3147" height="3147">
<path d="M0 0 C5.55568818 1.68148877 11.22378528 2.89796206 16.89208984 4.14038086 C22.22485467 5.35654496 27.14145991 6.99883208 32.1875 9.10693359 C34.23456106 9.94775194 36.27359993 10.69246284 38.375 11.3828125 C69.15358509 21.54675519 98.67837749 37.56480417 124.5234375 57.06640625 C125.75267361 57.95613258 126.98324418 58.84401692 128.21484375 59.73046875 C137.42755745 66.41908978 145.75530382 73.69896201 153.9609375 81.58056641 C157.64466943 85.08356524 161.50452588 88.38954164 165.4140625 91.63671875 C168.90153508 94.55271473 171.73800191 97.44533998 174.5234375 101.06640625 C177.04765835 103.63809108 179.6174896 106.15798691 182.19921875 108.671875 C183.06933594 109.52394531 183.93945312 110.37601563 184.8359375 111.25390625 C186.16044922 112.54361328 186.16044922 112.54361328 187.51171875 113.859375 C189.5234375 116.06640625 189.5234375 116.06640625 189.5234375 118.06640625 C190.08546875 118.30488281 190.6475 118.54335938 191.2265625 118.7890625 C194.02586302 120.34581636 195.97398147 122.27229131 198.2734375 124.50390625 C220.01235921 144.51064297 246.40050802 153.8568373 274.5234375 161.06640625 C275.2750415 161.25928223 276.02664551 161.4521582 276.80102539 161.65087891 C280.17443767 162.50608811 283.54309882 163.2884858 286.9609375 163.94140625 C291.8132829 165.00675824 296.05289778 166.94506051 300.5234375 169.06640625 C301.8766291 169.65199794 303.23082395 170.23527596 304.5859375 170.81640625 C320.95858363 178.12818342 335.47179646 186.94063742 349.5234375 198.06640625 C350.42707031 198.78183594 351.33070312 199.49726562 352.26171875 200.234375 C354.51934698 202.06309285 356.57931324 203.90626818 358.5234375 206.06640625 C358.5234375 206.72640625 358.5234375 207.38640625 358.5234375 208.06640625 C359.42098755 208.46472656 359.42098755 208.46472656 360.33666992 208.87109375 C362.59348881 210.10469711 363.84041572 211.25789946 365.51171875 213.19140625 C366.04998291 213.81080078 366.58824707 214.43019531 367.14282227 215.06835938 C367.98091431 216.05739258 367.98091431 216.05739258 368.8359375 217.06640625 C369.41335693 217.74123047 369.99077637 218.41605469 370.58569336 219.11132812 C386.5234375 237.93603591 386.5234375 237.93603591 386.5234375 244.06640625 C387.1834375 244.06640625 387.8434375 244.06640625 388.5234375 244.06640625 C394.45249801 255.75183619 394.45249801 255.75183619 396.1484375 259.81640625 C397.16609724 262.22178381 398.2316 264.40360442 399.4609375 266.69140625 C402.26008307 272.21491107 403.82984653 278.13178123 405.5234375 284.06640625 C405.7915625 284.97519531 406.0596875 285.88398437 406.3359375 286.8203125 C407.11923548 289.55777574 407.83462433 292.30366646 408.5234375 295.06640625 C408.78125 296.07960938 409.0390625 297.0928125 409.3046875 298.13671875 C412.92963547 314.05024033 414.63187841 331.53944152 412.875 347.80078125 C412.6009656 350.34625636 412.41580232 352.84037261 412.296875 355.39453125 C412.26118408 356.14911621 412.22549316 356.90370117 412.1887207 357.68115234 C412.12275384 359.13179656 412.0610213 360.58264307 412.00463867 362.03369141 C411.79133375 366.25600886 411.11337532 370.08517369 410.01147461 374.16455078 C409.30005741 376.93690695 408.91612031 379.73348027 408.5234375 382.56640625 C407.94357206 386.74972123 407.13224133 390.77546648 406.07666016 394.86523438 C405.01851034 399.07541915 404.12744825 403.32357153 403.2109375 407.56640625 C402.99655029 408.55310303 402.78216309 409.5397998 402.5612793 410.55639648 C401.39858622 415.93051878 400.26187615 421.3091524 399.15625 426.6953125 C398.93493408 427.77167969 398.71361816 428.84804688 398.4855957 429.95703125 C398.06143414 432.0279471 397.64054965 434.09953762 397.22338867 436.171875 C396.24816601 440.93800688 395.10426986 445.45902305 393.5234375 450.06640625 C393.1698021 451.9131689 392.85764965 453.76832495 392.5859375 455.62890625 C389.98013311 472.15301503 389.98013311 472.15301503 387.5234375 477.06640625 C387.22664869 478.79130754 386.96107796 480.52162515 386.7109375 482.25390625 C385.97611009 486.8411744 384.98011855 491.22368425 383.7109375 495.69140625 C381.75252764 502.75333028 380.36146936 509.86307842 379.0234375 517.06640625 C377.45937957 525.48175701 375.69916252 533.69703247 373.36328125 541.93359375 C372.31288074 545.85183192 371.62330676 549.78758087 370.953125 553.78515625 C370.41351611 556.64998889 369.46211318 559.30904643 368.5234375 562.06640625 C368.21393689 563.52105911 367.92470849 564.98007812 367.6484375 566.44140625 C366.51121424 572.38720345 365.02280354 578.23568114 363.5234375 584.09765625 C362.90239096 586.53047768 362.32319913 588.95913567 361.7734375 591.41015625 C359.77355927 600.22780116 357.38052608 608.8283472 349.5234375 614.06640625 C348.90210937 614.71222656 348.28078125 615.35804688 347.640625 616.0234375 C340.59673754 622.82039901 329.06297004 624.85824805 319.9362793 627.47973633 C314.60066941 629.03195473 309.57740017 630.8013929 304.53808594 633.14477539 C301.73646429 634.42641883 298.85693978 635.45641606 295.9609375 636.50390625 C291.40837636 638.23292773 287.41935717 640.12246444 283.38671875 642.8359375 C281.46308253 644.1062633 279.49834171 645.1766146 277.4609375 646.25390625 C263.72257328 653.83125146 251.04313142 663.41894775 239.2734375 673.75390625 C236.5234375 676.06640625 236.5234375 676.06640625 234.5234375 676.06640625 C234.26175781 676.65550781 234.00007813 677.24460937 233.73046875 677.8515625 C232.45921 680.18426059 231.12113219 681.66994993 229.2109375 683.50390625 C228.58316406 684.11492188 227.95539063 684.7259375 227.30859375 685.35546875 C226.71949219 685.92007813 226.13039063 686.4846875 225.5234375 687.06640625 C214.25561116 698.03771084 205.01791108 710.20744027 196.36328125 723.30078125 C187.2990766 736.92595512 187.2990766 736.92595512 180.16796875 738.62890625 C174.45975693 739.4579355 170.59818316 739.07366294 165.5234375 736.06640625 C162.69399785 733.90011652 160.11814176 731.50645926 157.5234375 729.06640625 C150.06376823 722.09475273 142.59803988 715.33077329 134.5234375 709.06640625 C133.43116483 708.19542168 132.34009358 707.32292907 131.25 706.44921875 C107.69677412 687.6316317 76.38006749 663.80846329 44.5234375 666.06640625 C38.38490928 667.08949429 34.65425406 669.57995648 30.5234375 674.06640625 C26.16560839 680.34094359 24.31178594 686.77666254 22.8359375 694.19140625 C22.43788674 696.09019857 22.03818365 697.98864536 21.63671875 699.88671875 C21.45077148 700.77955566 21.26482422 701.67239258 21.07324219 702.59228516 C20.36226675 705.79167464 19.43129949 708.91811231 18.5234375 712.06640625 C18.1917686 713.8511008 17.90082547 715.64378582 17.6484375 717.44140625 C17.01483722 721.83637964 16.33429427 726.21412452 15.578125 730.58984375 C13.19884935 744.53420612 11.63197675 758.36790098 10.75708008 772.48706055 C10.5234375 775.06640625 10.5234375 775.06640625 10.02740479 777.86758423 C9.55156665 780.88786263 9.33104179 783.77368187 9.22631836 786.8269043 C9.1663694 788.49737068 9.1663694 788.49737068 9.10520935 790.20158386 C9.06662308 791.39834244 9.0280368 792.59510101 8.98828125 793.828125 C8.94530411 795.08736282 8.90232697 796.34660065 8.85804749 797.64399719 C8.76788127 800.31950567 8.6793568 802.99500976 8.59350586 805.6706543 C8.46498313 809.66677006 8.32516109 813.66245917 8.18554688 817.65820312 C7.42883769 840.06016896 7.21942847 862.42882609 7.95233154 884.83334351 C8.07672999 888.74004207 8.17660354 892.64741913 8.28125 896.5546875 C8.41420116 901.47028103 8.57156738 906.38323661 8.765625 911.296875 C9.07719828 920.98108139 8.45913651 928.22875209 1.984375 935.88671875 C-5.58613538 943.31371234 -16.00580474 943.5265406 -26.01953125 943.5 C-27.18736649 943.50524185 -28.35520172 943.5104837 -29.5584259 943.5158844 C-32.01151742 943.52227236 -34.4646397 943.52100976 -36.91772461 943.51245117 C-40.66380139 943.50390685 -44.40836896 943.53280569 -48.15429688 943.56445312 C-50.54687455 943.56606456 -52.9394549 943.56548872 -55.33203125 943.5625 C-56.44571579 943.57373398 -57.55940033 943.58496796 -58.70683289 943.59654236 C-65.19554118 943.53847751 -69.20004942 942.93279735 -74.4765625 939.06640625 C-78.56300112 934.8257624 -81.36014519 929.48632541 -84.3515625 924.44140625 C-84.88894043 923.53986816 -85.42631836 922.63833008 -85.97998047 921.70947266 C-89.05698057 916.52563029 -92.07354526 911.32254719 -94.8984375 905.99609375 C-96.25307111 903.48130362 -97.64392337 900.99518836 -99.0546875 898.51171875 C-99.51472168 897.69783691 -99.97475586 896.88395508 -100.44873047 896.04541016 C-101.37002479 894.41735193 -102.29599236 892.79192767 -103.22705078 891.16943359 C-103.64712402 890.42387207 -104.06719727 889.67831055 -104.5 888.91015625 C-104.88075684 888.24177734 -105.26151367 887.57339844 -105.65380859 886.88476562 C-106.4765625 885.06640625 -106.4765625 885.06640625 -106.4765625 882.06640625 C-107.1365625 882.06640625 -107.7965625 882.06640625 -108.4765625 882.06640625 C-108.79367187 881.46957031 -109.11078125 880.87273438 -109.4375 880.2578125 C-112.65383102 874.27827997 -116.01654653 868.40752936 -119.4765625 862.56640625 C-123.28229031 856.13674413 -126.95328862 849.6560453 -130.4765625 843.06640625 C-134.14040765 836.2621224 -137.92131746 829.54617661 -141.8359375 822.8828125 C-143.18689242 820.56367323 -144.50083744 818.23309219 -145.7890625 815.87890625 C-148.70489627 810.57384415 -151.81279452 805.38063563 -154.91137695 800.1809082 C-157.26606825 796.20899139 -159.42869844 792.20776923 -161.4765625 788.06640625 C-162.56477726 786.16137169 -163.66938797 784.26562218 -164.7890625 782.37890625 C-167.02462339 778.57845273 -169.20436548 774.76402342 -171.2890625 770.87890625 C-173.90276451 766.03690066 -176.67308016 761.29984086 -179.4765625 756.56640625 C-182.74853115 751.04046843 -185.92534899 745.48371081 -188.9765625 739.83203125 C-190.82843052 736.41764959 -192.70232609 733.0171475 -194.6015625 729.62890625 C-194.92656738 729.03698486 -195.25157227 728.44506348 -195.58642578 727.83520508 C-197.51866693 724.41031501 -199.5594297 721.7047908 -202.4765625 719.06640625 C-204.48087226 719.70197649 -204.48087226 719.70197649 -206.4765625 721.06640625 C-209.9964914 729.3311993 -210.43223474 739.22911171 -211.4765625 748.06640625 C-211.72466158 750.12173206 -211.9751787 752.17672837 -212.22827148 754.23144531 C-212.46107392 756.12774365 -212.68778575 758.02478691 -212.9140625 759.921875 C-213.19198297 762.14716683 -213.52743887 764.33361939 -213.94702148 766.53735352 C-215.76228741 776.18870005 -216.11698282 785.84015209 -216.5390625 795.62890625 C-216.65576861 798.21706444 -216.77458637 800.80510288 -216.89585876 803.39305115 C-216.97013282 804.98915595 -217.04164249 806.58539321 -217.1096344 808.18177795 C-217.29208164 812.21746699 -217.58347637 816.21502069 -217.99731445 820.23388672 C-218.63435649 827.01151779 -218.62005057 833.76750268 -218.609375 840.5703125 C-218.61005086 841.94311032 -218.61102322 843.31590803 -218.61227417 844.68870544 C-218.6137374 847.54695795 -218.61164095 850.40517893 -218.60693359 853.26342773 C-218.60123171 856.89980607 -218.60452703 860.53611065 -218.61050606 864.17248631 C-218.61414443 867.00116009 -218.61295823 869.8298168 -218.61037827 872.65849113 C-218.60940106 874.6424095 -218.61240057 876.62632858 -218.61550903 878.61024475 C-218.59963966 884.77767831 -218.41265201 890.81935264 -217.71008301 896.94755554 C-217.15230215 902.0085858 -217.20795618 907.10559178 -217.1640625 912.19140625 C-217.13505859 913.31933594 -217.10605469 914.44726562 -217.07617188 915.609375 C-217.01479266 923.68310264 -218.04069328 929.21447475 -223.4765625 935.30859375 C-224.1365625 935.84742188 -224.7965625 936.38625 -225.4765625 936.94140625 C-226.1365625 937.49570313 -226.7965625 938.05 -227.4765625 938.62109375 C-235.97789546 944.76463515 -246.75857564 943.25030498 -256.74560547 943.09912109 C-258.54139067 943.07760892 -260.33740011 943.06972873 -262.13330078 943.07666016 C-278.33914025 943.13454904 -278.33914025 943.13454904 -283.4140625 938.94140625 C-287.88925421 933.85036247 -290.35958827 928.483193 -292.75 922.21875 C-293.19142334 921.06342773 -293.63284668 919.90810547 -294.08764648 918.71777344 C-294.54598877 917.51282227 -295.00433105 916.30787109 -295.4765625 915.06640625 C-295.9187915 913.9052832 -296.36102051 912.74416016 -296.81665039 911.54785156 C-298.18482617 907.95076502 -299.55004965 904.35257334 -300.9140625 900.75390625 C-301.1540094 900.12088593 -301.3939563 899.4878656 -301.64117432 898.83566284 C-303.25420824 894.57971219 -304.8657644 890.32320371 -306.4765625 886.06640625 C-306.80897949 885.18823242 -307.14139648 884.31005859 -307.48388672 883.40527344 C-310.08658388 876.52261809 -312.64394846 869.62750371 -315.1015625 862.69140625 C-316.77363176 857.97340189 -318.55516471 853.32531695 -320.4453125 848.69140625 C-322.16457149 844.31511063 -323.69258651 839.87071629 -325.2578125 835.4375 C-326.27068576 832.63586658 -327.3405474 829.8819106 -328.4765625 827.12890625 C-330.14750647 823.04213968 -331.55019434 818.88828808 -332.9140625 814.69140625 C-334.43305633 810.01753411 -336.09201122 805.456654 -338.0390625 800.94140625 C-340.27598324 795.7475559 -341.9142123 790.48746449 -343.51953125 785.0703125 C-344.5623528 781.79712977 -345.89044798 778.79830894 -347.34765625 775.6953125 C-348.88733359 772.10983551 -350.14014131 768.44074615 -351.4140625 764.75390625 C-354.09249005 757.02185776 -357.11149804 749.48974371 -360.3828125 741.98828125 C-361.94653507 738.39171935 -363.25302103 734.79120963 -364.4765625 731.06640625 C-368.49266604 718.91623795 -372.91462295 708.64762432 -381.4765625 699.06640625 C-381.4765625 698.40640625 -381.4765625 697.74640625 -381.4765625 697.06640625 C-382.1365625 697.06640625 -382.7965625 697.06640625 -383.4765625 697.06640625 C-384.81640625 695.73828125 -384.81640625 695.73828125 -386.4140625 693.81640625 C-388.66253588 691.15998201 -390.93798306 688.54769256 -393.3125 686.00390625 C-393.80371338 685.47700195 -394.29492676 684.95009766 -394.80102539 684.40722656 C-395.77879561 683.36191881 -396.75966793 682.31950251 -397.74389648 681.28027344 C-399.68080273 679.19949842 -401.34669945 677.32880995 -402.61328125 674.76953125 C-403.41294294 672.69693803 -403.41294294 672.69693803 -406.4765625 672.06640625 C-406.4765625 671.40640625 -406.4765625 670.74640625 -406.4765625 670.06640625 C-407.0128125 669.79828125 -407.5490625 669.53015625 -408.1015625 669.25390625 C-410.4765625 668.06640625 -410.4765625 668.06640625 -413.1015625 666.44140625 C-421.20924165 663.13827771 -429.88251307 665.52966613 -438.08984375 667.515625 C-439.72520332 667.89736626 -439.72520332 667.89736626 -441.39360046 668.28681946 C-444.86127945 669.09885608 -448.32511989 669.92609293 -451.7890625 670.75390625 C-454.07072681 671.29072075 -456.35262645 671.82653601 -458.63476562 672.36132812 C-467.20659933 674.37458954 -475.77149796 676.41653774 -484.33349609 678.47119141 C-492.8691367 680.51720883 -501.40374942 682.50024659 -509.99414062 684.30615234 C-517.10399437 685.85831755 -524.16131126 687.63682014 -531.2265625 689.37890625 C-542.78256462 692.22714597 -554.3572637 694.97450663 -565.95729065 697.6381073 C-578.82993752 700.59860922 -591.68097821 703.64911445 -604.53051758 706.70800781 C-608.00292313 707.53452135 -611.47597056 708.35830464 -614.94916821 709.18148232 C-617.69256286 709.83217058 -620.43550753 710.48474061 -623.178339 711.13779831 C-625.06481526 711.58650783 -626.95173267 712.03336147 -628.83866882 712.48013306 C-632.388547 713.32709988 -635.93357772 714.19106181 -639.4765625 715.06640625 C-640.13656376 715.22809044 -640.79656502 715.38977463 -641.47656631 715.55635834 C-643.50951314 716.05825858 -645.53880098 716.57302747 -647.56762695 717.09130859 C-648.77393265 717.39579926 -649.98023834 717.70028992 -651.22309875 718.01400757 C-660.875513 721.13627627 -666.47027981 729.36631027 -672.4765625 737.06640625 C-674.01492336 738.92331659 -675.55655822 740.77751977 -677.1015625 742.62890625 C-683.93795483 750.90756489 -683.93795483 750.90756489 -689.4765625 760.06640625 C-690.1365625 760.06640625 -690.7965625 760.06640625 -691.4765625 760.06640625 C-691.7446875 760.63875 -692.0128125 761.21109375 -692.2890625 761.80078125 C-693.51788886 764.14525259 -694.90178426 766.19045563 -696.4765625 768.31640625 C-697.25 769.37601563 -697.25 769.37601563 -698.0390625 770.45703125 C-698.5134375 770.988125 -698.9878125 771.51921875 -699.4765625 772.06640625 C-700.1365625 772.06640625 -700.7965625 772.06640625 -701.4765625 772.06640625 C-701.8065625 773.05640625 -702.1365625 774.04640625 -702.4765625 775.06640625 C-703.1365625 775.06640625 -703.7965625 775.06640625 -704.4765625 775.06640625 C-704.8065625 776.05640625 -705.1365625 777.04640625 -705.4765625 778.06640625 C-707.04296875 779.609375 -707.04296875 779.609375 -709.0390625 781.25390625 C-720.25638781 790.30856746 -720.25638781 790.30856746 -725.73510742 803.13745117 C-725.82722654 808.91612938 -724.66469949 813.20916015 -722.2890625 818.44140625 C-721.96953613 819.17891113 -721.65000977 819.91641602 -721.32080078 820.67626953 C-720.3894449 822.81422897 -719.43672581 824.94125865 -718.4765625 827.06640625 C-718.01378906 828.10796875 -717.55101562 829.14953125 -717.07421875 830.22265625 C-715.89419709 832.84660217 -714.69145155 835.45844442 -713.4765625 838.06640625 C-707.57057025 850.74460294 -702.26827428 863.60733315 -697.65234375 876.80859375 C-696.17256125 880.908722 -694.50321931 884.91013611 -692.80078125 888.921875 C-690.74248883 893.80956054 -688.77703323 898.73273126 -686.8359375 903.66796875 C-686.0732019 905.57480775 -685.2886928 907.47439194 -684.4296875 909.33984375 C-681.56705054 915.7402679 -681.10820712 923.52151158 -683.1328125 930.24609375 C-685.63408739 935.09770454 -690.03317852 939.92906565 -695.29931641 941.66845703 C-701.67210665 943.28787859 -707.93265605 943.36560855 -714.4765625 943.31640625 C-715.50523437 943.32414062 -716.53390625 943.331875 -717.59375 943.33984375 C-726.13526715 943.31810961 -734.49948123 942.93389043 -741.37109375 937.3515625 C-748.37222979 929.7529269 -753.22051632 919.8121782 -758.02368164 910.74194336 C-759.35679053 908.28697104 -760.75896707 905.90312025 -762.21484375 903.51953125 C-765.75403342 897.65350106 -769.08691907 891.67953238 -772.4140625 885.69140625 C-776.50020216 878.34268996 -780.63411051 871.03046227 -784.90063477 863.78466797 C-786.47465581 861.06969503 -787.98579063 858.32783251 -789.4765625 855.56640625 C-791.57181615 851.68795801 -793.74320105 847.86703889 -795.9765625 844.06640625 C-799.87785305 837.41628515 -803.57562345 830.67118238 -807.171875 823.8515625 C-811.31959019 815.99867077 -815.60287127 808.23349574 -819.9765625 800.50390625 C-820.81755493 799.01733521 -820.81755493 799.01733521 -821.67553711 797.50073242 C-824.0904388 793.24169829 -826.51323193 788.98840727 -828.984375 784.76171875 C-839.42129958 766.89798616 -839.42129958 766.89798616 -836.75488281 756.16015625 C-835.75330796 752.83995094 -834.69313125 749.54560924 -833.6015625 746.25390625 C-829.95584183 735.14283178 -827.09099454 724.82622916 -827.4765625 713.06640625 C-833.32303267 715.7332172 -837.81037653 718.66521356 -842.4765625 723.06640625 C-843.3015625 723.82953125 -844.1265625 724.59265625 -844.9765625 725.37890625 C-847.75543495 728.36619413 -850.19378306 731.51777719 -852.6328125 734.78515625 C-854.7496633 737.40431062 -857.08842139 739.69245915 -859.4765625 742.06640625 C-868.15846927 751.5257021 -875.92833604 761.69451223 -883.4765625 772.06640625 C-884.14365234 772.97338257 -884.14365234 772.97338257 -884.82421875 773.89868164 C-888.56277188 779.03569429 -891.51120461 784.45279522 -894.4765625 790.06640625 C-895.0540625 791.05640625 -895.6315625 792.04640625 -896.2265625 793.06640625 C-899.65516106 801.29504279 -899.77187004 810.24568333 -899.76367188 819.03613281 C-899.77050491 820.17741638 -899.77733795 821.31869995 -899.78437805 822.49456787 C-899.79788406 824.95255848 -899.80698968 827.41057652 -899.81208801 829.86859894 C-899.82042872 833.76127236 -899.84097884 837.65371696 -899.86462402 841.54632568 C-899.91745204 850.50470331 -899.95110476 859.46313251 -899.98438263 868.42160034 C-900.01757961 877.30551122 -900.05843565 886.18930249 -900.11250305 895.07311249 C-900.13253308 898.90359521 -900.14088103 902.73399006 -900.14880371 906.56451416 C-900.16177654 908.91443197 -900.17529691 911.26434684 -900.18945312 913.61425781 C-900.18847122 914.67519653 -900.18748932 915.73613525 -900.18647766 916.82922363 C-900.25612764 925.13516358 -901.04538151 931.27916362 -906.83203125 937.55859375 C-914.29049976 944.39699956 -924.25811937 943.249229 -933.6640625 943.25390625 C-934.94087891 943.26615234 -936.21769531 943.27839844 -937.53320312 943.29101562 C-954.98867137 943.31793923 -954.98867137 943.31793923 -960.87890625 939.515625 C-961.38550781 938.93425781 -961.89210938 938.35289062 -962.4140625 937.75390625 C-963.20103516 936.89345703 -963.20103516 936.89345703 -964.00390625 936.015625 C-967.18427892 931.80606012 -968.84892494 928.84744293 -968.87719727 923.49316406 C-968.89061661 922.38837204 -968.90403595 921.28358002 -968.91786194 920.14530945 C-968.91789719 918.94880264 -968.91793243 917.75229584 -968.91796875 916.51953125 C-968.93669289 914.63419426 -968.93669289 914.63419426 -968.95579529 912.71076965 C-968.98187483 909.99852893 -969.0030058 907.28677759 -969.01586914 904.57449341 C-969.04788048 898.07653147 -969.12549355 891.57905561 -969.20402145 885.08151436 C-969.22170259 883.61681223 -969.23891444 882.15210435 -969.25566483 880.68739128 C-969.40506422 867.81996317 -969.85825974 854.98199984 -970.4765625 842.12890625 C-971.57559212 818.72266693 -971.88082259 795.31915174 -972.14575195 771.8918457 C-972.17182054 769.59313474 -972.19790797 767.29442401 -972.22407722 764.99571419 C-972.24133761 763.47702233 -972.25847227 761.95832903 -972.27548027 760.43963432 C-972.39225908 750.13851698 -972.57389742 739.8417549 -972.828125 729.54296875 C-972.8564592 728.35563141 -972.8847934 727.16829407 -972.91398621 725.94497681 C-973.04495119 720.4942298 -973.18676889 715.04417513 -973.34790039 709.59423828 C-973.78755279 692.99502514 -973.3259191 679.21715237 -961.3515625 666.50390625 C-945.51198197 649.62610111 -935.33987285 627.58591984 -927.26806641 606.16064453 C-926.6193294 604.44415284 -925.94762438 602.73635796 -925.26953125 601.03125 C-922.75930809 594.56067476 -921.05584247 587.9095096 -919.33789062 581.1953125 C-918.11334231 576.41843671 -916.78558721 571.70488537 -915.2890625 567.00390625 C-913.84126502 562.43375036 -912.77257193 557.91860665 -911.90625 553.20703125 C-911.34234126 550.39774046 -910.43556114 547.76358992 -909.4765625 545.06640625 C-907.92404897 539.89136114 -906.61401185 534.67110892 -905.3359375 529.421875 C-904.74653711 527.12053438 -904.10836573 524.83129843 -903.4296875 522.5546875 C-899.59645559 509.48558884 -898.57399488 496.61854172 -900.4765625 483.06640625 C-905.82919465 485.03738779 -908.87942606 487.01842492 -912.7265625 491.37890625 C-913.41927246 492.15754028 -913.41927246 492.15754028 -914.12597656 492.9519043 C-918.15260115 497.54005108 -921.88283278 502.35475211 -925.62084961 507.17797852 C-935.76829409 520.21003156 -935.76829409 520.21003156 -942.4765625 521.06640625 C-948.02307413 518.97338299 -948.02307413 518.97338299 -949.4765625 516.06640625 C-949.73909738 511.61309044 -949.74797372 507.1553961 -949.77172852 502.6953125 C-949.7830925 501.21767482 -949.80328721 499.74007284 -949.83325195 498.26269531 C-950.0573749 487.19928545 -948.6171633 477.69619039 -945.4765625 467.06640625 C-945.20150879 466.06834961 -944.92645508 465.07029297 -944.64306641 464.04199219 C-943.09850223 458.44987779 -940.98801135 453.28777711 -938.4765625 448.06640625 C-938.20183105 447.48052734 -937.92709961 446.89464844 -937.64404297 446.29101562 C-931.73008086 433.71718627 -924.43933011 423.28053269 -915.5546875 412.57421875 C-914.18114816 410.91667692 -912.84017227 409.23154422 -911.53515625 407.51953125 C-907.78083868 403.04569551 -903.03659215 399.68190301 -898.4765625 396.06640625 C-897.75339844 395.46570313 -897.03023437 394.865 -896.28515625 394.24609375 C-885.24119841 385.23489475 -872.1766633 378.18194035 -859.09765625 372.6328125 C-855.33717681 371.00611104 -851.69232148 369.22960351 -848.0390625 367.37890625 C-846.63287893 366.67044104 -845.22662688 365.96211175 -843.8203125 365.25390625 C-843.10488281 364.89296875 -842.38945313 364.53203125 -841.65234375 364.16015625 C-839.50353717 363.07996623 -837.35037577 362.00905227 -835.1953125 360.94140625 C-827.22382397 356.98956938 -819.35091561 352.951367 -811.69140625 348.41796875 C-806.68989989 345.46223983 -801.69465905 342.62429672 -796.4765625 340.06640625 C-791.42396759 337.58951487 -786.58000617 334.86406413 -781.75390625 331.97265625 C-774.09501215 327.51790021 -766.2434046 323.4004918 -758.43212891 319.22094727 C-741.78069335 310.30171297 -725.30189785 301.09831175 -709.01171875 291.53515625 C-702.85460658 287.96801576 -696.56540271 284.64255826 -690.28051758 281.30761719 C-677.13618573 274.32710871 -664.17216852 267.03253861 -651.2265625 259.69140625 C-642.78487504 254.9047451 -634.29388767 250.21970314 -625.76245117 245.59521484 C-618.978783 241.90916473 -612.25143113 238.13055266 -605.5390625 234.31640625 C-597.97316656 230.01840606 -590.37207612 225.81331178 -582.67578125 221.75390625 C-568.64170097 214.35131445 -554.80847564 206.5776213 -541.26953125 198.3046875 C-534.38509874 194.17778998 -527.2518991 190.47577227 -520.171875 186.69921875 C-510.10008617 181.32628523 -500.09977759 175.98905 -490.46875 169.85546875 C-486.24617395 167.33074312 -481.84803993 165.21980792 -477.42651367 163.06933594 C-471.99974613 160.4014425 -466.92241347 157.3929808 -461.83203125 154.12109375 C-451.81633318 147.9880819 -441.2454218 142.71156993 -430.88476562 137.18945312 C-425.55323025 134.33114908 -420.32962938 131.41302231 -415.23608398 128.15014648 C-412.45677056 126.43828687 -409.54038065 125.04401846 -406.6015625 123.62890625 C-401.65008821 121.20506171 -396.89037081 118.59961786 -392.1953125 115.7109375 C-382.13782245 109.62731205 -371.73089256 104.0980366 -361.42382812 98.45239258 C-353.62949698 94.17281577 -345.89142664 89.79573258 -338.16577148 85.39355469 C-333.65252341 82.82862264 -329.13024878 80.36960947 -324.4765625 78.06640625 C-322.57152794 76.97819149 -320.67577843 75.87358078 -318.7890625 74.75390625 C-310.04136389 69.56336309 -301.04037915 64.82523373 -292.078125 60.01855469 C-281.79548369 54.50171002 -271.55916918 48.92103602 -261.41015625 43.16259766 C-221.39714767 20.47845516 -180.43535833 3.36634646 -134.8737793 -4.51074219 C-133.1930136 -4.807217 -131.51492762 -5.11910214 -129.83911133 -5.44238281 C-89.58224442 -13.14985151 -39.22573016 -12.59768412 0 0 Z M158.5234375 181.06640625 C157.31920105 184.67911559 157.38017088 187.9821615 157.390625 191.7421875 C157.38966827 192.50379684 157.38871155 193.26540619 157.38772583 194.0500946 C157.38704492 195.66824424 157.38889304 197.28639661 157.39306641 198.90454102 C157.39833483 201.33160912 157.39316118 203.75848517 157.38671875 206.18554688 C157.37941961 218.83115329 157.56162834 231.37279245 160.3984375 243.75390625 C160.66732788 244.96832397 160.66732788 244.96832397 160.94165039 246.20727539 C161.45521383 248.49709399 161.98521655 250.78227487 162.5234375 253.06640625 C162.77222656 254.13375 163.02101563 255.20109375 163.27734375 256.30078125 C165.01805214 263.18403957 167.6123734 269.6001633 170.5234375 276.06640625 C170.93078125 277.01128906 171.338125 277.95617187 171.7578125 278.9296875 C176.04213801 288.241795 182.21401932 296.06115351 188.5234375 304.06640625 C189.61978516 305.47599609 189.61978516 305.47599609 190.73828125 306.9140625 C192.76968618 309.36330565 195.01804184 311.11097549 197.5234375 313.06640625 C198.29171875 313.85402344 199.06 314.64164063 199.8515625 315.453125 C210.01609624 325.3947523 227.7762784 335.34234995 241.8984375 338.12890625 C244.18582012 338.58870107 246.45196411 339.04789975 248.7109375 339.6328125 C258.73356101 342.192161 268.54634887 342.16754153 277.63671875 336.82421875 C279.81070064 335.39769068 279.81070064 335.39769068 282.5234375 333.06640625 C282.5234375 332.40640625 282.5234375 331.74640625 282.5234375 331.06640625 C283.1834375 331.06640625 283.8434375 331.06640625 284.5234375 331.06640625 C285.17701028 329.84133727 285.82091983 328.61111109 286.4609375 327.37890625 C286.82058594 326.69441406 287.18023438 326.00992188 287.55078125 325.3046875 C290.91698922 317.55835349 290.56042426 307.92155712 287.5546875 300.12890625 C284.02156914 293.06266954 278.58000951 289.28866045 271.5234375 286.06640625 C268.20955673 285.04001821 264.86267473 284.35988237 261.4609375 283.69140625 C247.69593994 280.68225153 235.67762165 275.8723411 224.5234375 267.06640625 C223.67136719 266.41542969 222.81929687 265.76445313 221.94140625 265.09375 C209.6695779 255.54490605 197.53891868 243.09736862 190.5234375 229.06640625 C189.8634375 229.06640625 189.2034375 229.06640625 188.5234375 229.06640625 C188.29914063 228.41542969 188.07484375 227.76445313 187.84375 227.09375 C186.0687839 223.02393128 183.74924392 219.38805003 181.3984375 215.62890625 C174.46510182 204.39781323 167.69429996 193.24776492 162.5234375 181.06640625 C161.2034375 181.06640625 159.8834375 181.06640625 158.5234375 181.06640625 Z " fill="#FEFEFE" transform="translate(1883.4765625,543.93359375)"/>
<path d="M0 0 C0.96134857 0.0036557 1.92269714 0.0073114 2.91317749 0.01107788 C16.85568837 0.07322487 30.41760742 0.65066763 44.125 3.375 C45.52682597 3.62016672 46.92916397 3.86242617 48.33203125 4.1015625 C55.03357354 5.3175951 61.42355983 6.93893983 67.83984375 9.21875 C70.34502157 10.10047727 72.84549207 10.92632356 75.37890625 11.71875 C85.18672425 14.81479767 94.01851666 18.55522711 103.125 23.375 C104.99986766 24.25028352 106.87486621 25.12528675 108.75 26 C123.5628347 33.44591824 136.95002519 43.33959284 149.54248047 54.04516602 C150.9847885 55.25717648 152.46152829 56.42790994 153.94140625 57.59375 C156.42065088 59.61617496 158.15910842 61.85620141 160.125 64.375 C162.3228892 66.63394168 164.5481763 68.84592233 166.87109375 70.9765625 C171.19411555 75.06473201 174.72035834 79.39747461 178.125 84.25 C178.5478125 84.85013916 178.970625 85.45027832 179.40625 86.06860352 C181.37724656 88.87310419 183.33905644 91.68354983 185.29296875 94.5 C189.07166597 99.76231524 189.07166597 99.76231524 194.75 102.5 C199.77824836 100.82391721 201.38451846 97.75446202 204.125 93.375 C205.53581357 91.20451758 206.95267623 89.03795723 208.375 86.875 C209.04015625 85.8334375 209.7053125 84.791875 210.390625 83.71875 C210.96296875 82.9453125 211.5353125 82.171875 212.125 81.375 C212.785 81.375 213.445 81.375 214.125 81.375 C214.310625 80.694375 214.49625 80.01375 214.6875 79.3125 C216.37521305 75.86369507 218.46363289 73.87135902 221.21875 71.24609375 C223.046634 69.45192073 224.67259618 67.59047296 226.3125 65.625 C237.62809664 52.60705696 252.01584151 41.40211784 267.0859375 33.0703125 C268.84404139 32.08957074 270.59083803 31.08658677 272.30249023 30.02685547 C278.47837094 26.20459343 284.76137704 23.09985776 291.4375 20.25 C292.45078369 19.81405518 293.46406738 19.37811035 294.50805664 18.92895508 C300.62452265 16.33464026 306.66327477 14.00280516 313.0703125 12.23046875 C315.91995104 11.4324242 318.6953401 10.49338649 321.4921875 9.52978516 C332.74627372 5.74170041 344.39170341 4.000343 356.125 2.375 C357.36491699 2.19477295 358.60483398 2.0145459 359.88232422 1.82885742 C370.75008883 0.33644936 381.51882999 0.03432608 392.47998047 0.05932617 C395.3581352 0.06248151 398.23525273 0.03893495 401.11328125 0.01367188 C419.34834326 -0.04833562 436.62744669 2.22619843 454.125 7.375 C455.91612865 7.83543138 457.70776543 8.2938924 459.5 8.75 C495.20120681 18.71919664 526.59456573 37.70764917 553.125 63.375 C553.90230469 64.11234375 554.67960937 64.8496875 555.48046875 65.609375 C557.07579077 67.15056433 558.6102415 68.75456068 560.125 70.375 C560.125 71.035 560.125 71.695 560.125 72.375 C560.785 72.375 561.445 72.375 562.125 72.375 C563.75390625 74.140625 563.75390625 74.140625 565.6875 76.625 C566.39003906 77.52734375 567.09257813 78.4296875 567.81640625 79.359375 C568.57824219 80.35453125 569.34007812 81.3496875 570.125 82.375 C570.53862793 82.90931641 570.95225586 83.44363281 571.37841797 83.99414062 C579.125 94.00620448 579.125 94.00620448 579.125 96.375 C579.785 96.375 580.445 96.375 581.125 96.375 C582.76989101 98.84539393 584.27663004 101.30393897 585.75 103.875 C586.1929541 104.63804443 586.6359082 105.40108887 587.09228516 106.18725586 C591.08982929 113.15319525 594.72171449 120.27903407 598.21386719 127.5090332 C599.19694631 129.52234341 600.21158107 131.51822963 601.2265625 133.515625 C605.19711074 141.44616661 607.67428213 149.94985808 610.1953125 158.4296875 C611.07350782 161.34745965 611.07350782 161.34745965 612.1875 163.99609375 C613.0647072 166.22200702 613.58082046 168.21423911 614 170.5625 C614.58910085 173.74457229 615.24832205 176.86722964 616.03515625 180.0078125 C622.56557336 206.10902778 622.57763052 232.85955185 622.53183305 259.58073759 C622.5270242 264.32756416 622.53967691 269.07435324 622.54985046 273.82116699 C622.56688593 283.07196599 622.56791192 292.32269663 622.56263756 301.57350722 C622.55857176 309.09133712 622.56006771 316.60914704 622.56538582 324.12697601 C622.56613424 325.20283918 622.56688266 326.27870235 622.56765376 327.38716744 C622.56918541 329.57350137 622.57072375 331.7598353 622.57226873 333.94616923 C622.58593427 354.35474242 622.58059445 374.76327706 622.56908352 395.17184934 C622.55912098 413.83282544 622.57215436 432.49370282 622.59601771 451.15466371 C622.62039693 470.36471635 622.63002172 489.57472296 622.62336498 508.78479075 C622.61987483 519.55102721 622.6220934 530.31718746 622.63961601 541.08341217 C622.65432164 550.23084865 622.65499299 559.37815501 622.6375451 568.5255889 C622.62902612 573.18915063 622.62690845 577.85247969 622.64219666 582.51602936 C622.65602285 586.78627181 622.6513076 591.05608174 622.63195742 595.32629904 C622.62819134 596.86864951 622.63113694 598.41103448 622.64156907 599.95335427 C622.70274891 609.69229928 622.0651853 617.30904747 615.9375 625.1875 C608.07152192 631.30548295 600.66517571 631.95464775 590.91357422 631.87670898 C589.61652557 631.88211197 588.31947693 631.88751495 586.98312378 631.89308167 C583.45006858 631.90695684 579.91750468 631.89592443 576.38447714 631.87937045 C572.67486348 631.86544469 568.96527617 631.87198833 565.25564575 631.87550354 C559.03021392 631.87819908 552.80497562 631.86478453 546.57958984 631.84155273 C539.39434157 631.81492363 532.20941622 631.81320572 525.02413547 631.8249411 C518.09307616 631.83573845 511.16213302 631.82951801 504.23108292 631.81538582 C501.28945272 631.8096453 498.34790809 631.80969333 495.4062767 631.81445122 C491.29655269 631.82013136 487.18730677 631.80085771 483.07763672 631.77905273 C481.86394409 631.78355438 480.65025146 631.78805603 479.39978027 631.79269409 C471.76049752 631.72538387 467.06944148 630.72288183 460.5 626.8125 C452.99712431 619.11218022 452.4022935 610.53790881 452.49249268 600.23641968 C452.4868885 598.82182762 452.47909222 597.40724286 452.46931052 595.99267352 C452.44884564 592.12785327 452.45919715 588.26364949 452.47478795 584.39882946 C452.4861483 580.22123148 452.46857167 576.04374108 452.45454407 571.86616516 C452.43413643 564.63028176 452.43179726 557.39457518 452.44171906 550.15867233 C452.45598327 539.67079018 452.4416368 529.18309627 452.42029712 518.69523318 C452.38628323 501.64316797 452.3737682 484.59115903 452.37548828 467.5390625 C452.37709343 451.03807018 452.37112054 434.53711607 452.35302734 418.03613281 C452.35191937 417.02181625 452.35081139 416.00749969 452.34966984 414.96244626 C452.33735444 403.86284383 452.32321378 392.76324404 452.30833054 381.66364479 C452.30439825 378.70837346 452.30047499 375.75310211 452.2965633 372.79783075 C452.29396964 370.84798866 452.29134605 368.89814661 452.28869209 366.94830461 C452.27203312 354.60791446 452.26318549 342.26755368 452.26301527 329.9271524 C452.26280423 323.67654098 452.25927573 317.42593279 452.2547656 311.17532311 C452.25198786 307.04883177 452.25087099 302.92235724 452.25428963 298.79586601 C452.2654056 284.41122787 452.26233398 270.03492543 451.68988037 255.65884399 C451.6338176 254.22326411 451.6338176 254.22326411 451.57662225 252.75868261 C451.26930583 246.10777915 450.43287109 239.82926618 448.5 233.4375 C448.23638672 232.50204346 447.97277344 231.56658691 447.70117188 230.6027832 C443.02631521 214.56786061 436.59928944 200.26167101 425.6640625 187.50390625 C424.125 185.375 424.125 185.375 424.125 182.375 C423.320625 182.0346875 423.320625 182.0346875 422.5 181.6875 C419.30039839 179.91929911 416.83462777 177.83829797 414.125 175.375 C414.125 174.715 414.125 174.055 414.125 173.375 C413.27615234 172.98054688 413.27615234 172.98054688 412.41015625 172.578125 C409.94489569 171.28017585 407.81076536 169.76953018 405.5625 168.125 C380.79082479 150.78482735 351.05714638 147.35372436 321.60546875 151.9296875 C303.6574974 155.15184299 286.77233486 161.3224323 272.125 172.375 C271.25617187 173.02984375 270.38734375 173.6846875 269.4921875 174.359375 C250.1698783 189.5373449 237.70962416 209.58079565 232.125 233.375 C231.95698171 234.03435248 231.78896342 234.69370496 231.61585367 235.37303782 C229.8333908 243.07274561 229.84631913 250.65230879 229.8734436 258.5189209 C229.8713021 260.04247731 229.86827451 261.56603268 229.86444318 263.08958578 C229.85643873 267.25489709 229.86069291 271.42011804 229.86696196 275.58542895 C229.87150972 280.08583414 229.86444833 284.5862225 229.85865784 289.08662415 C229.85003803 296.87907016 229.84821351 304.67149347 229.85060501 312.46394348 C229.85370659 323.74131398 229.84205023 335.01863443 229.82605521 346.29599231 C229.80011103 364.6086193 229.78008251 382.92124633 229.76660156 401.23388672 C229.76579119 402.32914545 229.76498082 403.42440418 229.7641459 404.55285257 C229.75292084 420.10095088 229.74764216 435.64904561 229.74475877 451.19714743 C229.74455478 452.29240616 229.74435079 453.38766489 229.74414062 454.51611328 C229.74384072 456.15699343 229.74384072 456.15699343 229.74353476 457.83102268 C229.73980109 476.07659498 229.72071247 494.32211289 229.68904626 512.56765795 C229.67014077 523.81567729 229.66416457 535.06355708 229.67486344 546.31158793 C229.68118512 554.01835634 229.67313474 561.72502469 229.65380932 569.43177116 C229.64313389 573.87659593 229.6389649 578.32117766 229.65228081 582.76600075 C229.66435865 586.83845385 229.65793751 590.91045187 229.63708882 594.98286563 C229.63279741 596.45244846 229.63519511 597.92207007 229.64512999 599.39162558 C229.70405813 608.79409082 229.21966175 617.20279568 223.1953125 624.8125 C222.55335938 625.328125 221.91140625 625.84375 221.25 626.375 C220.61320312 626.91125 219.97640625 627.4475 219.3203125 628 C214.87811671 630.78230057 210.51441558 631.62469487 205.33218384 631.64242554 C204.19958633 631.65095551 203.06698883 631.65948547 201.90007019 631.66827393 C200.6718605 631.66736755 199.44365082 631.66646118 198.17822266 631.66552734 C196.87346481 631.67224457 195.56870697 631.67896179 194.22441101 631.68588257 C190.65614224 631.70349996 187.08796949 631.70823611 183.51966143 631.70951414 C181.28732215 631.71093861 179.05500705 631.71521378 176.8226738 631.72050858 C169.02629809 631.73899409 161.22999064 631.74718096 153.43359375 631.74560547 C146.179668 631.74440416 138.92603982 631.76550799 131.67218935 631.7970928 C125.43249038 631.82328834 119.19288841 631.83397141 112.95313489 631.83269465 C109.23161617 631.83218602 105.51036214 631.83781425 101.78889847 631.85905075 C97.63591578 631.88210439 93.48359563 631.8728923 89.33056641 631.86083984 C88.10640518 631.87207886 86.88224396 631.88331787 85.62098694 631.89489746 C77.73411883 631.83677007 72.41157026 630.83625811 66.13671875 625.76953125 C58.87578531 617.09496475 58.68543437 607.99817798 58.73300171 597.05055237 C58.7282729 595.60367889 58.72223126 594.15680922 58.71499789 592.7099461 C58.69896111 588.75161851 58.70139284 584.79348807 58.70691919 580.83513987 C58.70960715 576.55881455 58.69499701 572.2825438 58.68247986 568.00624084 C58.66311147 560.5990315 58.65451888 553.19187302 58.65317917 545.78463936 C58.6511359 535.05551766 58.63164389 524.32648188 58.60778125 513.59738909 C58.56938718 496.16299826 58.54357494 478.72861326 58.52636719 461.29418945 C58.50965835 444.40583465 58.48948871 427.51749276 58.46289062 410.62915039 C58.4612572 409.59026972 58.45962378 408.55138904 58.45794086 407.48102713 C58.43994796 396.12256928 58.42057664 384.76411438 58.39963722 373.40566158 C58.3977958 372.40521676 58.39595438 371.40477194 58.39405716 370.3740106 C58.38667519 366.37263534 58.3792806 362.37126012 58.37171336 358.3698852 C58.34965824 346.68783166 58.33181897 335.00579014 58.32176055 323.32371979 C58.31534497 315.98602111 58.30577148 308.64833121 58.29379199 301.31063951 C58.28705572 297.08566328 58.28193793 292.86070118 58.28120613 288.6357193 C60.0289445 261.83083612 60.0289445 261.83083612 55.125 236.375 C54.77747452 234.98747235 54.46396996 233.59091416 54.1875 232.1875 C48.89038158 207.14558418 34.82901777 183.0632523 13.234375 168.76171875 C-14.22395522 151.07776757 -44.57988241 146.30989091 -76.55419922 152.9296875 C-92.90485964 156.64405313 -107.3146613 162.25328342 -120.54296875 172.7109375 C-122.875 174.375 -122.875 174.375 -125.61328125 175.4140625 C-126.35964844 175.73117187 -127.10601563 176.04828125 -127.875 176.375 C-128.205 177.365 -128.535 178.355 -128.875 179.375 C-129.7 179.684375 -130.525 179.99375 -131.375 180.3125 C-132.2 180.663125 -133.025 181.01375 -133.875 181.375 C-134.76193303 183.41605639 -134.76193303 183.41605639 -134.875 185.375 C-135.535 185.375 -136.195 185.375 -136.875 185.375 C-137.14183594 185.95765625 -137.40867187 186.5403125 -137.68359375 187.140625 C-138.90117569 189.42409015 -140.2686019 191.15230721 -141.9375 193.125 C-148.85919013 201.88957199 -155.2052502 212.45724269 -157.875 223.375 C-158.06449219 224.11621094 -158.25398438 224.85742188 -158.44921875 225.62109375 C-158.93087396 227.53746659 -159.40368112 229.45605886 -159.875 231.375 C-160.205 232.035 -160.535 232.695 -160.875 233.375 C-163.37038867 251.36994634 -163.17355767 269.50239738 -163.16235614 287.62552857 C-163.16193088 291.92122858 -163.17308822 296.21690165 -163.18281555 300.5125885 C-163.19816301 307.93158357 -163.20665636 315.35055986 -163.21052551 322.7695694 C-163.21631037 333.50668578 -163.23495449 344.243752 -163.25696605 354.98084602 C-163.29256137 372.42163 -163.32093106 389.86241684 -163.34326172 407.30322266 C-163.34459671 408.34384553 -163.3459317 409.38446841 -163.34730715 410.45662531 C-163.35808981 418.9050397 -163.36851657 427.35345452 -163.3789072 435.80186939 C-163.38802312 443.20498996 -163.39727408 450.60811034 -163.40673828 458.01123047 C-163.40873439 459.5756937 -163.40873439 459.5756937 -163.41077083 461.17176226 C-163.43320719 478.56793263 -163.46339657 495.96408124 -163.49913073 513.36022925 C-163.5207589 524.07159149 -163.535406 534.78291992 -163.54096949 545.49430278 C-163.5452196 552.82528956 -163.55646503 560.15624401 -163.57319343 567.48721287 C-163.58258473 571.71332715 -163.58871764 575.93938102 -163.58613014 580.16550636 C-163.58381021 584.03752099 -163.59068708 587.90940887 -163.60470897 591.78139779 C-163.60815575 593.17794366 -163.60827713 594.57450277 -163.60463637 595.97104815 C-163.55514843 617.01655316 -163.55514843 617.01655316 -171.0703125 624.75 C-176.26268499 629.42538302 -180.74448871 630.49532533 -187.57243347 630.51544189 C-188.7344931 630.52115204 -189.89655273 630.52686218 -191.09382629 630.53274536 C-192.36505844 630.53386322 -193.63629059 630.53498108 -194.94604492 630.53613281 C-196.30147435 630.5407634 -197.65690248 630.54578838 -199.0123291 630.55117798 C-202.69233075 630.56428305 -206.37231417 630.57074354 -210.0523355 630.57518864 C-212.35401322 630.57812314 -214.655686 630.58222872 -216.95736122 630.58669281 C-224.16603547 630.60036436 -231.37469838 630.61003201 -238.58338469 630.6138947 C-246.89087073 630.61837115 -255.19819189 630.63590119 -263.50562781 630.6648953 C-269.93552331 630.68655344 -276.36537256 630.69660122 -282.79530412 630.69793582 C-286.63141971 630.69898113 -290.46738024 630.70483001 -294.30345726 630.72275543 C-297.91585472 630.73930723 -301.52798174 630.74135747 -305.14040375 630.73261642 C-307.08646623 630.73148626 -309.03252002 630.74514963 -310.97853088 630.7593689 C-318.83760334 630.72215591 -325.932845 630.26390748 -332.43359375 625.5 C-333.05363281 624.79875 -333.67367188 624.0975 -334.3125 623.375 C-334.95058594 622.694375 -335.58867188 622.01375 -336.24609375 621.3125 C-340.24285461 614.10491207 -340.16933017 605.18535981 -340.12668228 597.11347771 C-340.12958916 596.13773204 -340.13249604 595.16198637 -340.13549101 594.15667266 C-340.14276059 590.90352793 -340.13586185 587.65057362 -340.12896729 584.39743042 C-340.13127291 582.03496426 -340.13445011 579.67249882 -340.13842177 577.31003487 C-340.14589077 571.50898134 -340.14408685 565.70798285 -340.13832024 559.9069286 C-340.13192938 552.9544817 -340.13717683 546.00205565 -340.14274407 539.04960978 C-340.15326511 525.42922565 -340.152367 511.8088603 -340.14658624 498.18847439 C-340.14155279 486.27021062 -340.14024283 474.35195373 -340.14263153 462.43368912 C-340.14286069 461.24729697 -340.14286069 461.24729697 -340.14309447 460.0369373 C-340.14371716 456.82622907 -340.14435396 453.61552084 -340.145014 450.40481261 C-340.15112995 420.29544387 -340.1455881 390.18608708 -340.1348202 360.07672019 C-340.12532738 333.32929794 -340.12618003 306.58189474 -340.13574219 279.83447266 C-340.14645188 249.77673651 -340.15069803 219.71901091 -340.14451766 189.66127312 C-340.14387623 186.4570752 -340.14325055 183.25287728 -340.14263153 180.04867935 C-340.14247338 179.25973559 -340.14231522 178.47079182 -340.14215227 177.65794067 C-340.13987769 165.74609772 -340.14253717 153.8342624 -340.14759064 141.9224205 C-340.15330759 128.37918775 -340.15188271 114.8359767 -340.14102915 101.29274665 C-340.135673 94.38133396 -340.1334639 87.46995654 -340.14032745 80.55854416 C-340.14627999 74.23373951 -340.1430232 67.90900947 -340.13237235 61.5842116 C-340.13013541 59.29435579 -340.13128118 57.0044937 -340.13612393 54.71464191 C-340.14219749 51.60461809 -340.13597512 48.49485044 -340.12668228 45.38484001 C-340.13136461 44.49394186 -340.13604695 43.60304372 -340.14087117 42.68514866 C-340.09722963 35.38701755 -339.63119694 27.24097622 -334.875 21.375 C-328.74220982 15.9221496 -324.23558039 14.25482564 -316.00588989 14.24128723 C-314.83115112 14.23702225 -313.65641235 14.23275726 -312.44607544 14.22836304 C-311.16594574 14.22881622 -309.88581604 14.22926941 -308.56689453 14.22973633 C-307.19822091 14.22674248 -305.82954814 14.22333943 -304.46087646 14.21955872 C-300.75007256 14.21073765 -297.03929172 14.2083814 -293.32847834 14.20774293 C-291.00821729 14.20703137 -288.68796208 14.20489506 -286.36770248 14.20224571 C-278.26775491 14.1929987 -270.16782377 14.18891004 -262.06787109 14.18969727 C-254.52604584 14.19029795 -246.98429213 14.17974627 -239.44248497 14.1639536 C-232.95994707 14.15086438 -226.47743252 14.14551395 -219.99488151 14.14615268 C-216.1264665 14.14640725 -212.2581151 14.14357854 -208.38971329 14.13297462 C-204.75026528 14.12327031 -201.11094141 14.12323039 -197.47148895 14.13049126 C-195.5059804 14.13202991 -193.54047179 14.12370674 -191.57498169 14.11505127 C-182.68247206 14.14665091 -176.11265431 14.50638738 -169.3828125 20.73828125 C-163.02630393 27.63822189 -163.7137175 37.10132591 -163.55859375 45.90234375 C-163.53781265 46.89126114 -163.51703156 47.88017853 -163.49562073 48.89906311 C-163.43059446 52.03680938 -163.37145982 55.17463446 -163.3125 58.3125 C-163.26927009 60.44857563 -163.22565442 62.5846435 -163.18164062 64.72070312 C-163.07496162 69.93872043 -162.97311087 75.15681494 -162.875 80.375 C-158.7382053 79.22782768 -156.31427439 78.38032849 -153.82421875 74.83984375 C-153.29948975 74.12119141 -152.77476074 73.40253906 -152.23413086 72.66210938 C-151.68249268 71.88673828 -151.13085449 71.11136719 -150.5625 70.3125 C-139.91619527 56.02725694 -127.460014 43.62446874 -112.875 33.375 C-112.07835937 32.80652344 -111.28171875 32.23804688 -110.4609375 31.65234375 C-102.83119873 26.38162315 -94.69766206 22.12473321 -86.21777344 18.40576172 C-84.01865853 17.43820616 -81.83348561 16.44411887 -79.6484375 15.4453125 C-71.08422761 11.61295742 -62.5138874 8.46239498 -53.4375 6.0625 C-52.15528564 5.71759521 -52.15528564 5.71759521 -50.84716797 5.36572266 C-34.01214618 1.14071719 -17.30102824 -0.1445455 0 0 Z " fill="#FEFEFE" transform="translate(1434.875,1668.625)"/>
<path d="M0 0 C3.57404975 0.00313048 7.14724522 -0.02025645 10.72119141 -0.0456543 C32.60239194 -0.10562992 54.0566814 1.9715624 75.41845703 6.76538086 C77.09762677 7.14175801 78.77874338 7.50952502 80.46142578 7.86987305 C92.58299872 10.46639448 104.10493989 13.83837106 115.62548828 18.42163086 C117.80111735 19.28687344 119.9847262 20.12856642 122.17041016 20.96801758 C133.17238125 25.27003774 143.52582942 30.63791102 153.87353516 36.31567383 C154.66260254 36.74412598 155.45166992 37.17257812 156.26464844 37.61401367 C160.2474171 39.79397762 164.07452904 42.01034908 167.74853516 44.69067383 C171.19120699 47.16492793 174.68344304 49.43510605 178.31103516 51.62817383 C183.47746577 54.87085595 187.78624156 58.69946577 192.21337891 62.87817383 C195.41001677 65.8072517 198.78997894 68.38965039 202.29150391 70.94067383 C203.07460937 71.62129883 203.07460937 71.62129883 203.87353516 72.31567383 C203.87353516 72.97567383 203.87353516 73.63567383 203.87353516 74.31567383 C204.70498047 74.64245117 204.70498047 74.64245117 205.55322266 74.97583008 C208.60441667 76.73771484 210.6954684 79.14024438 212.99853516 81.75317383 C213.98395314 82.85496811 214.96963531 83.95652617 215.95556641 85.05786133 C216.69347412 85.88688965 216.69347412 85.88688965 217.44628906 86.73266602 C218.7143957 88.13916677 220.01634622 89.51498751 221.32275391 90.88598633 C234.18703486 104.45195533 245.7811218 120.57016463 254.60009766 137.05395508 C256.05684581 139.64124704 257.67402845 142.08871827 259.31103516 144.56567383 C262.48048339 149.49440543 264.97485987 154.53709911 267.34619141 159.88989258 C268.64858352 162.81111479 270.02429416 165.68270727 271.42871094 168.55566406 C274.98163069 175.89449802 277.76264512 183.38443744 280.38012695 191.1027832 C281.96834437 195.77777438 283.65701681 200.34458364 285.62353516 204.87817383 C288.85948301 212.41103603 290.74498279 220.22406862 292.34619141 228.24536133 C292.8473347 230.40338204 292.8473347 230.40338204 293.83837891 232.71801758 C297.44684216 241.77321783 298.86086207 251.83460286 300.62744141 261.38989258 C300.82756836 262.46835449 300.82756836 262.46835449 301.03173828 263.56860352 C301.29709336 265.00241827 301.56018956 266.4366533 301.82080078 267.87133789 C302.35537171 270.77188014 302.939314 273.51301036 303.87353516 276.31567383 C304.19931099 278.6908758 304.48775619 281.05824185 304.74853516 283.44067383 C304.92129345 284.96155479 305.09449981 286.4823849 305.26806641 288.00317383 C305.36297363 288.84106445 305.45788086 289.67895508 305.55566406 290.54223633 C306.16331144 295.84398301 306.80095741 301.14215581 307.43603516 306.44067383 C307.62625244 308.03999756 307.62625244 308.03999756 307.8203125 309.67163086 C308.30942596 313.75963731 308.79946376 317.83629626 309.42822266 321.90551758 C310.40713296 329.40190964 310.50578871 336.99705459 310.77392578 344.54663086 C310.83654675 346.28743234 310.90473625 348.02805149 310.98095703 349.76831055 C311.65035983 365.59149007 311.65035983 365.59149007 306.87353516 371.31567383 C301.78102309 376.74407499 297.20866934 379.98502461 289.57799917 380.56703085 C287.76900748 380.568009 287.76900748 380.568009 285.9234705 380.56900692 C285.24498351 380.57210419 284.56649652 380.57520147 283.86744931 380.5783926 C281.59538867 380.58634975 279.32359191 380.58011375 277.05152893 380.57395935 C275.40554239 380.57681435 273.75955719 380.58055255 272.11357445 380.58509785 C267.59139301 380.59508197 263.06928912 380.59270456 258.54710186 380.58837092 C253.66971793 380.58589559 248.79235443 380.5949618 243.91497803 380.60275269 C235.4632946 380.61480004 227.01163004 380.61990574 218.55993843 380.62063408 C206.3325661 380.62195925 194.10523959 380.63706659 181.87788343 380.65612925 C162.03000412 380.68697537 142.18212365 380.71113918 122.33422852 380.72900391 C121.1462024 380.73007659 119.95817629 380.73114927 118.73414939 380.73225445 C105.47800003 380.74407591 92.2218502 380.75428115 78.96569824 380.76269531 C74.15820311 380.76576925 69.35070799 380.76885803 64.54321289 380.77197266 C62.76379728 380.77312066 62.76379728 380.77312066 60.94843388 380.77429187 C41.17636392 380.78736817 21.40432713 380.81199991 1.63228172 380.84571606 C-10.56591396 380.86601853 -22.76403873 380.87629373 -34.96225143 380.87372685 C-43.31845321 380.87269266 -51.67459888 380.88231449 -60.03078108 380.90036588 C-64.85388871 380.91042146 -69.67687224 380.91552759 -74.49998665 380.9075985 C-78.91469669 380.900427 -83.32916483 380.90698569 -87.74384404 380.9244839 C-89.34135191 380.92837047 -90.9388818 380.92718408 -92.5363801 380.92042702 C-94.70806431 380.91196938 -96.87892429 380.92196525 -99.05055904 380.9364996 C-100.85979427 380.93772128 -100.85979427 380.93772128 -102.7055797 380.93896765 C-107.26882154 381.44146958 -111.28061191 382.73170392 -114.83349609 385.78051758 C-118.95959659 391.27712495 -120.80696638 394.28382464 -120.12646484 401.31567383 C-116.93123107 412.11774254 -110.39352032 421.19581043 -103.66552734 430.06567383 C-102.12646484 432.31567383 -102.12646484 432.31567383 -102.12646484 434.31567383 C-101.46646484 434.31567383 -100.80646484 434.31567383 -100.12646484 434.31567383 C-98.41452174 436.31448307 -96.91395946 438.43625541 -95.36865234 440.56567383 C-89.54468671 447.70865607 -82.74993464 453.45867163 -75.37646484 458.94067383 C-74.49539063 459.59729004 -73.61431641 460.25390625 -72.70654297 460.93041992 C-66.42480594 465.53325772 -60.34135794 469.32948074 -53.12646484 472.31567383 C-51.74394531 472.93055664 -51.74394531 472.93055664 -50.33349609 473.55786133 C-47.28814964 474.88121026 -44.22137844 476.11270388 -41.12646484 477.31567383 C-40.4907959 477.56349609 -39.85512695 477.81131836 -39.20019531 478.06665039 C-37.09861697 478.87599123 -34.98929176 479.66120776 -32.87646484 480.44067383 C-32.24651611 480.68237305 -31.61656738 480.92407227 -30.9675293 481.1730957 C-17.35755314 486.06913246 -3.58398055 486.82712797 10.72583008 486.76171875 C13.54079126 486.75323484 16.35369574 486.78205004 19.16845703 486.8137207 C32.1367229 486.86405627 44.25188074 485.24278343 56.87353516 482.31567383 C58.01218018 482.05359131 59.1508252 481.79150879 60.32397461 481.52148438 C62.96118424 480.87567861 65.57380232 480.18043036 68.18603516 479.44067383 C69.09861084 479.18511719 70.01118652 478.92956055 70.95141602 478.66625977 C94.21457115 472.0097263 116.9874475 461.60589708 136.68603516 447.50317383 C142.80845459 443.19590669 147.85016959 440.24508847 155.43603516 440.37817383 C164.18920885 442.76540302 170.04285009 447.32425053 175.87353516 454.31567383 C175.87353516 454.97567383 175.87353516 455.63567383 175.87353516 456.31567383 C176.70884766 456.65598633 176.70884766 456.65598633 177.56103516 457.00317383 C180.53513103 458.69117419 182.59362381 460.78243899 184.87353516 463.31567383 C184.87353516 463.97567383 184.87353516 464.63567383 184.87353516 465.31567383 C185.86353516 465.64567383 186.85353516 465.97567383 187.87353516 466.31567383 C187.87353516 466.97567383 187.87353516 467.63567383 187.87353516 468.31567383 C188.47681641 468.57993164 189.08009766 468.84418945 189.70166016 469.11645508 C191.97776386 470.37322457 193.04171949 471.47007545 194.62353516 473.50317383 C197.50302937 477.03073835 200.71332777 479.86506666 204.23681641 482.73754883 C205.87353516 484.31567383 205.87353516 484.31567383 206.87353516 487.31567383 C207.53353516 487.31567383 208.19353516 487.31567383 208.87353516 487.31567383 C210.07495117 488.54272461 210.07495117 488.54272461 211.56494141 490.38598633 C215.14452811 494.59759236 218.9739599 498.48736028 222.90087891 502.37036133 C223.53812897 503.00194153 224.17537903 503.63352173 224.8319397 504.28424072 C227.50651167 506.93169447 230.18514943 509.57496571 232.86791992 512.21411133 C234.84154765 514.1577246 236.80906245 516.10735933 238.77587891 518.05786133 C239.38825912 518.65678192 240.00063934 519.25570251 240.63157654 519.87277222 C242.08383067 521.31623291 243.48431528 522.81145011 244.87353516 524.31567383 C244.87353516 524.97567383 244.87353516 525.63567383 244.87353516 526.31567383 C245.86353516 526.64567383 246.85353516 526.97567383 247.87353516 527.31567383 C249.62744141 529.24145508 249.62744141 529.24145508 251.43603516 531.62817383 C252.03544922 532.40805664 252.63486328 533.18793945 253.25244141 533.99145508 C257.90007038 540.65492312 257.81253979 547.42969684 256.87353516 555.31567383 C255.43090537 558.66811957 253.54033105 560.85675735 250.87353516 563.31567383 C250.11363281 564.05430664 250.11363281 564.05430664 249.33837891 564.80786133 C243.90586377 569.74651145 237.78607845 573.97980874 231.87353516 578.31567383 C231.01244141 578.94989258 230.15134766 579.58411133 229.26416016 580.23754883 C224.22157396 583.86692615 219.06177354 586.95917334 213.56884766 589.85864258 C211.05957139 591.21510642 208.66239004 592.67280915 206.24853516 594.19067383 C201.18850992 597.26511954 195.90747682 599.73554469 190.53735352 602.20922852 C186.23806073 604.19156253 181.99841102 606.25102413 177.79125977 608.421875 C169.36758412 612.7557424 160.82428998 616.22968201 151.87353516 619.31567383 C151.07286621 619.59266113 150.27219727 619.86964844 149.44726562 620.1550293 C144.13263961 621.98228231 138.80042471 623.74864559 133.45263672 625.47631836 C131.11511704 626.23705224 128.78737958 627.02226222 126.45947266 627.81176758 C100.31909338 636.41298288 72.24840699 641.16359231 44.87353516 643.31567383 C44.10106445 643.38334961 43.32859375 643.45102539 42.53271484 643.52075195 C-5.4927065 647.69305651 -55.82791957 641.91107026 -101.12646484 625.31567383 C-102.4987014 624.82824601 -103.87109809 624.34126881 -105.24365234 623.85473633 C-113.80359254 620.77630474 -122.02025102 617.17718839 -130.20800781 613.22338867 C-132.13750035 612.3104524 -134.08212688 611.44316948 -136.03662109 610.58520508 C-157.50388099 601.05024804 -176.92144987 587.77123008 -195.07568359 572.97192383 C-196.4776501 571.83966898 -197.92122228 570.75756533 -199.39599609 569.72192383 C-199.96705078 569.25786133 -200.53810547 568.79379883 -201.12646484 568.31567383 C-201.12646484 567.65567383 -201.12646484 566.99567383 -201.12646484 566.31567383 C-201.74521484 566.00629883 -202.36396484 565.69692383 -203.00146484 565.37817383 C-204.37646484 564.69067383 -205.75146484 564.00317383 -207.12646484 563.31567383 C-207.12646484 562.65567383 -207.12646484 561.99567383 -207.12646484 561.31567383 C-207.69623047 561.06172852 -208.26599609 560.8077832 -208.85302734 560.54614258 C-215.70978315 556.83501186 -221.3801388 550.40070721 -226.12646484 544.31567383 C-226.12646484 543.65567383 -226.12646484 542.99567383 -226.12646484 542.31567383 C-227.44646484 541.65567383 -228.76646484 540.99567383 -230.12646484 540.31567383 C-230.12646484 539.65567383 -230.12646484 538.99567383 -230.12646484 538.31567383 C-230.78646484 538.31567383 -231.44646484 538.31567383 -232.12646484 538.31567383 C-233.79434409 536.39452403 -235.34161258 534.46506519 -236.87646484 532.44067383 C-237.86958848 531.14742398 -238.8630967 529.85446939 -239.85693359 528.56176758 C-240.38593262 527.87066895 -240.91493164 527.17957031 -241.45996094 526.4675293 C-243.15259686 524.28193114 -244.87832453 522.12676159 -246.61474609 519.97583008 C-253.97048197 510.80887779 -260.28193724 501.51048905 -266.01367188 491.25708008 C-267.72348105 488.27410453 -269.58705099 485.40002232 -271.43896484 482.50317383 C-274.54012008 477.51137466 -276.89798357 472.49355593 -279.04443359 467.03051758 C-280.75352935 462.74235314 -282.81940401 458.6322532 -285.08740234 454.61254883 C-287.87801771 449.47781656 -289.56628597 444.06629616 -291.20043945 438.4777832 C-292.31943179 434.69807574 -293.6081868 431.08041074 -295.12646484 427.44067383 C-297.16218975 422.445891 -298.46366634 417.44826553 -299.62646484 412.19067383 C-300.04849927 410.33754864 -300.47168702 408.48468576 -300.89599609 406.63208008 C-301.1017627 405.7286084 -301.3075293 404.82513672 -301.51953125 403.89428711 C-302.06115502 401.59314862 -302.64443792 399.31190501 -303.26318359 397.03051758 C-305.37609467 389.2202583 -306.74350501 381.66269819 -307.44360352 373.60400391 C-307.75497409 370.12231477 -308.19544611 367.06866782 -309.14208984 363.67895508 C-310.76260168 357.5867267 -310.60203524 351.26787296 -310.75146484 345.00317383 C-310.7887106 343.64452156 -310.82631158 342.28587898 -310.86425781 340.92724609 C-310.96796875 337.05702156 -311.05060661 333.18655091 -311.12646484 329.31567383 C-311.14451172 328.3972168 -311.16255859 327.47875977 -311.18115234 326.5324707 C-311.35238555 316.06156006 -311.05141226 305.59452082 -310.75146484 295.12817383 C-310.72068848 293.88543701 -310.68991211 292.6427002 -310.65820312 291.36230469 C-310.44953257 284.99698693 -309.82586139 279.43743822 -308.12646484 273.31567383 C-307.81215795 270.60242625 -307.54318066 267.90993639 -307.31396484 265.19067383 C-305.66622978 248.52907165 -301.1997423 232.23304146 -296.12646484 216.31567383 C-295.82305176 215.35773926 -295.51963867 214.39980469 -295.20703125 213.4128418 C-294.19254453 210.2304788 -293.1623802 207.05362201 -292.12646484 203.87817383 C-291.80637451 202.88317871 -291.48628418 201.88818359 -291.15649414 200.86303711 C-289.28240509 195.21003167 -287.08302674 189.96348764 -284.3359375 184.68066406 C-282.84001182 181.75554658 -281.54383685 178.76727387 -280.25 175.7487793 C-276.44833162 166.882186 -272.15956237 158.55570076 -267.12646484 150.31567383 C-266.72105469 149.64729492 -266.31564453 148.97891602 -265.89794922 148.2902832 C-264.60702227 146.16877504 -263.30681945 144.05333248 -262.00146484 141.94067383 C-261.40809326 140.97750244 -261.40809326 140.97750244 -260.80273438 139.99487305 C-258.26514368 135.94414579 -255.53213248 132.10383662 -252.63525391 128.30249023 C-251.18712143 126.39554815 -249.7754317 124.46700105 -248.37255859 122.52661133 C-241.93761253 113.70232301 -235.0393064 105.64428304 -227.48779297 97.76245117 C-225.77510826 95.94226294 -224.16638615 94.04563428 -222.56396484 92.12817383 C-214.8462427 83.20991713 -205.38330054 75.56452979 -196.12646484 68.31567383 C-195.33965332 67.69934082 -194.5528418 67.08300781 -193.7421875 66.44799805 C-191.00248675 64.31108178 -188.25352754 62.1866415 -185.50146484 60.06567383 C-184.6185376 59.37965088 -183.73561035 58.69362793 -182.82592773 57.98681641 C-177.47637764 53.89457299 -172.08190026 50.44790283 -166.12646484 47.31567383 C-164.51558977 46.36866012 -162.90991811 45.41262375 -161.31396484 44.44067383 C-160.47865234 43.93793945 -159.64333984 43.43520508 -158.78271484 42.91723633 C-156.94761802 41.81078089 -155.11439984 40.70120579 -153.28271484 39.58911133 C-147.13716106 35.91795157 -140.92823099 32.70009721 -134.39208984 29.78051758 C-132.26290686 28.82544148 -130.14714388 27.83968407 -128.04833984 26.81958008 C-120.32135222 23.08228079 -112.47656379 20.3021284 -104.32177734 17.68676758 C-101.11918471 16.65761507 -98.00026759 15.50369936 -94.87646484 14.25317383 C-86.77191005 11.23605764 -78.15070967 9.69571548 -69.71459961 7.87915039 C-68.07467787 7.52211432 -66.4367993 7.15544484 -64.80200195 6.77563477 C-59.21374076 5.47927132 -53.62175416 4.58809179 -47.93896484 3.81567383 C-46.21629909 3.5761588 -44.49364304 3.33657404 -42.77099609 3.09692383 C-41.85688965 2.97534912 -40.9427832 2.85377441 -40.00097656 2.72851562 C-38.08522111 2.45337188 -36.17461546 2.13961344 -34.27148438 1.78759766 C-22.90494281 -0.18378965 -11.50492481 -0.02098021 0 0 Z M-15.12646484 158.31567383 C-16.80289063 158.59024414 -16.80289063 158.59024414 -18.51318359 158.87036133 C-38.25980831 162.58575413 -56.04947837 170.97372314 -73.12646484 181.31567383 C-74.11646484 181.81067383 -74.11646484 181.81067383 -75.12646484 182.31567383 C-75.12646484 182.97567383 -75.12646484 183.63567383 -75.12646484 184.31567383 C-75.69880859 184.58379883 -76.27115234 184.85192383 -76.86083984 185.12817383 C-79.20531119 186.35700019 -81.25051422 187.74089559 -83.37646484 189.31567383 C-84.43607422 190.08911133 -84.43607422 190.08911133 -85.51708984 190.87817383 C-86.04818359 191.35254883 -86.57927734 191.82692383 -87.12646484 192.31567383 C-87.12646484 192.97567383 -87.12646484 193.63567383 -87.12646484 194.31567383 C-87.68333984 194.54254883 -88.24021484 194.76942383 -88.81396484 195.00317383 C-91.78806072 196.69117419 -93.84655349 198.78243899 -96.12646484 201.31567383 C-96.12646484 201.97567383 -96.12646484 202.63567383 -96.12646484 203.31567383 C-97.61146484 203.81067383 -97.61146484 203.81067383 -99.12646484 204.31567383 C-101.72917847 207.09369978 -103.87827917 210.24801589 -106.12646484 213.31567383 C-107.32529297 214.86834961 -107.32529297 214.86834961 -108.54833984 216.45239258 C-113.28353404 222.73165148 -116.89213704 228.12442603 -116.12646484 236.31567383 C-115.20877732 241.91356771 -113.541784 244.76422146 -109.12646484 248.31567383 C-103.40300408 251.94728647 -98.61388518 252.89631011 -91.91090393 252.8236084 C-90.56872902 252.83296834 -90.56872902 252.83296834 -89.19943947 252.84251738 C-86.21854307 252.85839814 -83.23846998 252.84586229 -80.25756836 252.83325195 C-78.11337814 252.83867528 -75.96919166 252.84579913 -73.82501221 252.85449219 C-68.01299033 252.87270428 -62.20125295 252.86566629 -56.3892262 252.85297585 C-50.30089388 252.84283601 -44.21258562 252.85224439 -38.12425232 252.85852051 C-27.89960363 252.86579458 -17.67507058 252.85621601 -7.45043945 252.8371582 C4.36140892 252.81539585 16.17298103 252.82243733 27.98482269 252.84446383 C38.13453387 252.86263154 48.28416201 252.86516923 58.4338842 252.85470915 C64.49216205 252.84848106 70.55031018 252.84761977 76.60857964 252.8608551 C82.30584988 252.87243261 88.00276496 252.86435275 93.69999695 252.84127808 C95.7877042 252.83600095 97.87544147 252.83748765 99.96313667 252.84632874 C102.81948787 252.85730723 105.67471072 252.84349261 108.5309906 252.8236084 C109.76165832 252.83699273 109.76165832 252.83699273 111.01718801 252.85064745 C117.03860076 252.76969194 121.55831567 251.09315327 126.87353516 248.31567383 C126.87353516 247.65567383 126.87353516 246.99567383 126.87353516 246.31567383 C127.86353516 245.98567383 128.85353516 245.65567383 129.87353516 245.31567383 C131.16166586 243.54575793 131.16166586 243.54575793 132.12353516 241.31567383 C132.65720703 240.23286133 132.65720703 240.23286133 133.20166016 239.12817383 C134.92268279 231.92389302 132.67944341 225.78521551 128.99853516 219.62817383 C128.59997314 218.94464844 128.20141113 218.26112305 127.79077148 217.55688477 C120.5855589 205.52455525 111.42620379 194.56408005 100.87353516 185.31567383 C100.21353516 185.31567383 99.55353516 185.31567383 98.87353516 185.31567383 C98.87353516 184.65567383 98.87353516 183.99567383 98.87353516 183.31567383 C96.59968116 181.62994616 96.59968116 181.62994616 93.74853516 179.94067383 C90.76552423 178.10559665 87.81088605 176.27296981 84.91650391 174.30004883 C56.51265665 155.77738592 17.52614543 152.72616958 -15.12646484 158.31567383 Z " fill="#FEFEFE" transform="translate(725.12646484375,1668.684326171875)"/>
<path d="M0 0 C1.84000328 -0.00845947 1.84000328 -0.00845947 3.71717834 -0.01708984 C5.0684973 -0.0132016 6.41981566 -0.00910528 7.77113342 -0.00482178 C9.20054299 -0.00753317 10.62995116 -0.01109494 12.05935669 -0.01544189 C15.93540783 -0.02455138 19.81135237 -0.02102737 23.68740535 -0.01468372 C27.74718304 -0.0096153 31.80695168 -0.01431761 35.86672974 -0.01745605 C42.68514136 -0.02109365 49.50350964 -0.01630244 56.32191467 -0.0067749 C64.19890728 0.0041049 72.0757963 0.00058671 79.95278639 -0.01042771 C86.7206622 -0.01951166 93.48850688 -0.02078031 100.25638682 -0.01555037 C104.29634807 -0.01243621 108.33626069 -0.01200604 112.3762188 -0.01862335 C116.17572423 -0.02441214 119.97509653 -0.02037191 123.77458763 -0.00883484 C125.16693145 -0.00619626 126.55928652 -0.00693963 127.95162582 -0.01136017 C129.8563369 -0.01684863 131.76107254 -0.00873683 133.66577148 0 C134.73040084 0.00075405 135.79503019 0.0015081 136.89192104 0.002285 C144.26816872 0.62019072 149.13431968 3.78571245 153.89637756 9.25396729 C157.97846071 15.87898747 160.75972973 23.19100354 163.67762756 30.38287354 C164.83059952 33.09900939 166.10182421 35.69751982 167.45887756 38.31646729 C169.61286341 42.51036496 171.23586932 46.7470384 172.70887756 51.22271729 C174.11018074 54.79972802 175.83427871 58.14978134 177.57215881 61.57330322 C179.68586253 65.85215036 181.53986857 70.23383367 183.39637756 74.62896729 C183.78946106 75.55161377 184.18254456 76.47426025 184.58753967 77.42486572 C186.57784273 82.10473411 188.53534982 86.79621463 190.45887756 91.50396729 C192.75884366 97.07819067 195.33390154 102.51354279 197.95521545 107.94244385 C199.66834222 111.51863346 201.2636333 115.10687093 202.71669006 118.79693604 C205.24675824 125.22031672 208.02329138 131.53467346 210.7950592 137.85626221 C211.6991968 139.91937714 212.59970775 141.98404729 213.49989319 144.04888916 C216.41646035 150.72102641 219.38997054 157.35821139 222.49403381 163.94537354 C225.68627501 170.72404932 228.64097277 177.58764646 231.52137756 184.50396729 C235.24663653 193.42330161 239.11123581 202.2558107 243.18202209 211.02276611 C246.13416465 217.38194898 248.75019499 223.84355624 251.27137756 230.38287354 C252.45734908 233.33004363 253.82579045 236.14031655 255.27137756 238.96881104 C258.63261895 245.59002887 261.35441575 252.45688631 264.14637756 259.33209229 C266.48749105 265.03855642 269.00423903 270.56897087 271.81141663 276.06060791 C273.17146014 278.81007482 274.24408347 281.61518539 275.27137756 284.50396729 C277.51611942 290.51112237 280.27592399 296.12903082 283.19715881 301.83209229 C285.26335716 305.99298827 287.04289378 310.23157224 288.78700256 314.53521729 C289.7542762 316.90571888 290.77332593 319.2367309 291.83387756 321.56646729 C293.30452548 324.83130567 294.64978844 328.13290326 295.957901 331.46612549 C298.3342561 337.51903257 300.83786894 343.4834907 303.58387756 349.37896729 C303.86916321 349.99401123 304.15444885 350.60905518 304.44837952 351.24273682 C305.71967716 353.93704004 307.05370662 356.51246217 308.60340881 359.05865479 C309.89637756 361.25396729 309.89637756 361.25396729 309.89637756 363.25396729 C311.15450256 363.17146729 312.41262756 363.08896729 313.70887756 363.00396729 C314.41657288 362.95756104 315.12426819 362.91115479 315.85340881 362.86334229 C318.6769311 362.02114443 319.28160566 360.69763998 320.89637756 358.25396729 C321.78908767 356.39241122 322.62576151 354.50344582 323.41981506 352.59771729 C324.11590881 350.93869385 324.11590881 350.93869385 324.82606506 349.24615479 C325.30301819 348.09373291 325.77997131 346.94131104 326.27137756 345.75396729 C326.74059631 344.63248291 327.20981506 343.51099854 327.69325256 342.35552979 C329.09983225 338.99061815 330.49898353 335.62270265 331.89637756 332.25396729 C335.83097676 322.78607316 339.83786729 313.36330289 344.02113342 304.0022583 C349.96186545 290.70359416 355.74220608 277.35269966 361.28309631 263.88287354 C363.86282985 257.62478178 366.62764811 251.48160182 369.49012756 245.34771729 C371.08385129 241.84152509 372.50617601 238.29065186 373.90419006 234.70318604 C374.96893207 232.0748662 376.13897893 229.51309695 377.33387756 226.94146729 C379.18408001 222.92986626 380.8361134 218.88695542 382.39637756 214.75396729 C384.2768708 209.7803263 386.34395646 204.95146953 388.57997131 200.12896729 C392.08900003 192.46533188 395.31692216 184.67385419 398.52137756 176.87896729 C399.86987139 173.61939144 401.26448603 170.44317146 402.89637756 167.31646729 C405.13265617 162.9876067 406.77612087 158.45926512 408.45497131 153.89068604 C410.00774771 149.97297649 411.74057402 146.16775178 413.4981842 142.33868408 C416.05263577 136.70301174 418.46614819 131.0065348 420.89637756 125.31646729 C421.40426819 124.13117432 421.91215881 122.94588135 422.43544006 121.72467041 C425.27394472 115.09057554 428.07580938 108.44352509 430.81825256 101.769104 C431.76393244 99.56294591 432.78065155 97.44030822 433.89637756 95.31646729 C435.51018545 92.17780156 436.78688873 88.99782548 438.02137756 85.69146729 C440.82876699 78.22834509 444.03117805 70.95033951 447.22938538 63.64776611 C449.80269795 57.77177796 452.33837512 51.88813074 454.76356506 45.94927979 C455.73072373 43.64810916 456.73466441 41.37129468 457.75575256 39.09381104 C459.24019739 35.77085891 460.66228119 32.42916546 462.04481506 29.06256104 C462.59395569 27.73901611 462.59395569 27.73901611 463.15419006 26.38873291 C463.89922619 24.58996561 464.63621466 22.78784398 465.36512756 20.98248291 C468.79265523 12.79117115 472.82170297 5.54900696 480.89637756 1.25396729 C484.59984786 0.30887008 488.07241386 0.1263873 491.8861084 0.12025452 C493.08753479 0.11598953 494.28896118 0.11172455 495.52679443 0.10733032 C497.49142387 0.1080101 497.49142387 0.1080101 499.4957428 0.10870361 C500.89559519 0.1057099 502.29544676 0.10230688 503.69529724 0.098526 C507.49074195 0.08970436 511.2861641 0.08734869 515.08161807 0.08671021 C517.4541343 0.08599879 519.82664481 0.08386273 522.19915962 0.081213 C530.47950224 0.07196638 538.75982878 0.06787735 547.04017639 0.06866455 C554.7535681 0.06926549 562.46688992 0.05870869 570.18026394 0.04292089 C576.80800786 0.02983948 583.43572895 0.02448089 590.06348568 0.02511996 C594.01961766 0.02537473 597.97568747 0.02253515 601.93180656 0.01194191 C605.65250742 0.00225056 609.37308679 0.00218882 613.09379196 0.00945854 C615.10601134 0.01100016 617.11823074 0.00266529 619.13043213 -0.00598145 C620.33467834 -0.00178696 621.53892456 0.00240753 622.77966309 0.00672913 C623.82216941 0.00618436 624.86467573 0.00563959 625.93877316 0.00507832 C632.30779004 0.54104521 637.17401756 3.10546369 641.89637756 7.25396729 C646.37800289 13.22946772 646.49407268 20.02728992 645.89637756 27.25396729 C645.18822357 30.3821121 644.07975676 33.27702899 642.89637756 36.25396729 C642.46325256 37.39349854 642.03012756 38.53302979 641.58387756 39.70709229 C640.36932335 42.89529709 639.1388558 46.07656246 637.89637756 49.25396729 C637.23637756 49.25396729 636.57637756 49.25396729 635.89637756 49.25396729 C635.81387756 50.24396729 635.73137756 51.23396729 635.64637756 52.25396729 C635.12843326 55.88499145 633.72273848 58.66966049 632.04188538 61.92584229 C629.90920813 66.26028607 628.1863696 70.76982342 626.39637756 75.25396729 C624.05746465 81.11322354 621.66595942 86.85423106 618.78065491 92.46636963 C617.47920683 95.09729256 616.47000893 97.81297113 615.45887756 100.56646729 C613.52509527 105.70344725 611.38468688 110.68043794 609.07215881 115.65631104 C607.97417105 118.08209795 606.98251486 120.52137009 606.02137756 123.00396729 C604.4259277 127.07840299 602.60439503 130.99791945 600.70887756 134.94146729 C597.13046012 142.42825505 594.13092598 150.11718895 591.18080139 157.86993408 C589.02916865 163.49393115 586.69358388 168.97987435 584.16835022 174.44586182 C581.49322385 180.35167822 579.09480679 186.37844313 576.64637756 192.38092041 C574.30533797 198.06159929 571.78486114 203.56981404 568.99012756 209.04083252 C567.58773104 211.87849424 566.4701863 214.77798308 565.39637756 217.75396729 C563.91511047 221.71635677 562.34626326 225.50043732 560.39637756 229.25396729 C557.95026876 233.9785388 556.08520926 238.83571903 554.21669006 243.81256104 C551.41865942 251.10565275 548.44562679 258.38423894 544.83387756 265.31646729 C542.53878722 269.75427683 540.87376396 274.42377354 539.11512756 279.09381104 C537.83286823 282.41864373 536.40382927 285.64327981 534.92372131 288.88287354 C533.66684523 291.78372443 532.56776237 294.73098666 531.45887756 297.69146729 C529.95202777 301.66826047 528.35423845 305.4794079 526.39637756 309.25396729 C523.96958596 313.93312484 522.10901456 318.73935095 520.30262756 323.68756104 C518.76685374 327.58245409 517.04307554 331.36081645 515.29676819 335.16485596 C512.74132805 340.80188246 510.32725122 346.49989128 507.89637756 352.19146729 C507.38848694 353.37676025 506.88059631 354.56205322 506.35731506 355.78326416 C502.66610494 364.41028475 499.04532194 373.06505282 495.45497131 381.73443604 C493.67347133 386.03610672 491.88082754 390.32547024 489.95887756 394.56646729 C488.20704998 398.45552451 486.64171887 402.40945807 485.08387756 406.37896729 C482.75906468 412.28916817 480.17358749 418.02784117 477.43666077 423.75714111 C475.029472 428.84462273 473.03078928 434.0315388 471.06434631 439.30084229 C470.03202389 441.91099531 468.88937331 444.33559165 467.58387756 446.81646729 C464.58464007 452.58787067 462.28262671 458.62936874 459.92640686 464.68389893 C457.85034557 469.98903964 455.59389955 475.17539002 453.21278381 480.35040283 C450.83864551 485.58698051 448.62602494 490.89215132 446.39637756 496.19146729 C445.93618225 497.28136963 445.47598694 498.37127197 445.00184631 499.49420166 C442.7623971 504.80264254 440.53900267 510.11706424 438.33778381 515.44146729 C436.11407578 520.78636173 433.74734846 526.05518446 431.33387756 531.31646729 C428.54689859 537.4370931 425.96747464 543.52925454 423.78309631 549.89459229 C422.51472412 553.26946807 420.83851045 556.39640353 419.18153381 559.59381104 C417.2261209 563.64133746 415.71532582 567.84060843 414.13856506 572.04693604 C412.67192503 575.83345007 410.99710301 579.48839038 409.27528381 583.16412354 C408.19915946 585.57549566 407.19957765 587.98102989 406.23622131 590.43756104 C398.39698468 610.3925751 398.39698468 610.3925751 387.89637756 615.25396729 C384.61076419 616.29964333 381.58627572 616.38202818 378.14752197 616.38768005 C376.97415787 616.39194504 375.80079376 616.39621002 374.59187317 616.40060425 C372.66628571 616.39992447 372.66628571 616.39992447 370.70179749 616.39923096 C369.33327137 616.40222386 367.96474609 616.4056267 366.59622192 616.40940857 C362.88122671 616.41824028 359.16625453 616.42058636 355.45124984 616.42122436 C353.12881656 616.42193543 350.80638912 616.42407086 348.48395729 616.42672157 C340.37753045 616.43597287 332.27112005 616.44005681 324.16468811 616.43927002 C316.61549924 616.43866956 309.06638191 616.44921559 301.51721114 616.46501368 C295.03044715 616.47810336 288.5437065 616.4834533 282.05692941 616.48281461 C278.18514606 616.48256 274.31342627 616.48539042 270.44165611 616.49599266 C266.79811753 616.50569747 263.15470294 616.50573655 259.5111599 616.49847603 C257.54325635 616.49693734 255.57535276 616.50526065 253.60746765 616.51391602 C245.29836181 616.48442562 238.09219743 616.33536873 231.72059631 610.46490479 C226.20410149 603.77896031 222.69236006 595.46080437 219.65419006 587.41802979 C216.36422293 578.71523262 212.61638459 570.21719636 208.89637756 561.69146729 C207.49925516 558.48239152 206.10380214 555.27259267 204.70887756 552.06256104 C204.37496506 551.29531204 204.04105255 550.52806305 203.69702148 549.73756409 C201.78505312 545.33527352 199.91604931 540.91844988 198.08778381 536.48052979 C196.49223328 532.6217799 194.78713448 528.88578887 192.83387756 525.19146729 C190.44619476 520.51964915 188.60062411 515.84682918 186.88856506 510.89459229 C185.90406919 508.27443791 184.74824359 505.86159752 183.45887756 503.37896729 C181.54236319 499.67991979 179.97537785 495.97081559 178.52137756 492.06646729 C176.43640152 486.49341812 174.04165107 481.1516347 171.48939514 475.78399658 C169.17383836 470.89925333 167.05774921 465.95275795 165.00965881 460.94927979 C164.01072717 458.5308137 162.96971403 456.1401097 161.89637756 453.75396729 C159.91942945 449.35366342 158.07428385 444.90292853 156.24012756 440.44146729 C155.22774587 438.04000374 154.19070795 435.65895165 153.12660217 433.28057861 C150.66531294 427.75204875 148.26577646 422.19744081 145.86903381 416.64068604 C145.16284157 415.00448051 145.16284157 415.00448051 144.44238281 413.33522034 C143.45129124 411.03846929 142.46045592 408.74160765 141.46986389 406.44464111 C139.9677637 402.96206952 138.46434364 399.48006977 136.96083069 395.99810791 C135.99265124 393.75400201 135.02454975 391.50986247 134.05653381 389.26568604 C133.39223106 387.72759529 133.39223106 387.72759529 132.71450806 386.15843201 C130.09546109 380.08179724 127.52245644 373.98788764 124.98876953 367.87515259 C123.49730402 364.29639369 121.95642147 360.74075378 120.39637756 357.19146729 C120.1269635 356.57465088 119.85754944 355.95783447 119.57997131 355.32232666 C117.928695 351.55511255 116.23603811 347.80917325 114.52137756 344.07037354 C111.1890892 336.75610141 108.10775455 329.33826195 105.00184631 321.92584229 C102.42655031 315.80316671 99.78317546 309.72520896 96.99208069 303.6975708 C95.88183974 301.22154547 94.8752237 298.72199666 93.89637756 296.19146729 C92.58192481 292.83406988 91.11644392 289.64299731 89.45887756 286.44146729 C87.55228237 282.72099886 85.98189625 278.98353051 84.52137756 275.06646729 C82.69226708 270.17158356 80.64734316 265.46311298 78.39637756 260.75396729 C76.19542842 256.14561974 74.18124346 251.5449231 72.39637756 246.75396729 C70.15630758 240.7485165 67.5172775 235.02050702 64.74012756 229.25006104 C63.26781403 226.12994526 61.93127438 222.96642638 60.61512756 219.77740479 C58.66889998 215.06704968 56.65364177 210.39160486 54.58387756 205.73443604 C54.29016266 205.07340881 53.99644775 204.41238159 53.6938324 203.73132324 C53.07955767 202.34979656 52.46508192 200.96835923 51.85041809 199.58700562 C45.79427842 185.96737477 39.90184543 172.28891605 34.19715881 158.51837158 C31.22777596 151.36481429 28.13207052 144.29057371 24.89637756 137.25396729 C20.87976927 128.30540118 17.03037263 119.29355586 13.38124084 110.18902588 C11.72507594 106.10008765 9.88591181 102.16307837 7.88490295 98.23199463 C6.29891253 95.05844698 4.87420129 91.81895105 3.45887756 88.56646729 C3.15739807 87.87657715 2.85591858 87.18668701 2.54530334 86.47589111 C0.23065617 81.13226785 -1.86817428 75.72193609 -3.92393494 70.27349854 C-5.78576059 65.50796467 -7.93699727 60.88700223 -10.10362244 56.25396729 C-11.80547908 52.60230137 -13.46102987 48.93264256 -15.10362244 45.25396729 C-15.40123474 44.61652588 -15.69884705 43.97908447 -16.00547791 43.32232666 C-20.27478201 34.14278515 -24.1498738 25.61491609 -22.10362244 15.25396729 C-19.65244142 8.92003314 -14.89800143 4.09180275 -8.79759884 1.13702774 C-5.72023658 0.12829696 -3.23705677 0.00229354 0 0 Z " fill="#FEFEFE" transform="translate(2081.1036224365234,1682.7460327148438)"/>
<path d="M0 0 C0.80408798 -0.00570007 1.60817596 -0.01140015 2.43663025 -0.01727295 C4.1524829 -0.0267516 5.86835399 -0.03326822 7.58422852 -0.03710938 C10.15220749 -0.04664248 12.71932463 -0.07756042 15.28710938 -0.109375 C29.11459471 -0.20064691 43.60045089 -0.26361563 54.8046875 8.87890625 C61.27570001 15.28531631 65.24375563 21.23216111 65.40234375 30.390625 C65.30186397 38.78626907 62.69260348 46.7722325 57.15234375 53.203125 C52.47644942 57.04706449 47.34485447 60.11543559 42.15234375 63.203125 C43.50893101 68.15729174 45.78748987 71.83637081 48.83984375 75.890625 C49.7375375 77.11973713 50.63335243 78.35022354 51.52734375 79.58203125 C51.96949219 80.18934082 52.41164063 80.79665039 52.8671875 81.42236328 C54.74462899 84.02381812 56.56194671 86.65769497 58.33984375 89.328125 C58.91089844 90.17632813 59.48195313 91.02453125 60.0703125 91.8984375 C61.15234375 94.203125 61.15234375 94.203125 60.828125 96.5078125 C60.60511719 97.06726562 60.38210937 97.62671875 60.15234375 98.203125 C56.96484375 99.015625 56.96484375 99.015625 53.15234375 99.203125 C50.8844487 97.57489265 49.78823853 96.39989799 48.15234375 94.203125 C47.25902344 93.01589844 47.25902344 93.01589844 46.34765625 91.8046875 C44.25177186 88.95852543 42.19853485 86.08519084 40.15234375 83.203125 C33.3917934 72.3967606 33.3917934 72.3967606 24.15234375 64.203125 C22.65472613 64.10772388 21.15299547 64.07239014 19.65234375 64.0703125 C18.76546875 64.06902344 17.87859375 64.06773437 16.96484375 64.06640625 C16.03671875 64.07027344 15.10859375 64.07414062 14.15234375 64.078125 C13.22421875 64.07425781 12.29609375 64.07039063 11.33984375 64.06640625 C10.00953125 64.06833984 10.00953125 64.06833984 8.65234375 64.0703125 C7.4303125 64.07200439 7.4303125 64.07200439 6.18359375 64.07373047 C4.08383423 64.07510997 4.08383423 64.07510997 2.15234375 65.203125 C1.07368478 68.43910192 1.0115297 70.85832799 0.9765625 74.26171875 C0.95271484 75.45216797 0.92886719 76.64261719 0.90429688 77.86914062 C0.86139782 80.37938525 0.83010948 82.88985568 0.81054688 85.40039062 C0.78283203 86.59212891 0.75511719 87.78386719 0.7265625 89.01171875 C0.71197998 90.10282959 0.69739746 91.19394043 0.68237305 92.31811523 C0.04255421 95.80072194 -1.15428595 96.99117999 -3.84765625 99.203125 C-6.22265625 98.578125 -6.22265625 98.578125 -8.84765625 97.203125 C-10.97541256 92.45662868 -11.13349885 87.91321716 -11.10644531 82.79858398 C-11.10994995 81.97668579 -11.11345459 81.1547876 -11.11706543 80.3079834 C-11.12583155 77.60497465 -11.12005228 74.90222992 -11.11328125 72.19921875 C-11.11462924 70.3140508 -11.1165709 68.42888319 -11.11907959 66.54371643 C-11.12202381 62.59885335 -11.11775531 58.65408102 -11.10839844 54.70922852 C-11.0969965 49.65633909 -11.10357253 44.60366197 -11.11554337 39.5507803 C-11.12277423 35.66028751 -11.12046852 31.76984497 -11.11528778 27.87935066 C-11.11395509 26.0162459 -11.11558567 24.15313656 -11.12024689 22.29003716 C-11.12533312 19.68599247 -11.11757278 17.08229068 -11.10644531 14.47827148 C-11.11049377 13.71086136 -11.11454224 12.94345123 -11.11871338 12.15278625 C-11.04108599 2.33305963 -9.33604153 0.05114012 0 0 Z M1.15234375 13.203125 C-0.62350335 18.53066629 -0.03356848 24.3016233 -0.03295898 29.8815918 C-0.03514488 32.12893628 -0.05331077 34.37578924 -0.07226562 36.62304688 C-0.07519995 38.05468583 -0.07718448 39.4863271 -0.078125 40.91796875 C-0.08223389 42.21855225 -0.08634277 43.51913574 -0.09057617 44.85913086 C0.13499594 47.96431797 0.27660788 49.73994585 2.15234375 52.203125 C4.9418867 52.77309648 7.33871108 53.08246118 10.15234375 53.203125 C10.82442871 53.23583496 11.49651367 53.26854492 12.18896484 53.30224609 C31.38412097 54.15051739 31.38412097 54.15051739 48.15234375 46.203125 C52.86262856 41.71713947 53.99294271 38.12547749 54.33984375 31.765625 C54.04316726 26.12877174 52.63265205 21.89061744 48.83984375 17.58984375 C40.36637601 10.62669318 28.89160382 11.02103275 18.58984375 11.015625 C17.35814453 11.00337891 16.12644531 10.99113281 14.85742188 10.97851562 C13.67470703 10.97658203 12.49199219 10.97464844 11.2734375 10.97265625 C9.65586548 10.96649292 9.65586548 10.96649292 8.00561523 10.96020508 C5.14242412 11.20396953 3.49850307 11.56480273 1.15234375 13.203125 Z " fill="#F7F9FB" transform="translate(2033.84765625,2368.796875)"/>
<path d="M0 0 C3.03464614 2.41346018 5.52550741 5.02115224 8 8 C8.69996094 8.82371094 9.39992188 9.64742187 10.12109375 10.49609375 C19.94015185 22.90954518 21.56761525 36.63333375 20 52 C19.17063556 56.02567908 17.91432153 59.37411997 16 63 C15.57589844 63.845625 15.15179687 64.69125 14.71484375 65.5625 C8.36139328 77.17214766 -2.14089539 86.38048389 -14.625 90.9375 C-27.59417343 94.26239956 -42.79185184 92.80295169 -54.375 86.125 C-64.57438542 79.48965103 -64.57438542 79.48965103 -65.625 75.8125 C-65.74875 75.214375 -65.8725 74.61625 -66 74 C-66.61617187 73.7009375 -67.23234375 73.401875 -67.8671875 73.09375 C-72.55274286 70.6909011 -74.45568323 65.50594305 -76.171875 60.7578125 C-80.48326013 46.98012523 -81.96076943 33.79343166 -75.7109375 20.1953125 C-74.25362478 17.69372222 -72.68917283 15.35049993 -71 13 C-70.21109375 11.82824219 -70.21109375 11.82824219 -69.40625 10.6328125 C-62.56694692 1.05133601 -51.69770024 -6.11845668 -40.12890625 -8.62109375 C-24.85169552 -10.47114299 -13.00905563 -8.35353064 0 0 Z M-55 11 C-55.70511719 11.61101563 -56.41023438 12.22203125 -57.13671875 12.8515625 C-66.0629972 21.13435692 -68.25582926 30.6652877 -69.3125 42.5 C-68.25814705 54.30875306 -63.73013269 64.90661403 -55 73 C-45.79831993 80.06472144 -35.39273789 82.98139487 -23.87890625 81.5703125 C-19.24779991 80.65288845 -15.19916661 79.14102245 -11 77 C-9.824375 76.40058594 -9.824375 76.40058594 -8.625 75.7890625 C-1.98377083 71.90753329 1.4336341 66.69848517 5 60 C5.65355469 58.86111328 5.65355469 58.86111328 6.3203125 57.69921875 C10.6476907 48.93854749 10.49969435 37.69146299 8.046875 28.3828125 C5.87044015 22.85907595 3.2657713 18.15048018 -1 14 C-1.66 14 -2.32 14 -3 14 C-3.495 12.515 -3.495 12.515 -4 11 C-18.69875202 -1.86498958 -40.36519856 -1.75854484 -55 11 Z " fill="#F7F9FA" transform="translate(2465,2377)"/>
<path d="M0 0 C2.171875 1.9609375 2.171875 1.9609375 3.171875 4.4609375 C3.171875 7.58357325 2.25677127 8.70924953 0.171875 10.9609375 C-4.77577619 10.41540781 -8.67101864 8.77002391 -13.015625 6.4609375 C-19.74012421 2.95434001 -24.50306267 1.75678075 -32.015625 1.7109375 C-33.2540918 1.68 -33.2540918 1.68 -34.51757812 1.6484375 C-42.98406117 1.5950633 -48.91307627 3.8828274 -55.703125 8.9609375 C-56.62867188 9.6415625 -57.55421875 10.3221875 -58.5078125 11.0234375 C-61.00992177 12.92690159 -61.00992177 12.92690159 -62.828125 15.9609375 C-63.488125 15.9609375 -64.148125 15.9609375 -64.828125 15.9609375 C-65.11558594 16.69054688 -65.40304687 17.42015625 -65.69921875 18.171875 C-66.38957478 19.8774605 -67.10511707 21.57345581 -67.86328125 23.25 C-72.39972811 33.56481073 -72.96962999 44.08446643 -69.828125 54.9609375 C-67.84083791 58.91553894 -65.50209765 62.44077098 -62.828125 65.9609375 C-62.19390625 66.82332031 -61.5596875 67.68570313 -60.90625 68.57421875 C-58.74384262 71.05773549 -56.7896222 72.50044146 -53.953125 74.1484375 C-53.13070313 74.63699219 -52.30828125 75.12554688 -51.4609375 75.62890625 C-41.45312232 80.6922074 -30.20684213 81.06461288 -19.53125 77.99609375 C-16.15604905 76.70356737 -13.28557158 75.04759233 -10.3515625 72.94921875 C-8.828125 71.9609375 -8.828125 71.9609375 -6.828125 71.9609375 C-6.79917953 68.50262164 -6.781345 65.04433678 -6.765625 61.5859375 C-6.75305664 60.10867187 -6.75305664 60.10867187 -6.74023438 58.6015625 C-6.73540039 57.19003906 -6.73540039 57.19003906 -6.73046875 55.75 C-6.72261353 54.44603271 -6.72261353 54.44603271 -6.71459961 53.11572266 C-6.68690149 50.91043756 -6.68690149 50.91043756 -7.828125 48.9609375 C-8.94840088 48.9312085 -8.94840088 48.9312085 -10.09130859 48.90087891 C-13.46228105 48.80585539 -16.83261429 48.69608491 -20.203125 48.5859375 C-21.37875 48.555 -22.554375 48.5240625 -23.765625 48.4921875 C-24.88710937 48.45351562 -26.00859375 48.41484375 -27.1640625 48.375 C-28.20095215 48.3435791 -29.2378418 48.3121582 -30.30615234 48.27978516 C-32.828125 47.9609375 -32.828125 47.9609375 -34.828125 45.9609375 C-35.078125 42.9609375 -35.078125 42.9609375 -34.828125 39.9609375 C-32.828125 37.9609375 -32.828125 37.9609375 -29.29638672 37.73388672 C-27.78349169 37.73420387 -26.27057412 37.74553117 -24.7578125 37.765625 C-23.96158478 37.7684549 -23.16535706 37.77128479 -22.34500122 37.77420044 C-19.79755737 37.7854111 -17.25046289 37.81051688 -14.703125 37.8359375 C-12.97786965 37.84596617 -11.25260881 37.85509222 -9.52734375 37.86328125 C-5.29413586 37.88535328 -1.0611897 37.91988883 3.171875 37.9609375 C6.53285837 43.27098812 5.62109317 49.9075217 5.65234375 55.97729492 C5.67173126 58.25653934 5.73378474 60.53215073 5.796875 62.81054688 C5.97797251 75.01715754 5.97797251 75.01715754 2.5 79.30078125 C-6.85903234 87.70150842 -21.35779654 92.21065622 -33.828125 91.9609375 C-48.94488301 90.26616583 -58.86067683 85.57522991 -69.828125 74.9609375 C-71.189375 73.81625 -71.189375 73.81625 -72.578125 72.6484375 C-80.47472718 63.2163849 -84.34697432 50.95142305 -83.640625 38.7734375 C-83.39927585 36.49928155 -83.13126818 34.22768383 -82.828125 31.9609375 C-82.73660156 31.15914062 -82.64507813 30.35734375 -82.55078125 29.53125 C-80.70668844 18.21805139 -73.64137695 8.00355122 -64.828125 0.9609375 C-44.81276152 -13.16901513 -20.62414531 -14.86989482 0 0 Z " fill="#F7F9FA" transform="translate(1974.828125,2378.0390625)"/>
<path d="M0 0 C0.8527652 -0.00287018 1.7055304 -0.00574036 2.58413696 -0.00869751 C4.39480246 -0.01074057 6.2054899 -0.00519383 8.01611328 0.00732422 C10.74434074 0.02317763 13.47104155 0.00758789 16.19921875 -0.01171875 C31.02365353 -0.03047 45.57769467 0.66602694 56.73828125 11.6953125 C63.27892232 19.25756178 64.70795468 25.1339535 64.2890625 34.9609375 C63.44235058 43.39852028 60.81995412 48.77375217 54.4140625 54.3984375 C53.6715625 55.0790625 52.9290625 55.7596875 52.1640625 56.4609375 C44.07925064 62.15705494 36.05957717 63.46627207 26.2734375 63.609375 C24.95601562 63.63773438 23.63859375 63.66609375 22.28125 63.6953125 C20.2119121 63.73675847 18.14283423 63.77370521 16.07324219 63.79980469 C14.05641831 63.82735433 12.03988923 63.87433586 10.0234375 63.921875 C8.2285791 63.951604 8.2285791 63.951604 6.39746094 63.98193359 C3.48011808 64.19037502 3.48011808 64.19037502 1.52416992 65.53588867 C-0.10734582 68.27326136 0.04499953 70.50574034 0.04296875 73.67578125 C0.02556641 74.91134766 0.00816406 76.14691406 -0.00976562 77.41992188 C-0.01886653 80.02668202 -0.02408659 82.63345866 -0.02539062 85.24023438 C-0.04408203 86.47708984 -0.06277344 87.71394531 -0.08203125 88.98828125 C-0.08388428 90.12128662 -0.0857373 91.25429199 -0.08764648 92.42163086 C-0.6847319 95.98863842 -1.82442036 97.15476904 -4.5859375 99.3984375 C-6.60639192 98.79660001 -8.60704789 98.12537654 -10.5859375 97.3984375 C-12.23848242 94.09334765 -11.74228215 90.40750598 -11.74707031 86.77368164 C-11.75451767 85.43447914 -11.75451767 85.43447914 -11.76211548 84.06822205 C-11.77675383 81.10667153 -11.78354133 78.14517454 -11.7890625 75.18359375 C-11.79481188 73.13097634 -11.80056964 71.07835895 -11.80633545 69.02574158 C-11.81684973 64.71906279 -11.82268983 60.41240271 -11.82617188 56.10571289 C-11.83166228 50.57941388 -11.85570023 45.05336056 -11.88414383 39.52713871 C-11.90273867 35.28673066 -11.90797409 31.0463822 -11.90950775 26.80593681 C-11.91254116 24.7681182 -11.92059271 22.73030081 -11.93369293 20.69252205 C-11.95069012 17.84568527 -11.94888891 14.99945439 -11.94238281 12.15258789 C-11.9515976 11.30624786 -11.96081238 10.45990784 -11.9703064 9.58792114 C-11.92913932 3.85665212 -11.92913932 3.85665212 -10.30085373 1.68270016 C-7.29990159 -0.56464621 -3.60686098 -0.0267543 0 0 Z M0.4140625 12.3984375 C-1.09986283 15.42628815 -0.7487785 18.56909343 -0.75390625 21.890625 C-0.75723465 22.63297394 -0.76056305 23.37532288 -0.76399231 24.14016724 C-0.76905837 25.71209086 -0.77140073 27.28402525 -0.77124023 28.85595703 C-0.77342258 31.2570173 -0.79156973 33.65761506 -0.81054688 36.05859375 C-0.81348172 37.58593593 -0.81546591 39.11328029 -0.81640625 40.640625 C-0.82359177 41.35741425 -0.83077728 42.07420349 -0.83818054 42.81271362 C-0.82131398 46.50740211 -0.62788034 49.25939929 1.4140625 52.3984375 C5.8065443 52.44832154 10.19887074 52.48438331 14.59155273 52.50830078 C16.0821419 52.5182842 17.57271186 52.53187572 19.06323242 52.54931641 C34.7324542 53.16439488 34.7324542 53.16439488 47.9765625 45.95703125 C52.60930864 40.93402661 53.38162393 36.09159476 53.4140625 29.3984375 C52.46535137 23.46899295 48.9632307 19.14362137 44.4140625 15.3984375 C35.42434019 11.31992303 26.51169893 10.85346213 16.7890625 11.0859375 C15.53738281 11.09560547 14.28570313 11.10527344 12.99609375 11.11523438 C6.60181656 11.08453851 6.60181656 11.08453851 0.4140625 12.3984375 Z " fill="#F8FAFB" transform="translate(2281.5859375,2368.6015625)"/>
<path d="M0 0 C2.375 1.3125 2.375 1.3125 3.01457214 3.03756714 C3.4411089 5.72976328 3.5074428 8.29697452 3.5168457 11.02392578 C3.52388016 12.17257111 3.53091461 13.32121643 3.53816223 14.50466919 C3.54232651 15.74320648 3.54649078 16.98174377 3.55078125 18.2578125 C3.56804299 20.21438449 3.58532879 22.17095659 3.60398388 24.12751579 C3.64939571 28.94175146 3.68724347 33.7558745 3.70092773 38.5703125 C3.70910656 41.27159678 3.72779894 43.97242394 3.75785828 46.67355347 C3.78580978 49.21112911 3.79894718 51.74892511 3.79499817 54.28665161 C3.94835275 65.14415607 6.62725284 74.56475284 14.5 82.4375 C21.63877379 87.09322204 28.83094047 89.59217004 37.375 88.3125 C44.60175466 86.46883953 51.44793369 84.00942036 55.55078125 77.42578125 C56.60645412 75.41040577 57.53391093 73.42669207 58.375 71.3125 C58.71563477 70.53616211 59.05626953 69.75982422 59.40722656 68.95996094 C60.8333442 63.58503727 60.69367726 58.33162724 60.71875 52.79296875 C60.7333728 51.57982498 60.74799561 50.36668121 60.76306152 49.11677551 C60.80947851 45.24455035 60.84371489 41.3723752 60.875 37.5 C60.91629197 32.4099708 60.97004388 27.32029312 61.03125 22.23046875 C61.0365271 21.070811 61.0418042 19.91115326 61.04724121 18.71635437 C61.12568032 12.277664 61.72423336 6.54200237 63.375 0.3125 C66.1875 -0.375 66.1875 -0.375 69.375 -0.6875 C71.04896545 0.41738892 71.04896545 0.41738892 72.375 2.3125 C72.76268005 5.01547241 72.76268005 5.01547241 72.77905273 8.32177734 C72.79173691 9.56091888 72.80442108 10.80006042 72.81748962 12.07675171 C72.81543606 13.43398199 72.81244628 14.79121113 72.80859375 16.1484375 C72.81315889 17.547905 72.81846546 18.94737025 72.82447815 20.34683228 C72.83342286 23.28746606 72.83097751 26.22782863 72.82104492 29.16845703 C72.80965382 32.9015124 72.82960504 36.63360784 72.85896206 40.36653709 C72.87750796 43.26317123 72.87699387 46.15958422 72.87132454 49.05626297 C72.87117301 50.42991083 72.87707515 51.80357536 72.88961601 53.17716599 C72.98793066 65.73005077 71.38573541 77.93061301 62.375 87.3125 C52.42619637 96.98766266 43.55027169 99.72266829 29.75488281 99.68066406 C19.06771795 99.39334936 11.19675569 95.52880599 3.375 88.3125 C-7.2099612 76.8692987 -7.77988867 64.34198597 -7.79296875 49.51171875 C-7.79629715 48.19839066 -7.79962555 46.88506256 -7.80305481 45.53193665 C-7.80900857 42.7676206 -7.81089824 40.00333567 -7.81030273 37.23901367 C-7.81020051 33.69708834 -7.82393149 30.15536073 -7.84107494 26.61348248 C-7.85484544 23.22539128 -7.85428231 19.8373376 -7.85546875 16.44921875 C-7.86265427 15.17737228 -7.86983978 13.90552582 -7.87724304 12.59513855 C-7.87416641 11.41994156 -7.87108978 10.24474457 -7.86791992 9.03393555 C-7.86934494 7.99883347 -7.87076996 6.96373138 -7.87223816 5.89726257 C-7.625 3.3125 -7.625 3.3125 -5.625 0.3125 C-2.625 -0.6875 -2.625 -0.6875 0 0 Z " fill="#F6F9FA" transform="translate(2150.625,2369.6875)"/>
<path d="M0 0 C0 3 0 3 -1.74414062 5.0847168 C-2.54013672 5.86500244 -3.33613281 6.64528809 -4.15625 7.44921875 C-5.01347656 8.29677734 -5.87070312 9.14433594 -6.75390625 10.01757812 C-7.66011719 10.89865234 -8.56632812 11.77972656 -9.5 12.6875 C-10.40621094 13.58017578 -11.31242187 14.47285156 -12.24609375 15.39257812 C-14.49085168 17.60189251 -16.74229998 19.80392533 -19 22 C-19.66 21.67 -20.32 21.34 -21 21 C-16.46448784 15.12063239 -11.16068501 10.16856388 -5.6875 5.1875 C-5.13771484 4.68541016 -4.58792969 4.18332031 -4.02148438 3.66601562 C-2.68194761 2.44296032 -1.34111008 1.22132992 0 0 Z " fill="#E6E8EB" transform="translate(517,1747)"/>
<path d="M0 0 C0.66 0.33 1.32 0.66 2 1 C-1.63 4.63 -5.26 8.26 -9 12 C-9 7.8407692 -6.75316432 5.85455565 -4 3 C-1.6875 1.125 -1.6875 1.125 0 0 Z " fill="#E2EBF0" transform="translate(2406,2377)"/>
</svg>
